<?xml version="1.0" encoding="UTF-8"?><svg xmlns="http://www.w3.org/2000/svg" xmlns:xlink="http://www.w3.org/1999/xlink" fill-opacity="1" color-rendering="auto" color-interpolation="auto" text-rendering="auto" stroke="black" stroke-linecap="square" width="947" stroke-miterlimit="10" shape-rendering="auto" stroke-opacity="1" fill="black" stroke-dasharray="none" font-weight="normal" stroke-width="1" height="539" font-family="'Dialog'" font-style="normal" stroke-linejoin="miter" font-size="12px" stroke-dashoffset="0" image-rendering="auto">
  <!--Generated by ySVG 2.5-->
  <defs id="genericDefs"/>
  <g>
    <defs id="defs1">
      <clipPath clipPathUnits="userSpaceOnUse" id="clipPath1">
        <path d="M0 0 L947 0 L947 539 L0 539 L0 0 Z"/>
      </clipPath>
      <clipPath clipPathUnits="userSpaceOnUse" id="clipPath2">
        <path d="M191 105 L1138 105 L1138 644 L191 644 L191 105 Z"/>
      </clipPath>
      <clipPath clipPathUnits="userSpaceOnUse" id="clipPath3">
        <path d="M272.6719 472.8512 L272.6719 578.5557 L935 578.5557 L935 472.8512 Z"/>
      </clipPath>
    </defs>
    <g fill="white" text-rendering="geometricPrecision" shape-rendering="geometricPrecision" transform="translate(-191,-105)" stroke="white">
      <rect x="191" width="947" height="539" y="105" clip-path="url(#clipPath2)" stroke="none"/>
    </g>
    <g fill="rgb(204,255,204)" text-rendering="geometricPrecision" shape-rendering="geometricPrecision" transform="matrix(1,0,0,1,-191,-105)" stroke="rgb(204,255,204)">
      <rect x="257.6719" y="155.5176" clip-path="url(#clipPath2)" width="692.3281" rx="4" ry="4" height="148.7045" stroke="none"/>
    </g>
    <g font-size="16px" stroke-linecap="butt" transform="matrix(1,0,0,1,-191,-105)" text-rendering="geometricPrecision" font-family="'DejaVu Serif'" shape-rendering="geometricPrecision" stroke-miterlimit="1.45">
      <text x="474.4727" xml:space="preserve" y="176.3692" clip-path="url(#clipPath2)" stroke="none">Prevención de riesgos laborales</text>
      <rect x="257.6719" y="155.5176" clip-path="url(#clipPath2)" fill="none" width="692.3281" rx="4" ry="4" height="148.7045"/>
      <text x="277.4158" xml:space="preserve" font-size="14px" y="206.4744" clip-path="url(#clipPath2)" stroke="none">Graba un video donde se muestren cinco riesgos y la forma de actuación contra ellos.</text>
      <text x="277.4158" xml:space="preserve" font-size="14px" y="222.7712" clip-path="url(#clipPath2)" stroke="none">Se debe mostrar cual es el riesgo, sus consecuencias y como evitarlos.</text>
      <text x="277.4158" xml:space="preserve" font-size="14px" y="239.0681" clip-path="url(#clipPath2)" stroke="none"> </text>
      <text x="277.4158" xml:space="preserve" font-size="14px" y="255.365" clip-path="url(#clipPath2)" stroke="none">En la evaluación se tomará en cuenta, principalmente, como se explican los riesgos y como</text>
      <text x="277.4158" xml:space="preserve" font-size="14px" y="271.6619" clip-path="url(#clipPath2)" stroke="none">evitarlos. además de la propia manufactura del video. La nota será compartida por ambos</text>
      <text x="277.4158" xml:space="preserve" font-size="14px" y="287.9587" clip-path="url(#clipPath2)" stroke="none">integrantes del grupo.</text>
    </g>
    <g transform="matrix(1,0,0,1,-191,-105)" fill-opacity="0.1451" fill="rgb(255,0,0)" text-rendering="geometricPrecision" shape-rendering="geometricPrecision" stroke="rgb(255,0,0)" stroke-opacity="0.1451">
      <rect x="964.6658" y="155.5176" clip-path="url(#clipPath2)" width="77.2373" rx="4" ry="4" height="43.3145" stroke="none"/>
    </g>
    <g stroke-linecap="butt" transform="matrix(1,0,0,1,-191,-105)" fill="red" text-rendering="geometricPrecision" shape-rendering="geometricPrecision" stroke="red" stroke-miterlimit="1.45">
      <rect x="964.6658" y="155.5176" clip-path="url(#clipPath2)" fill="none" width="77.2373" rx="4" ry="4" height="43.3145"/>
      <text x="980.7874" y="181.3292" clip-path="url(#clipPath2)" fill="black" font-family="sans-serif" stroke="none" xml:space="preserve">RA5 (5)</text>
    </g>
    <g transform="matrix(1,0,0,1,-191,-105)" fill-opacity="0.1451" fill="rgb(255,0,0)" text-rendering="geometricPrecision" shape-rendering="geometricPrecision" stroke="rgb(255,0,0)" stroke-opacity="0.1451">
      <rect x="1041.9031" y="155.5176" clip-path="url(#clipPath2)" width="45.5715" rx="4" ry="4" height="43.3145" stroke="none"/>
    </g>
    <g stroke-linecap="butt" transform="matrix(1,0,0,1,-191,-105)" fill="red" text-rendering="geometricPrecision" shape-rendering="geometricPrecision" stroke="red" stroke-miterlimit="1.45">
      <rect x="1041.9031" y="155.5176" clip-path="url(#clipPath2)" fill="none" width="45.5715" rx="4" ry="4" height="43.3145"/>
      <text x="1060.8715" y="181.3292" clip-path="url(#clipPath2)" fill="black" font-family="sans-serif" stroke="none" xml:space="preserve">5</text>
    </g>
    <g fill="rgb(204,255,204)" text-rendering="geometricPrecision" shape-rendering="geometricPrecision" transform="matrix(1,0,0,1,-191,-105)" stroke="rgb(204,255,204)">
      <rect x="257.6719" y="318.5409" clip-path="url(#clipPath2)" width="692.3281" rx="4" ry="4" height="98.7045" stroke="none"/>
    </g>
    <g font-size="16px" stroke-linecap="butt" transform="matrix(1,0,0,1,-191,-105)" text-rendering="geometricPrecision" font-family="'DejaVu Serif'" shape-rendering="geometricPrecision" stroke-miterlimit="1.45">
      <text x="529.6562" xml:space="preserve" y="339.3925" clip-path="url(#clipPath2)" stroke="none">Examen hardware</text>
      <rect x="257.6719" y="318.5409" clip-path="url(#clipPath2)" fill="none" width="692.3281" rx="4" ry="4" height="98.7045"/>
      <text x="277.4815" xml:space="preserve" font-size="14px" y="370.7458" clip-path="url(#clipPath2)" stroke="none">Examen escrito compuesto por:</text>
      <text x="277.4815" xml:space="preserve" font-size="14px" y="387.0427" clip-path="url(#clipPath2)" stroke="none">- Problemas sobres unidades y velocidades de transmisión.</text>
      <text x="277.4815" xml:space="preserve" font-size="14px" y="403.3396" clip-path="url(#clipPath2)" stroke="none">- Preguntas cortas sobres dispositivos de almacenamiento.</text>
    </g>
    <g transform="matrix(1,0,0,1,-191,-105)" fill-opacity="0.1451" fill="rgb(255,0,0)" text-rendering="geometricPrecision" shape-rendering="geometricPrecision" stroke="rgb(255,0,0)" stroke-opacity="0.1451">
      <rect x="962.5972" y="318.5409" clip-path="url(#clipPath2)" width="79.3059" rx="4" ry="4" height="43.3145" stroke="none"/>
    </g>
    <g stroke-linecap="butt" transform="matrix(1,0,0,1,-191,-105)" fill="red" text-rendering="geometricPrecision" shape-rendering="geometricPrecision" stroke="red" stroke-miterlimit="1.45">
      <rect x="962.5972" y="318.5409" clip-path="url(#clipPath2)" fill="none" width="79.3059" rx="4" ry="4" height="43.3145"/>
      <text x="975.9357" y="344.3525" clip-path="url(#clipPath2)" fill="black" font-family="sans-serif" stroke="none" xml:space="preserve">RA1 (40)</text>
    </g>
    <g transform="matrix(1,0,0,1,-191,-105)" fill-opacity="0.1451" fill="rgb(255,0,0)" text-rendering="geometricPrecision" shape-rendering="geometricPrecision" stroke="rgb(255,0,0)" stroke-opacity="0.1451">
      <rect x="1041.9031" y="318.5409" clip-path="url(#clipPath2)" width="45.5715" rx="4" ry="4" height="43.3145" stroke="none"/>
    </g>
    <g stroke-linecap="butt" transform="matrix(1,0,0,1,-191,-105)" fill="red" text-rendering="geometricPrecision" shape-rendering="geometricPrecision" stroke="red" stroke-miterlimit="1.45">
      <rect x="1041.9031" y="318.5409" clip-path="url(#clipPath2)" fill="none" width="45.5715" rx="4" ry="4" height="43.3145"/>
      <text x="1057.0541" y="344.3525" clip-path="url(#clipPath2)" fill="black" font-family="sans-serif" stroke="none" xml:space="preserve">10</text>
    </g>
    <g fill="rgb(204,255,204)" text-rendering="geometricPrecision" shape-rendering="geometricPrecision" transform="matrix(1,0,0,1,-191,-105)" stroke="rgb(204,255,204)">
      <rect x="257.6719" y="431.5643" clip-path="url(#clipPath2)" width="692.3281" rx="4" ry="4" height="153.7045" stroke="none"/>
    </g>
    <g font-size="16px" stroke-linecap="butt" transform="matrix(1,0,0,1,-191,-105)" text-rendering="geometricPrecision" font-family="'DejaVu Serif'" shape-rendering="geometricPrecision" stroke-miterlimit="1.45">
      <text x="515.0898" xml:space="preserve" y="452.4158" clip-path="url(#clipPath2)" stroke="none">Memoria de practicas</text>
      <rect x="257.6719" y="431.5643" clip-path="url(#clipPath2)" fill="none" width="692.3281" rx="4" ry="4" height="153.7045"/>
    </g>
    <g text-rendering="geometricPrecision" shape-rendering="geometricPrecision" transform="matrix(1,0,0,1,-191,-105)">
      <path d="M273.4375 485.8463 L273.4375 485.1275 L274.75 485.1275 L274.75 476.3775 L273.375 476.3775 L273.375 475.6432 L276.3438 475.6432 L279.9219 482.9088 L283.5 475.6432 L286.2969 475.6432 L286.2969 476.3775 L284.9375 476.3775 L284.9375 485.1275 L286.2344 485.1275 L286.2344 485.8463 L282.25 485.8463 L282.25 485.1275 L283.5469 485.1275 L283.5469 477.2369 L280.0469 484.3463 L279.0781 484.3463 L275.5781 477.2369 L275.5781 485.1275 L276.8906 485.1275 L276.8906 485.8463 L273.4375 485.8463 ZM294.6006 482.3463 L289.1787 482.3463 L289.1787 482.3932 Q289.1787 483.8775 289.7334 484.6197 Q290.2881 485.3619 291.3662 485.3619 Q292.1943 485.3619 292.7178 484.9322 Q293.2412 484.5025 293.46 483.6432 L294.4756 483.6432 Q294.1787 484.8463 293.3662 485.4478 Q292.5537 486.0494 291.2256 486.0494 Q289.6318 486.0494 288.6709 484.9947 Q287.71 483.94 287.71 482.2057 Q287.71 480.4869 288.6553 479.4322 Q289.6006 478.3775 291.1475 478.3775 Q292.8037 478.3775 293.6787 479.3932 Q294.5537 480.4088 294.6006 482.3463 ZM293.1162 481.6275 Q293.0693 480.3463 292.5771 479.7057 Q292.085 479.065 291.1475 479.065 Q290.2881 479.065 289.7881 479.7135 Q289.2881 480.3619 289.1787 481.6275 L293.1162 481.6275 ZM302.542 479.9869 Q302.9014 479.19 303.4717 478.7838 Q304.042 478.3775 304.792 478.3775 Q305.9326 478.3775 306.4951 479.0885 Q307.0576 479.7994 307.0576 481.2213 L307.0576 485.1275 L308.1826 485.1275 L308.1826 485.8463 L304.6982 485.8463 L304.6982 485.1275 L305.792 485.1275 L305.792 481.3619 Q305.792 480.2525 305.4639 479.7838 Q305.1357 479.315 304.3701 479.315 Q303.542 479.315 303.0967 479.9478 Q302.6514 480.5807 302.6514 481.7994 L302.6514 485.1275 L303.7451 485.1275 L303.7451 485.8463 L300.3076 485.8463 L300.3076 485.1275 L301.4014 485.1275 L301.4014 481.315 Q301.4014 480.2369 301.0732 479.776 Q300.7451 479.315 299.9795 479.315 Q299.1357 479.315 298.6982 479.9478 Q298.2607 480.5807 298.2607 481.7994 L298.2607 485.1275 L299.3545 485.1275 L299.3545 485.8463 L295.8701 485.8463 L295.8701 485.1275 L296.9951 485.1275 L296.9951 479.2994 L295.792 479.2994 L295.792 478.5807 L298.2607 478.5807 L298.2607 479.8775 Q298.6045 479.1432 299.1436 478.7603 Q299.6826 478.3775 300.3701 478.3775 Q301.2139 478.3775 301.7842 478.7994 Q302.3545 479.2213 302.542 479.9869 ZM312.7861 485.3619 Q313.7861 485.3619 314.3018 484.565 Q314.8174 483.7682 314.8174 482.2057 Q314.8174 480.6432 314.3018 479.8541 Q313.7861 479.065 312.7861 479.065 Q311.7705 479.065 311.2549 479.8541 Q310.7393 480.6432 310.7393 482.2057 Q310.7393 483.7682 311.2549 484.565 Q311.7705 485.3619 312.7861 485.3619 ZM312.7861 486.0494 Q311.1924 486.0494 310.2314 484.9947 Q309.2705 483.94 309.2705 482.2057 Q309.2705 480.4713 310.2314 479.4244 Q311.1924 478.3775 312.7861 478.3775 Q314.3643 478.3775 315.3252 479.4244 Q316.2861 480.4713 316.2861 482.2057 Q316.2861 483.94 315.3252 484.9947 Q314.3643 486.0494 312.7861 486.0494 ZM323.6836 478.565 L323.6836 480.3775 L322.9648 480.3775 Q322.9336 479.8463 322.668 479.5807 Q322.4023 479.315 321.8867 479.315 Q320.9492 479.315 320.457 479.9557 Q319.9648 480.5963 319.9648 481.7994 L319.9648 485.1275 L321.418 485.1275 L321.418 485.8463 L317.5742 485.8463 L317.5742 485.1275 L318.6992 485.1275 L318.6992 479.2994 L317.4961 479.2994 L317.4961 478.5807 L319.9648 478.5807 L319.9648 479.8775 Q320.3398 479.1119 320.918 478.7447 Q321.4961 478.3775 322.3242 478.3775 Q322.6367 478.3775 322.9727 478.4244 Q323.3086 478.4713 323.6836 478.565 ZM325.0479 476.3307 Q325.0479 476.0025 325.2744 475.776 Q325.501 475.5494 325.8291 475.5494 Q326.1416 475.5494 326.3682 475.776 Q326.5947 476.0025 326.5947 476.3307 Q326.5947 476.6432 326.376 476.8697 Q326.1572 477.0963 325.8291 477.0963 Q325.501 477.0963 325.2744 476.8697 Q325.0479 476.6432 325.0479 476.3307 ZM326.6572 485.1275 L327.8447 485.1275 L327.8447 485.8463 L324.1885 485.8463 L324.1885 485.1275 L325.3916 485.1275 L325.3916 479.315 L324.1885 479.315 L324.1885 478.5807 L326.6572 478.5807 L326.6572 485.1275 ZM333.7441 483.565 L333.7441 482.0182 L332.1191 482.0182 Q331.1816 482.0182 330.7207 482.4244 Q330.2598 482.8307 330.2598 483.6588 Q330.2598 484.4244 330.7285 484.8697 Q331.1973 485.315 331.9941 485.315 Q332.7754 485.315 333.2598 484.8307 Q333.7441 484.3463 333.7441 483.565 ZM334.9941 481.2994 L334.9941 485.1275 L336.1191 485.1275 L336.1191 485.8463 L333.7441 485.8463 L333.7441 485.065 Q333.3223 485.565 332.7754 485.8072 Q332.2285 486.0494 331.4941 486.0494 Q330.291 486.0494 329.5801 485.401 Q328.8691 484.7525 328.8691 483.6588 Q328.8691 482.5338 329.6816 481.9166 Q330.4941 481.2994 331.9785 481.2994 L333.7441 481.2994 L333.7441 480.7994 Q333.7441 479.9713 333.2363 479.5182 Q332.7285 479.065 331.8223 479.065 Q331.0723 479.065 330.627 479.401 Q330.1816 479.7369 330.0723 480.4088 L329.4316 480.4088 L329.4316 478.94 Q330.0879 478.6588 330.7051 478.5182 Q331.3223 478.3775 331.9004 478.3775 Q333.416 478.3775 334.2051 479.1275 Q334.9941 479.8775 334.9941 481.2994 ZM348.3066 485.1275 L349.5098 485.1275 L349.5098 485.8463 L347.0566 485.8463 L347.0566 484.7057 Q346.6816 485.3932 346.1113 485.7213 Q345.541 486.0494 344.6973 486.0494 Q343.3691 486.0494 342.5176 484.9869 Q341.666 483.9244 341.666 482.2057 Q341.666 480.5025 342.5098 479.44 Q343.3535 478.3775 344.6973 478.3775 Q345.541 478.3775 346.1113 478.7057 Q346.6816 479.0338 347.0566 479.7213 L347.0566 475.94 L345.8691 475.94 L345.8691 475.2057 L348.3066 475.2057 L348.3066 485.1275 ZM347.0566 482.565 L347.0566 481.8463 Q347.0566 480.5494 346.5566 479.8619 Q346.0566 479.1744 345.0879 479.1744 Q344.1191 479.1744 343.627 479.94 Q343.1348 480.7057 343.1348 482.2057 Q343.1348 483.7057 343.627 484.4791 Q344.1191 485.2525 345.0879 485.2525 Q346.0566 485.2525 346.5566 484.565 Q347.0566 483.8775 347.0566 482.565 ZM357.5186 482.3463 L352.0967 482.3463 L352.0967 482.3932 Q352.0967 483.8775 352.6514 484.6197 Q353.2061 485.3619 354.2842 485.3619 Q355.1123 485.3619 355.6357 484.9322 Q356.1592 484.5025 356.3779 483.6432 L357.3936 483.6432 Q357.0967 484.8463 356.2842 485.4478 Q355.4717 486.0494 354.1436 486.0494 Q352.5498 486.0494 351.5889 484.9947 Q350.6279 483.94 350.6279 482.2057 Q350.6279 480.4869 351.5732 479.4322 Q352.5186 478.3775 354.0654 478.3775 Q355.7217 478.3775 356.5967 479.3932 Q357.4717 480.4088 357.5186 482.3463 ZM356.0342 481.6275 Q355.9873 480.3463 355.4951 479.7057 Q355.0029 479.065 354.0654 479.065 Q353.2061 479.065 352.7061 479.7135 Q352.2061 480.3619 352.0967 481.6275 L356.0342 481.6275 ZM365.5352 481.8463 L365.5352 482.565 Q365.5352 483.8775 366.0352 484.565 Q366.5352 485.2525 367.4883 485.2525 Q368.457 485.2525 368.9492 484.4791 Q369.4414 483.7057 369.4414 482.2057 Q369.4414 480.7057 368.9492 479.94 Q368.457 479.1744 367.4883 479.1744 Q366.5352 479.1744 366.0352 479.8619 Q365.5352 480.5494 365.5352 481.8463 ZM364.2695 479.315 L363.0664 479.315 L363.0664 478.5807 L365.5352 478.5807 L365.5352 479.7213 Q365.8945 479.0338 366.4648 478.7057 Q367.0352 478.3775 367.8789 478.3775 Q369.2227 478.3775 370.0742 479.44 Q370.9258 480.5025 370.9258 482.2057 Q370.9258 483.9244 370.0742 484.9869 Q369.2227 486.0494 367.8789 486.0494 Q367.0352 486.0494 366.4648 485.7213 Q365.8945 485.3932 365.5352 484.7057 L365.5352 488.0338 L366.7227 488.0338 L366.7227 488.7525 L363.0664 488.7525 L363.0664 488.0338 L364.2695 488.0338 L364.2695 479.315 ZM378.3096 478.565 L378.3096 480.3775 L377.5908 480.3775 Q377.5596 479.8463 377.2939 479.5807 Q377.0283 479.315 376.5127 479.315 Q375.5752 479.315 375.083 479.9557 Q374.5908 480.5963 374.5908 481.7994 L374.5908 485.1275 L376.0439 485.1275 L376.0439 485.8463 L372.2002 485.8463 L372.2002 485.1275 L373.3252 485.1275 L373.3252 479.2994 L372.1221 479.2994 L372.1221 478.5807 L374.5908 478.5807 L374.5908 479.8775 Q374.9658 479.1119 375.5439 478.7447 Q376.1221 478.3775 376.9502 478.3775 Q377.2627 478.3775 377.5986 478.4244 Q377.9346 478.4713 378.3096 478.565 ZM383.8926 483.565 L383.8926 482.0182 L382.2676 482.0182 Q381.3301 482.0182 380.8691 482.4244 Q380.4082 482.8307 380.4082 483.6588 Q380.4082 484.4244 380.877 484.8697 Q381.3457 485.315 382.1426 485.315 Q382.9238 485.315 383.4082 484.8307 Q383.8926 484.3463 383.8926 483.565 ZM385.1426 481.2994 L385.1426 485.1275 L386.2676 485.1275 L386.2676 485.8463 L383.8926 485.8463 L383.8926 485.065 Q383.4707 485.565 382.9238 485.8072 Q382.377 486.0494 381.6426 486.0494 Q380.4395 486.0494 379.7285 485.401 Q379.0176 484.7525 379.0176 483.6588 Q379.0176 482.5338 379.8301 481.9166 Q380.6426 481.2994 382.127 481.2994 L383.8926 481.2994 L383.8926 480.7994 Q383.8926 479.9713 383.3848 479.5182 Q382.877 479.065 381.9707 479.065 Q381.2207 479.065 380.7754 479.401 Q380.3301 479.7369 380.2207 480.4088 L379.5801 480.4088 L379.5801 478.94 Q380.2363 478.6588 380.8535 478.5182 Q381.4707 478.3775 382.0488 478.3775 Q383.5645 478.3775 384.3535 479.1275 Q385.1426 479.8775 385.1426 481.2994 ZM393.8643 483.6588 Q393.5986 484.8307 392.8408 485.44 Q392.083 486.0494 390.8799 486.0494 Q389.2861 486.0494 388.3252 484.9947 Q387.3643 483.94 387.3643 482.2057 Q387.3643 480.4713 388.3252 479.4244 Q389.2861 478.3775 390.8799 478.3775 Q391.5674 478.3775 392.2471 478.5416 Q392.9268 478.7057 393.6143 479.0338 L393.6143 480.8932 L392.8955 480.8932 Q392.7393 479.94 392.2627 479.5025 Q391.7861 479.065 390.8799 479.065 Q389.8643 479.065 389.3486 479.8541 Q388.833 480.6432 388.833 482.2057 Q388.833 483.7838 389.3486 484.5728 Q389.8643 485.3619 390.8799 485.3619 Q391.6924 485.3619 392.1846 484.94 Q392.6768 484.5182 392.8486 483.6588 L393.8643 483.6588 ZM396.0176 479.315 L394.9082 479.315 L394.9082 478.5807 L396.0176 478.5807 L396.0176 476.3307 L397.2832 476.3307 L397.2832 478.5807 L399.6426 478.5807 L399.6426 479.315 L397.2832 479.315 L397.2832 483.9244 Q397.2832 484.8463 397.4551 485.1041 Q397.627 485.3619 398.1113 485.3619 Q398.6113 485.3619 398.8301 485.0728 Q399.0488 484.7838 399.0645 484.1432 L400.0176 484.1432 Q399.9707 485.1275 399.4785 485.5885 Q398.9863 486.0494 398.002 486.0494 Q396.9082 486.0494 396.4629 485.565 Q396.0176 485.0807 396.0176 483.9244 L396.0176 479.315 ZM401.4873 476.3307 Q401.4873 476.0025 401.7139 475.776 Q401.9404 475.5494 402.2686 475.5494 Q402.5811 475.5494 402.8076 475.776 Q403.0342 476.0025 403.0342 476.3307 Q403.0342 476.6432 402.8154 476.8697 Q402.5967 477.0963 402.2686 477.0963 Q401.9404 477.0963 401.7139 476.8697 Q401.4873 476.6432 401.4873 476.3307 ZM403.0967 485.1275 L404.2842 485.1275 L404.2842 485.8463 L400.6279 485.8463 L400.6279 485.1275 L401.8311 485.1275 L401.8311 479.315 L400.6279 479.315 L400.6279 478.5807 L403.0967 478.5807 L403.0967 485.1275 ZM411.8086 483.6588 Q411.543 484.8307 410.7852 485.44 Q410.0273 486.0494 408.8242 486.0494 Q407.2305 486.0494 406.2695 484.9947 Q405.3086 483.94 405.3086 482.2057 Q405.3086 480.4713 406.2695 479.4244 Q407.2305 478.3775 408.8242 478.3775 Q409.5117 478.3775 410.1914 478.5416 Q410.8711 478.7057 411.5586 479.0338 L411.5586 480.8932 L410.8398 480.8932 Q410.6836 479.94 410.207 479.5025 Q409.7305 479.065 408.8242 479.065 Q407.8086 479.065 407.293 479.8541 Q406.7773 480.6432 406.7773 482.2057 Q406.7773 483.7838 407.293 484.5728 Q407.8086 485.3619 408.8242 485.3619 Q409.6367 485.3619 410.1289 484.94 Q410.6211 484.5182 410.793 483.6588 L411.8086 483.6588 ZM418.0244 483.565 L418.0244 482.0182 L416.3994 482.0182 Q415.4619 482.0182 415.001 482.4244 Q414.54 482.8307 414.54 483.6588 Q414.54 484.4244 415.0088 484.8697 Q415.4775 485.315 416.2744 485.315 Q417.0557 485.315 417.54 484.8307 Q418.0244 484.3463 418.0244 483.565 ZM419.2744 481.2994 L419.2744 485.1275 L420.3994 485.1275 L420.3994 485.8463 L418.0244 485.8463 L418.0244 485.065 Q417.6025 485.565 417.0557 485.8072 Q416.5088 486.0494 415.7744 486.0494 Q414.5713 486.0494 413.8604 485.401 Q413.1494 484.7525 413.1494 483.6588 Q413.1494 482.5338 413.9619 481.9166 Q414.7744 481.2994 416.2588 481.2994 L418.0244 481.2994 L418.0244 480.7994 Q418.0244 479.9713 417.5166 479.5182 Q417.0088 479.065 416.1025 479.065 Q415.3525 479.065 414.9072 479.401 Q414.4619 479.7369 414.3525 480.4088 L413.7119 480.4088 L413.7119 478.94 Q414.3682 478.6588 414.9854 478.5182 Q415.6025 478.3775 416.1807 478.3775 Q417.6963 478.3775 418.4854 479.1275 Q419.2744 479.8775 419.2744 481.2994 ZM421.5742 485.44 L421.5742 483.7525 L422.3086 483.7525 Q422.3242 484.565 422.8086 484.9635 Q423.293 485.3619 424.2461 485.3619 Q425.0898 485.3619 425.5352 485.0494 Q425.9805 484.7369 425.9805 484.1275 Q425.9805 483.6432 425.6523 483.3463 Q425.3242 483.0494 424.2773 482.7213 L423.3711 482.4088 Q422.4336 482.1119 422.0117 481.6588 Q421.5898 481.2057 421.5898 480.5182 Q421.5898 479.5182 422.3242 478.9478 Q423.0586 478.3775 424.3555 478.3775 Q424.918 478.3775 425.5586 478.526 Q426.1992 478.6744 426.8711 478.9713 L426.8711 480.5494 L426.1523 480.5494 Q426.1211 479.8463 425.6523 479.4557 Q425.1836 479.065 424.3867 479.065 Q423.5898 479.065 423.1836 479.3385 Q422.7773 479.6119 422.7773 480.1744 Q422.7773 480.6432 423.0898 480.9166 Q423.4023 481.19 424.3242 481.4713 L425.3242 481.7838 Q426.3555 482.1119 426.8086 482.5885 Q427.2617 483.065 427.2617 483.8307 Q427.2617 484.8619 426.4727 485.4557 Q425.6836 486.0494 424.293 486.0494 Q423.5898 486.0494 422.918 485.8932 Q422.2461 485.7369 421.5742 485.44 ZM433.209 485.44 L433.209 483.7525 L433.9434 483.7525 Q433.959 484.565 434.4434 484.9635 Q434.9277 485.3619 435.8809 485.3619 Q436.7246 485.3619 437.1699 485.0494 Q437.6152 484.7369 437.6152 484.1275 Q437.6152 483.6432 437.2871 483.3463 Q436.959 483.0494 435.9121 482.7213 L435.0059 482.4088 Q434.0684 482.1119 433.6465 481.6588 Q433.2246 481.2057 433.2246 480.5182 Q433.2246 479.5182 433.959 478.9478 Q434.6934 478.3775 435.9902 478.3775 Q436.5527 478.3775 437.1934 478.526 Q437.834 478.6744 438.5059 478.9713 L438.5059 480.5494 L437.7871 480.5494 Q437.7559 479.8463 437.2871 479.4557 Q436.8184 479.065 436.0215 479.065 Q435.2246 479.065 434.8184 479.3385 Q434.4121 479.6119 434.4121 480.1744 Q434.4121 480.6432 434.7246 480.9166 Q435.0371 481.19 435.959 481.4713 L436.959 481.7838 Q437.9902 482.1119 438.4434 482.5885 Q438.8965 483.065 438.8965 483.8307 Q438.8965 484.8619 438.1074 485.4557 Q437.3184 486.0494 435.9277 486.0494 Q435.2246 486.0494 434.5527 485.8932 Q433.8809 485.7369 433.209 485.44 ZM443.8311 485.3619 Q444.8311 485.3619 445.3467 484.565 Q445.8623 483.7682 445.8623 482.2057 Q445.8623 480.6432 445.3467 479.8541 Q444.8311 479.065 443.8311 479.065 Q442.8154 479.065 442.2998 479.8541 Q441.7842 480.6432 441.7842 482.2057 Q441.7842 483.7682 442.2998 484.565 Q442.8154 485.3619 443.8311 485.3619 ZM443.8311 486.0494 Q442.2373 486.0494 441.2764 484.9947 Q440.3154 483.94 440.3154 482.2057 Q440.3154 480.4713 441.2764 479.4244 Q442.2373 478.3775 443.8311 478.3775 Q445.4092 478.3775 446.3701 479.4244 Q447.3311 480.4713 447.3311 482.2057 Q447.3311 483.94 446.3701 484.9947 Q445.4092 486.0494 443.8311 486.0494 ZM449.6504 485.1275 L449.6504 475.94 L448.4473 475.94 L448.4473 475.2057 L450.916 475.2057 L450.916 479.7213 Q451.2754 479.0338 451.8457 478.7057 Q452.416 478.3775 453.2598 478.3775 Q454.6035 478.3775 455.4551 479.44 Q456.3066 480.5025 456.3066 482.2057 Q456.3066 483.9244 455.4551 484.9869 Q454.6035 486.0494 453.2598 486.0494 Q452.416 486.0494 451.8457 485.7213 Q451.2754 485.3932 450.916 484.7057 L450.916 485.8463 L448.4473 485.8463 L448.4473 485.1275 L449.6504 485.1275 ZM450.916 482.565 Q450.916 483.8775 451.416 484.565 Q451.916 485.2525 452.8691 485.2525 Q453.8379 485.2525 454.3301 484.4791 Q454.8223 483.7057 454.8223 482.2057 Q454.8223 480.7057 454.3301 479.94 Q453.8379 479.1744 452.8691 479.1744 Q451.916 479.1744 451.416 479.8619 Q450.916 480.5494 450.916 481.8463 L450.916 482.565 ZM463.6904 478.565 L463.6904 480.3775 L462.9717 480.3775 Q462.9404 479.8463 462.6748 479.5807 Q462.4092 479.315 461.8936 479.315 Q460.9561 479.315 460.4639 479.9557 Q459.9717 480.5963 459.9717 481.7994 L459.9717 485.1275 L461.4248 485.1275 L461.4248 485.8463 L457.5811 485.8463 L457.5811 485.1275 L458.7061 485.1275 L458.7061 479.2994 L457.5029 479.2994 L457.5029 478.5807 L459.9717 478.5807 L459.9717 479.8775 Q460.3467 479.1119 460.9248 478.7447 Q461.5029 478.3775 462.3311 478.3775 Q462.6436 478.3775 462.9795 478.4244 Q463.3154 478.4713 463.6904 478.565 ZM471.2891 482.3463 L465.8672 482.3463 L465.8672 482.3932 Q465.8672 483.8775 466.4219 484.6197 Q466.9766 485.3619 468.0547 485.3619 Q468.8828 485.3619 469.4062 484.9322 Q469.9297 484.5025 470.1484 483.6432 L471.1641 483.6432 Q470.8672 484.8463 470.0547 485.4478 Q469.2422 486.0494 467.9141 486.0494 Q466.3203 486.0494 465.3594 484.9947 Q464.3984 483.94 464.3984 482.2057 Q464.3984 480.4869 465.3438 479.4322 Q466.2891 478.3775 467.8359 478.3775 Q469.4922 478.3775 470.3672 479.3932 Q471.2422 480.4088 471.2891 482.3463 ZM469.8047 481.6275 Q469.7578 480.3463 469.2656 479.7057 Q468.7734 479.065 467.8359 479.065 Q466.9766 479.065 466.4766 479.7135 Q465.9766 480.3619 465.8672 481.6275 L469.8047 481.6275 ZM473.4336 485.1275 Q473.4336 484.7525 473.6992 484.4869 Q473.9648 484.2213 474.3398 484.2213 Q474.7305 484.2213 474.9961 484.4869 Q475.2617 484.7525 475.2617 485.1275 Q475.2617 485.5182 474.9961 485.7838 Q474.7305 486.0494 474.3398 486.0494 Q473.9492 486.0494 473.6914 485.7838 Q473.4336 485.5182 473.4336 485.1275 ZM473.4336 480.6744 Q473.4336 480.2994 473.6992 480.0338 Q473.9648 479.7682 474.3398 479.7682 Q474.7305 479.7682 474.9961 480.026 Q475.2617 480.2838 475.2617 480.6744 Q475.2617 481.065 474.9961 481.3228 Q474.7305 481.5807 474.3398 481.5807 Q473.9648 481.5807 473.6992 481.3228 Q473.4336 481.065 473.4336 480.6744 Z" stroke="none" clip-path="url(#clipPath3)"/>
      <path d="M273.2812 497.8619 L276.7812 497.8619 L276.7812 498.9244 L273.2812 498.9244 L273.2812 497.8619 ZM285.3057 501.4244 L286.6182 501.4244 L286.6182 502.1432 L282.6182 502.1432 L282.6182 501.4244 L283.9307 501.4244 L283.9307 492.6744 L282.6182 492.6744 L282.6182 491.94 L286.6182 491.94 L286.6182 492.6744 L285.3057 492.6744 L285.3057 501.4244 ZM287.9609 502.1432 L287.9609 501.4244 L289.0859 501.4244 L289.0859 495.6119 L287.8828 495.6119 L287.8828 494.8775 L290.3516 494.8775 L290.3516 496.1744 Q290.6953 495.4244 291.2578 495.0494 Q291.8203 494.6744 292.5547 494.6744 Q293.7578 494.6744 294.3203 495.3697 Q294.8828 496.065 294.8828 497.5182 L294.8828 501.4244 L296.0078 501.4244 L296.0078 502.1432 L292.5391 502.1432 L292.5391 501.4244 L293.6172 501.4244 L293.6172 497.9244 Q293.6172 496.5807 293.2891 496.0885 Q292.9609 495.5963 292.1484 495.5963 Q291.2734 495.5963 290.8125 496.2369 Q290.3516 496.8775 290.3516 498.0963 L290.3516 501.4244 L291.4453 501.4244 L291.4453 502.1432 L287.9609 502.1432 ZM297.1807 501.7369 L297.1807 500.0494 L297.915 500.0494 Q297.9307 500.8619 298.415 501.2603 Q298.8994 501.6588 299.8525 501.6588 Q300.6963 501.6588 301.1416 501.3463 Q301.5869 501.0338 301.5869 500.4244 Q301.5869 499.94 301.2588 499.6432 Q300.9307 499.3463 299.8838 499.0182 L298.9775 498.7057 Q298.04 498.4088 297.6182 497.9557 Q297.1963 497.5025 297.1963 496.815 Q297.1963 495.815 297.9307 495.2447 Q298.665 494.6744 299.9619 494.6744 Q300.5244 494.6744 301.165 494.8228 Q301.8057 494.9713 302.4775 495.2682 L302.4775 496.8463 L301.7588 496.8463 Q301.7275 496.1432 301.2588 495.7525 Q300.79 495.3619 299.9932 495.3619 Q299.1963 495.3619 298.79 495.6353 Q298.3838 495.9088 298.3838 496.4713 Q298.3838 496.94 298.6963 497.2135 Q299.0088 497.4869 299.9307 497.7682 L300.9307 498.0807 Q301.9619 498.4088 302.415 498.8853 Q302.8682 499.3619 302.8682 500.1275 Q302.8682 501.1588 302.0791 501.7525 Q301.29 502.3463 299.8994 502.3463 Q299.1963 502.3463 298.5244 502.19 Q297.8525 502.0338 297.1807 501.7369 ZM305.0996 495.6119 L303.9902 495.6119 L303.9902 494.8775 L305.0996 494.8775 L305.0996 492.6275 L306.3652 492.6275 L306.3652 494.8775 L308.7246 494.8775 L308.7246 495.6119 L306.3652 495.6119 L306.3652 500.2213 Q306.3652 501.1432 306.5371 501.401 Q306.709 501.6588 307.1934 501.6588 Q307.6934 501.6588 307.9121 501.3697 Q308.1309 501.0807 308.1465 500.44 L309.0996 500.44 Q309.0527 501.4244 308.5605 501.8853 Q308.0684 502.3463 307.084 502.3463 Q305.9902 502.3463 305.5449 501.8619 Q305.0996 501.3775 305.0996 500.2213 L305.0996 495.6119 ZM314.7881 499.8619 L314.7881 498.315 L313.1631 498.315 Q312.2256 498.315 311.7646 498.7213 Q311.3037 499.1275 311.3037 499.9557 Q311.3037 500.7213 311.7725 501.1666 Q312.2412 501.6119 313.0381 501.6119 Q313.8193 501.6119 314.3037 501.1275 Q314.7881 500.6432 314.7881 499.8619 ZM316.0381 497.5963 L316.0381 501.4244 L317.1631 501.4244 L317.1631 502.1432 L314.7881 502.1432 L314.7881 501.3619 Q314.3662 501.8619 313.8193 502.1041 Q313.2725 502.3463 312.5381 502.3463 Q311.335 502.3463 310.624 501.6978 Q309.9131 501.0494 309.9131 499.9557 Q309.9131 498.8307 310.7256 498.2135 Q311.5381 497.5963 313.0225 497.5963 L314.7881 497.5963 L314.7881 497.0963 Q314.7881 496.2682 314.2803 495.815 Q313.7725 495.3619 312.8662 495.3619 Q312.1162 495.3619 311.6709 495.6978 Q311.2256 496.0338 311.1162 496.7057 L310.4756 496.7057 L310.4756 495.2369 Q311.1318 494.9557 311.749 494.815 Q312.3662 494.6744 312.9443 494.6744 Q314.46 494.6744 315.249 495.4244 Q316.0381 496.1744 316.0381 497.5963 ZM320.4316 501.4244 L321.6191 501.4244 L321.6191 502.1432 L317.9629 502.1432 L317.9629 501.4244 L319.166 501.4244 L319.166 492.2369 L317.9629 492.2369 L317.9629 491.5025 L320.4316 491.5025 L320.4316 501.4244 ZM327.6123 499.8619 L327.6123 498.315 L325.9873 498.315 Q325.0498 498.315 324.5889 498.7213 Q324.1279 499.1275 324.1279 499.9557 Q324.1279 500.7213 324.5967 501.1666 Q325.0654 501.6119 325.8623 501.6119 Q326.6436 501.6119 327.1279 501.1275 Q327.6123 500.6432 327.6123 499.8619 ZM328.8623 497.5963 L328.8623 501.4244 L329.9873 501.4244 L329.9873 502.1432 L327.6123 502.1432 L327.6123 501.3619 Q327.1904 501.8619 326.6436 502.1041 Q326.0967 502.3463 325.3623 502.3463 Q324.1592 502.3463 323.4482 501.6978 Q322.7373 501.0494 322.7373 499.9557 Q322.7373 498.8307 323.5498 498.2135 Q324.3623 497.5963 325.8467 497.5963 L327.6123 497.5963 L327.6123 497.0963 Q327.6123 496.2682 327.1045 495.815 Q326.5967 495.3619 325.6904 495.3619 Q324.9404 495.3619 324.4951 495.6978 Q324.0498 496.0338 323.9404 496.7057 L323.2998 496.7057 L323.2998 495.2369 Q323.9561 494.9557 324.5732 494.815 Q325.1904 494.6744 325.7686 494.6744 Q327.2842 494.6744 328.0732 495.4244 Q328.8623 496.1744 328.8623 497.5963 ZM337.584 499.9557 Q337.3184 501.1275 336.5605 501.7369 Q335.8027 502.3463 334.5996 502.3463 Q333.0059 502.3463 332.0449 501.2916 Q331.084 500.2369 331.084 498.5025 Q331.084 496.7682 332.0449 495.7213 Q333.0059 494.6744 334.5996 494.6744 Q335.2871 494.6744 335.9668 494.8385 Q336.6465 495.0025 337.334 495.3307 L337.334 497.19 L336.6152 497.19 Q336.459 496.2369 335.9824 495.7994 Q335.5059 495.3619 334.5996 495.3619 Q333.584 495.3619 333.0684 496.151 Q332.5527 496.94 332.5527 498.5025 Q332.5527 500.0807 333.0684 500.8697 Q333.584 501.6588 334.5996 501.6588 Q335.4121 501.6588 335.9043 501.2369 Q336.3965 500.815 336.5684 499.9557 L337.584 499.9557 ZM339.5811 492.6275 Q339.5811 492.2994 339.8076 492.0728 Q340.0342 491.8463 340.3623 491.8463 Q340.6748 491.8463 340.9014 492.0728 Q341.1279 492.2994 341.1279 492.6275 Q341.1279 492.94 340.9092 493.1666 Q340.6904 493.3932 340.3623 493.3932 Q340.0342 493.3932 339.8076 493.1666 Q339.5811 492.94 339.5811 492.6275 ZM341.1904 501.4244 L342.3779 501.4244 L342.3779 502.1432 L338.7217 502.1432 L338.7217 501.4244 L339.9248 501.4244 L339.9248 495.6119 L338.7217 495.6119 L338.7217 494.8775 L341.1904 494.8775 L341.1904 501.4244 ZM346.918 501.6588 Q347.918 501.6588 348.4336 500.8619 Q348.9492 500.065 348.9492 498.5025 Q348.9492 496.94 348.4336 496.151 Q347.918 495.3619 346.918 495.3619 Q345.9023 495.3619 345.3867 496.151 Q344.8711 496.94 344.8711 498.5025 Q344.8711 500.065 345.3867 500.8619 Q345.9023 501.6588 346.918 501.6588 ZM346.918 502.3463 Q345.3242 502.3463 344.3633 501.2916 Q343.4023 500.2369 343.4023 498.5025 Q343.4023 496.7682 344.3633 495.7213 Q345.3242 494.6744 346.918 494.6744 Q348.4961 494.6744 349.457 495.7213 Q350.418 496.7682 350.418 498.5025 Q350.418 500.2369 349.457 501.2916 Q348.4961 502.3463 346.918 502.3463 ZM348.1523 490.94 L349.5117 490.94 L347.1836 493.5182 L346.3867 493.5182 L348.1523 490.94 ZM351.7061 502.1432 L351.7061 501.4244 L352.8311 501.4244 L352.8311 495.6119 L351.6279 495.6119 L351.6279 494.8775 L354.0967 494.8775 L354.0967 496.1744 Q354.4404 495.4244 355.0029 495.0494 Q355.5654 494.6744 356.2998 494.6744 Q357.5029 494.6744 358.0654 495.3697 Q358.6279 496.065 358.6279 497.5182 L358.6279 501.4244 L359.7529 501.4244 L359.7529 502.1432 L356.2842 502.1432 L356.2842 501.4244 L357.3623 501.4244 L357.3623 497.9244 Q357.3623 496.5807 357.0342 496.0885 Q356.7061 495.5963 355.8936 495.5963 Q355.0186 495.5963 354.5576 496.2369 Q354.0967 496.8775 354.0967 498.0963 L354.0967 501.4244 L355.1904 501.4244 L355.1904 502.1432 L351.7061 502.1432 ZM369.5479 494.8775 L371.9072 494.8775 L371.9072 501.4244 L373.0947 501.4244 L373.0947 502.1432 L370.6416 502.1432 L370.6416 500.8619 Q370.2979 501.5807 369.7432 501.9635 Q369.1885 502.3463 368.4541 502.3463 Q367.251 502.3463 366.6807 501.6588 Q366.1104 500.9713 366.1104 499.5025 L366.1104 495.6119 L364.9697 495.6119 L364.9697 494.8775 L367.376 494.8775 L367.376 499.1119 Q367.376 500.44 367.6963 500.9322 Q368.0166 501.4244 368.8604 501.4244 Q369.7354 501.4244 370.1885 500.776 Q370.6416 500.1275 370.6416 498.9088 L370.6416 495.6119 L369.5479 495.6119 L369.5479 494.8775 ZM375.2207 501.4244 L375.2207 492.2369 L374.0176 492.2369 L374.0176 491.5025 L376.4863 491.5025 L376.4863 496.0182 Q376.8457 495.3307 377.416 495.0025 Q377.9863 494.6744 378.8301 494.6744 Q380.1738 494.6744 381.0254 495.7369 Q381.877 496.7994 381.877 498.5025 Q381.877 500.2213 381.0254 501.2838 Q380.1738 502.3463 378.8301 502.3463 Q377.9863 502.3463 377.416 502.0182 Q376.8457 501.69 376.4863 501.0025 L376.4863 502.1432 L374.0176 502.1432 L374.0176 501.4244 L375.2207 501.4244 ZM376.4863 498.8619 Q376.4863 500.1744 376.9863 500.8619 Q377.4863 501.5494 378.4395 501.5494 Q379.4082 501.5494 379.9004 500.776 Q380.3926 500.0025 380.3926 498.5025 Q380.3926 497.0025 379.9004 496.2369 Q379.4082 495.4713 378.4395 495.4713 Q377.4863 495.4713 376.9863 496.1588 Q376.4863 496.8463 376.4863 498.1432 L376.4863 498.8619 ZM387.5264 494.8775 L389.8857 494.8775 L389.8857 501.4244 L391.0732 501.4244 L391.0732 502.1432 L388.6201 502.1432 L388.6201 500.8619 Q388.2764 501.5807 387.7217 501.9635 Q387.167 502.3463 386.4326 502.3463 Q385.2295 502.3463 384.6592 501.6588 Q384.0889 500.9713 384.0889 499.5025 L384.0889 495.6119 L382.9482 495.6119 L382.9482 494.8775 L385.3545 494.8775 L385.3545 499.1119 Q385.3545 500.44 385.6748 500.9322 Q385.9951 501.4244 386.8389 501.4244 Q387.7139 501.4244 388.167 500.776 Q388.6201 500.1275 388.6201 498.9088 L388.6201 495.6119 L387.5264 495.6119 L387.5264 494.8775 ZM392.168 502.1432 L392.168 501.4244 L393.293 501.4244 L393.293 495.6119 L392.0898 495.6119 L392.0898 494.8775 L394.5586 494.8775 L394.5586 496.1744 Q394.9023 495.4244 395.4648 495.0494 Q396.0273 494.6744 396.7617 494.6744 Q397.9648 494.6744 398.5273 495.3697 Q399.0898 496.065 399.0898 497.5182 L399.0898 501.4244 L400.2148 501.4244 L400.2148 502.1432 L396.7461 502.1432 L396.7461 501.4244 L397.8242 501.4244 L397.8242 497.9244 Q397.8242 496.5807 397.4961 496.0885 Q397.168 495.5963 396.3555 495.5963 Q395.4805 495.5963 395.0195 496.2369 Q394.5586 496.8775 394.5586 498.0963 L394.5586 501.4244 L395.6523 501.4244 L395.6523 502.1432 L392.168 502.1432 ZM402.1221 495.6119 L401.0127 495.6119 L401.0127 494.8775 L402.1221 494.8775 L402.1221 492.6275 L403.3877 492.6275 L403.3877 494.8775 L405.7471 494.8775 L405.7471 495.6119 L403.3877 495.6119 L403.3877 500.2213 Q403.3877 501.1432 403.5596 501.401 Q403.7314 501.6588 404.2158 501.6588 Q404.7158 501.6588 404.9346 501.3697 Q405.1533 501.0807 405.1689 500.44 L406.1221 500.44 Q406.0752 501.4244 405.583 501.8853 Q405.0908 502.3463 404.1064 502.3463 Q403.0127 502.3463 402.5674 501.8619 Q402.1221 501.3775 402.1221 500.2213 L402.1221 495.6119 ZM411.1855 494.8775 L413.5449 494.8775 L413.5449 501.4244 L414.7324 501.4244 L414.7324 502.1432 L412.2793 502.1432 L412.2793 500.8619 Q411.9355 501.5807 411.3809 501.9635 Q410.8262 502.3463 410.0918 502.3463 Q408.8887 502.3463 408.3184 501.6588 Q407.748 500.9713 407.748 499.5025 L407.748 495.6119 L406.6074 495.6119 L406.6074 494.8775 L409.0137 494.8775 L409.0137 499.1119 Q409.0137 500.44 409.334 500.9322 Q409.6543 501.4244 410.498 501.4244 Q411.373 501.4244 411.8262 500.776 Q412.2793 500.1275 412.2793 498.9088 L412.2793 495.6119 L411.1855 495.6119 L411.1855 494.8775 ZM421.6836 502.1432 L421.6836 501.4244 L423.4648 501.4244 L423.4648 492.9244 L421.4023 494.2682 L421.4023 493.3619 L423.9023 491.7525 L424.8398 491.7525 L424.8398 501.4244 L426.6211 501.4244 L426.6211 502.1432 L421.6836 502.1432 ZM433.4971 498.69 L433.4971 493.2525 L430.0127 498.69 L433.4971 498.69 ZM436.4971 502.1432 L431.8564 502.1432 L431.8564 501.4244 L433.4971 501.4244 L433.4971 499.4088 L429.0439 499.4088 L429.0439 498.6744 L433.5127 491.7525 L434.8564 491.7525 L434.8564 498.69 L436.8096 498.69 L436.8096 499.4088 L434.8564 499.4088 L434.8564 501.4244 L436.4971 501.4244 L436.4971 502.1432 ZM444.9795 503.4713 L445.4639 502.2682 L442.7451 495.6119 L441.917 495.6119 L441.917 494.8775 L445.2607 494.8775 L445.2607 495.6119 L444.1045 495.6119 L446.1514 500.6119 L448.1982 495.6119 L447.1045 495.6119 L447.1045 494.8775 L449.8389 494.8775 L449.8389 495.6119 L449.0264 495.6119 L445.6826 503.7838 Q445.3545 504.6275 444.9326 504.94 Q444.5107 505.2525 443.7607 505.2525 Q443.4326 505.2525 443.0967 505.1978 Q442.7607 505.1432 442.417 505.0494 L442.417 503.6588 L443.0576 503.6588 Q443.1045 504.1119 443.2998 504.315 Q443.4951 504.5182 443.9014 504.5182 Q444.2764 504.5182 444.5029 504.315 Q444.7295 504.1119 444.9795 503.4713 ZM456.3076 502.1432 L456.3076 501.4244 L458.0889 501.4244 L458.0889 492.9244 L456.0264 494.2682 L456.0264 493.3619 L458.5264 491.7525 L459.4639 491.7525 L459.4639 501.4244 L461.2451 501.4244 L461.2451 502.1432 L456.3076 502.1432 ZM469.7461 499.3463 Q469.7461 498.2525 469.207 497.651 Q468.668 497.0494 467.6836 497.0494 Q466.6992 497.0494 466.1523 497.651 Q465.6055 498.2525 465.6055 499.3463 Q465.6055 500.4557 466.1523 501.0572 Q466.6992 501.6588 467.6836 501.6588 Q468.668 501.6588 469.207 501.0572 Q469.7461 500.4557 469.7461 499.3463 ZM469.4648 494.3932 Q469.4648 493.4713 468.9961 492.9478 Q468.5273 492.4244 467.6836 492.4244 Q466.8398 492.4244 466.3633 492.9478 Q465.8867 493.4713 465.8867 494.3932 Q465.8867 495.3307 466.3633 495.8541 Q466.8398 496.3775 467.6836 496.3775 Q468.5273 496.3775 468.9961 495.8541 Q469.4648 495.3307 469.4648 494.3932 ZM468.7305 496.7057 Q469.9023 496.8619 470.5508 497.565 Q471.1992 498.2682 471.1992 499.3463 Q471.1992 500.7838 470.2852 501.565 Q469.3711 502.3463 467.6836 502.3463 Q465.9961 502.3463 465.082 501.565 Q464.168 500.7838 464.168 499.3463 Q464.168 498.2682 464.8164 497.565 Q465.4648 496.8619 466.6367 496.7057 Q465.6055 496.5182 465.0508 495.9244 Q464.4961 495.3307 464.4961 494.3932 Q464.4961 493.1744 465.3477 492.4635 Q466.1992 491.7525 467.6836 491.7525 Q469.168 491.7525 470.0117 492.4635 Q470.8555 493.1744 470.8555 494.3932 Q470.8555 495.3307 470.3086 495.9244 Q469.7617 496.5182 468.7305 496.7057 ZM473.4502 501.4244 Q473.4502 501.0494 473.7158 500.7838 Q473.9814 500.5182 474.3721 500.5182 Q474.7471 500.5182 475.0127 500.7838 Q475.2783 501.0494 475.2783 501.4244 Q475.2783 501.815 475.0127 502.0807 Q474.7471 502.3463 474.3721 502.3463 Q473.9814 502.3463 473.7158 502.0807 Q473.4502 501.815 473.4502 501.4244 Z" clip-path="url(#clipPath3)" stroke="none"/>
      <path d="M273.2812 514.1588 L276.7812 514.1588 L276.7812 515.2213 L273.2812 515.2213 L273.2812 514.1588 ZM283.8213 508.9713 L282.5088 508.9713 L282.5088 508.2369 L286.5088 508.2369 L286.5088 508.9713 L285.1963 508.9713 L285.1963 514.2369 Q285.1963 516.1901 285.8369 516.9635 Q286.4775 517.7369 288.04 517.7369 Q289.6025 517.7369 290.2432 516.9635 Q290.8838 516.1901 290.8838 514.2369 L290.8838 508.9713 L289.5713 508.9713 L289.5713 508.2369 L293.0244 508.2369 L293.0244 508.9713 L291.7275 508.9713 L291.7275 514.3776 Q291.7275 516.7057 290.8291 517.6744 Q289.9307 518.6432 287.79 518.6432 Q285.6338 518.6432 284.7275 517.6666 Q283.8213 516.6901 283.8213 514.3776 L283.8213 508.9713 ZM294.4326 518.0338 L294.4326 516.3463 L295.167 516.3463 Q295.1826 517.1588 295.667 517.5573 Q296.1514 517.9557 297.1045 517.9557 Q297.9482 517.9557 298.3936 517.6432 Q298.8389 517.3307 298.8389 516.7213 Q298.8389 516.2369 298.5107 515.9401 Q298.1826 515.6432 297.1357 515.3151 L296.2295 515.0026 Q295.292 514.7057 294.8701 514.2526 Q294.4482 513.7994 294.4482 513.1119 Q294.4482 512.1119 295.1826 511.5416 Q295.917 510.9713 297.2139 510.9713 Q297.7764 510.9713 298.417 511.1198 Q299.0576 511.2682 299.7295 511.5651 L299.7295 513.1432 L299.0107 513.1432 Q298.9795 512.4401 298.5107 512.0494 Q298.042 511.6588 297.2451 511.6588 Q296.4482 511.6588 296.042 511.9323 Q295.6357 512.2057 295.6357 512.7682 Q295.6357 513.2369 295.9482 513.5104 Q296.2607 513.7838 297.1826 514.0651 L298.1826 514.3776 Q299.2139 514.7057 299.667 515.1823 Q300.1201 515.6588 300.1201 516.4244 Q300.1201 517.4557 299.3311 518.0494 Q298.542 518.6432 297.1514 518.6432 Q296.4482 518.6432 295.7764 518.4869 Q295.1045 518.3307 294.4326 518.0338 ZM305.0547 517.9557 Q306.0547 517.9557 306.5703 517.1588 Q307.0859 516.3619 307.0859 514.7994 Q307.0859 513.2369 306.5703 512.4479 Q306.0547 511.6588 305.0547 511.6588 Q304.0391 511.6588 303.5234 512.4479 Q303.0078 513.2369 303.0078 514.7994 Q303.0078 516.3619 303.5234 517.1588 Q304.0391 517.9557 305.0547 517.9557 ZM305.0547 518.6432 Q303.4609 518.6432 302.5 517.5885 Q301.5391 516.5338 301.5391 514.7994 Q301.5391 513.0651 302.5 512.0182 Q303.4609 510.9713 305.0547 510.9713 Q306.6328 510.9713 307.5938 512.0182 Q308.5547 513.0651 308.5547 514.7994 Q308.5547 516.5338 307.5938 517.5885 Q306.6328 518.6432 305.0547 518.6432 ZM321.0586 517.7213 L322.2617 517.7213 L322.2617 518.4401 L319.8086 518.4401 L319.8086 517.2994 Q319.4336 517.9869 318.8633 518.3151 Q318.293 518.6432 317.4492 518.6432 Q316.1211 518.6432 315.2695 517.5807 Q314.418 516.5182 314.418 514.7994 Q314.418 513.0963 315.2617 512.0338 Q316.1055 510.9713 317.4492 510.9713 Q318.293 510.9713 318.8633 511.2994 Q319.4336 511.6276 319.8086 512.3151 L319.8086 508.5338 L318.6211 508.5338 L318.6211 507.7994 L321.0586 507.7994 L321.0586 517.7213 ZM319.8086 515.1588 L319.8086 514.4401 Q319.8086 513.1432 319.3086 512.4557 Q318.8086 511.7682 317.8398 511.7682 Q316.8711 511.7682 316.3789 512.5338 Q315.8867 513.2994 315.8867 514.7994 Q315.8867 516.2994 316.3789 517.0729 Q316.8711 517.8463 317.8398 517.8463 Q318.8086 517.8463 319.3086 517.1588 Q319.8086 516.4713 319.8086 515.1588 ZM330.2705 514.9401 L324.8486 514.9401 L324.8486 514.9869 Q324.8486 516.4713 325.4033 517.2135 Q325.958 517.9557 327.0361 517.9557 Q327.8643 517.9557 328.3877 517.526 Q328.9111 517.0963 329.1299 516.2369 L330.1455 516.2369 Q329.8486 517.4401 329.0361 518.0416 Q328.2236 518.6432 326.8955 518.6432 Q325.3018 518.6432 324.3408 517.5885 Q323.3799 516.5338 323.3799 514.7994 Q323.3799 513.0807 324.3252 512.026 Q325.2705 510.9713 326.8174 510.9713 Q328.4736 510.9713 329.3486 511.9869 Q330.2236 513.0026 330.2705 514.9401 ZM328.7861 514.2213 Q328.7393 512.9401 328.2471 512.2994 Q327.7549 511.6588 326.8174 511.6588 Q325.958 511.6588 325.458 512.3073 Q324.958 512.9557 324.8486 514.2213 L328.7861 514.2213 ZM337.8652 508.9713 L340.8809 516.7994 L343.8809 508.9713 L342.7402 508.9713 L342.7402 508.2369 L345.7246 508.2369 L345.7246 508.9713 L344.7402 508.9713 L341.0996 518.4401 L339.9121 518.4401 L336.2871 508.9713 L335.2715 508.9713 L335.2715 508.2369 L338.9902 508.2369 L338.9902 508.9713 L337.8652 508.9713 ZM346.8818 508.9244 Q346.8818 508.5963 347.1084 508.3698 Q347.335 508.1432 347.6631 508.1432 Q347.9756 508.1432 348.2021 508.3698 Q348.4287 508.5963 348.4287 508.9244 Q348.4287 509.2369 348.21 509.4635 Q347.9912 509.6901 347.6631 509.6901 Q347.335 509.6901 347.1084 509.4635 Q346.8818 509.2369 346.8818 508.9244 ZM348.4912 517.7213 L349.6787 517.7213 L349.6787 518.4401 L346.0225 518.4401 L346.0225 517.7213 L347.2256 517.7213 L347.2256 511.9088 L346.0225 511.9088 L346.0225 511.1744 L348.4912 511.1744 L348.4912 517.7213 ZM356.6875 511.1588 L356.6875 512.9713 L355.9688 512.9713 Q355.9375 512.4401 355.6719 512.1744 Q355.4062 511.9088 354.8906 511.9088 Q353.9531 511.9088 353.4609 512.5494 Q352.9688 513.1901 352.9688 514.3932 L352.9688 517.7213 L354.4219 517.7213 L354.4219 518.4401 L350.5781 518.4401 L350.5781 517.7213 L351.7031 517.7213 L351.7031 511.8932 L350.5 511.8932 L350.5 511.1744 L352.9688 511.1744 L352.9688 512.4713 Q353.3438 511.7057 353.9219 511.3385 Q354.5 510.9713 355.3281 510.9713 Q355.6406 510.9713 355.9766 511.0182 Q356.3125 511.0651 356.6875 511.1588 ZM358.208 511.9088 L357.0986 511.9088 L357.0986 511.1744 L358.208 511.1744 L358.208 508.9244 L359.4736 508.9244 L359.4736 511.1744 L361.833 511.1744 L361.833 511.9088 L359.4736 511.9088 L359.4736 516.5182 Q359.4736 517.4401 359.6455 517.6979 Q359.8174 517.9557 360.3018 517.9557 Q360.8018 517.9557 361.0205 517.6666 Q361.2393 517.3776 361.2549 516.7369 L362.208 516.7369 Q362.1611 517.7213 361.6689 518.1823 Q361.1768 518.6432 360.1924 518.6432 Q359.0986 518.6432 358.6533 518.1588 Q358.208 517.6744 358.208 516.5182 L358.208 511.9088 ZM367.2715 511.1744 L369.6309 511.1744 L369.6309 517.7213 L370.8184 517.7213 L370.8184 518.4401 L368.3652 518.4401 L368.3652 517.1588 Q368.0215 517.8776 367.4668 518.2604 Q366.9121 518.6432 366.1777 518.6432 Q364.9746 518.6432 364.4043 517.9557 Q363.834 517.2682 363.834 515.7994 L363.834 511.9088 L362.6934 511.9088 L362.6934 511.1744 L365.0996 511.1744 L365.0996 515.4088 Q365.0996 516.7369 365.4199 517.2291 Q365.7402 517.7213 366.584 517.7213 Q367.459 517.7213 367.9121 517.0729 Q368.3652 516.4244 368.3652 515.2057 L368.3652 511.9088 L367.2715 511.9088 L367.2715 511.1744 ZM376.9131 516.1588 L376.9131 514.6119 L375.2881 514.6119 Q374.3506 514.6119 373.8896 515.0182 Q373.4287 515.4244 373.4287 516.2526 Q373.4287 517.0182 373.8975 517.4635 Q374.3662 517.9088 375.1631 517.9088 Q375.9443 517.9088 376.4287 517.4244 Q376.9131 516.9401 376.9131 516.1588 ZM378.1631 513.8932 L378.1631 517.7213 L379.2881 517.7213 L379.2881 518.4401 L376.9131 518.4401 L376.9131 517.6588 Q376.4912 518.1588 375.9443 518.401 Q375.3975 518.6432 374.6631 518.6432 Q373.46 518.6432 372.749 517.9948 Q372.0381 517.3463 372.0381 516.2526 Q372.0381 515.1276 372.8506 514.5104 Q373.6631 513.8932 375.1475 513.8932 L376.9131 513.8932 L376.9131 513.3932 Q376.9131 512.5651 376.4053 512.1119 Q375.8975 511.6588 374.9912 511.6588 Q374.2412 511.6588 373.7959 511.9948 Q373.3506 512.3307 373.2412 513.0026 L372.6006 513.0026 L372.6006 511.5338 Q373.2568 511.2526 373.874 511.1119 Q374.4912 510.9713 375.0693 510.9713 Q376.585 510.9713 377.374 511.7213 Q378.1631 512.4713 378.1631 513.8932 ZM382.5566 517.7213 L383.7441 517.7213 L383.7441 518.4401 L380.0879 518.4401 L380.0879 517.7213 L381.291 517.7213 L381.291 508.5338 L380.0879 508.5338 L380.0879 507.7994 L382.5566 507.7994 L382.5566 517.7213 ZM387.6123 517.7213 L389.6592 517.7213 Q390.8936 517.7213 391.4639 517.1823 Q392.0342 516.6432 392.0342 515.4869 Q392.0342 514.3307 391.4639 513.7994 Q390.8936 513.2682 389.6592 513.2682 L387.6123 513.2682 L387.6123 517.7213 ZM387.6123 512.5494 L389.3623 512.5494 Q390.4717 512.5494 390.9873 512.1198 Q391.5029 511.6901 391.5029 510.7526 Q391.5029 509.8151 390.9873 509.3932 Q390.4717 508.9713 389.3623 508.9713 L387.6123 508.9713 L387.6123 512.5494 ZM384.9248 518.4401 L384.9248 517.7213 L386.2373 517.7213 L386.2373 508.9713 L384.9248 508.9713 L384.9248 508.2369 L389.9717 508.2369 Q391.5186 508.2369 392.2998 508.8698 Q393.0811 509.5026 393.0811 510.7526 Q393.0811 511.6588 392.5342 512.2057 Q391.9873 512.7526 390.9404 512.8619 Q392.2529 513.0338 392.9248 513.6979 Q393.5967 514.3619 393.5967 515.4869 Q393.5967 517.0026 392.6357 517.7213 Q391.6748 518.4401 389.6436 518.4401 L384.9248 518.4401 ZM398.666 517.9557 Q399.666 517.9557 400.1816 517.1588 Q400.6973 516.3619 400.6973 514.7994 Q400.6973 513.2369 400.1816 512.4479 Q399.666 511.6588 398.666 511.6588 Q397.6504 511.6588 397.1348 512.4479 Q396.6191 513.2369 396.6191 514.7994 Q396.6191 516.3619 397.1348 517.1588 Q397.6504 517.9557 398.666 517.9557 ZM398.666 518.6432 Q397.0723 518.6432 396.1113 517.5885 Q395.1504 516.5338 395.1504 514.7994 Q395.1504 513.0651 396.1113 512.0182 Q397.0723 510.9713 398.666 510.9713 Q400.2441 510.9713 401.2051 512.0182 Q402.166 513.0651 402.166 514.7994 Q402.166 516.5338 401.2051 517.5885 Q400.2441 518.6432 398.666 518.6432 ZM406.9541 514.0026 L408.4697 511.9088 L407.501 511.9088 L407.501 511.1744 L410.2979 511.1744 L410.2979 511.9088 L409.3291 511.9088 L407.376 514.5963 L409.6572 517.7213 L410.5947 517.7213 L410.5947 518.4401 L407.251 518.4401 L407.251 517.7213 L408.1729 517.7213 L406.5947 515.5338 L405.001 517.7213 L405.9385 517.7213 L405.9385 518.4401 L403.1885 518.4401 L403.1885 517.7213 L404.1416 517.7213 L406.1572 514.9557 L403.9385 511.9088 L403.0479 511.9088 L403.0479 511.1744 L406.2979 511.1744 L406.2979 511.9088 L405.4229 511.9088 L406.9541 514.0026 ZM418.2373 519.7682 L418.7217 518.5651 L416.0029 511.9088 L415.1748 511.9088 L415.1748 511.1744 L418.5186 511.1744 L418.5186 511.9088 L417.3623 511.9088 L419.4092 516.9088 L421.4561 511.9088 L420.3623 511.9088 L420.3623 511.1744 L423.0967 511.1744 L423.0967 511.9088 L422.2842 511.9088 L418.9404 520.0807 Q418.6123 520.9244 418.1904 521.2369 Q417.7686 521.5494 417.0186 521.5494 Q416.6904 521.5494 416.3545 521.4948 Q416.0186 521.4401 415.6748 521.3463 L415.6748 519.9557 L416.3154 519.9557 Q416.3623 520.4088 416.5576 520.6119 Q416.7529 520.8151 417.1592 520.8151 Q417.5342 520.8151 417.7607 520.6119 Q417.9873 520.4088 418.2373 519.7682 ZM430.0342 508.9713 L433.0498 516.7994 L436.0498 508.9713 L434.9092 508.9713 L434.9092 508.2369 L437.8936 508.2369 L437.8936 508.9713 L436.9092 508.9713 L433.2686 518.4401 L432.0811 518.4401 L428.4561 508.9713 L427.4404 508.9713 L427.4404 508.2369 L431.1592 508.2369 L431.1592 508.9713 L430.0342 508.9713 ZM438.457 518.4401 L438.457 517.7213 L439.7695 517.7213 L439.7695 508.9713 L438.3945 508.9713 L438.3945 508.2369 L441.3633 508.2369 L444.9414 515.5026 L448.5195 508.2369 L451.3164 508.2369 L451.3164 508.9713 L449.957 508.9713 L449.957 517.7213 L451.2539 517.7213 L451.2539 518.4401 L447.2695 518.4401 L447.2695 517.7213 L448.5664 517.7213 L448.5664 509.8307 L445.0664 516.9401 L444.0977 516.9401 L440.5977 509.8307 L440.5977 517.7213 L441.9102 517.7213 L441.9102 518.4401 L438.457 518.4401 ZM462.6982 518.4401 L461.5732 518.4401 L459.2451 510.1432 L456.9014 518.4401 L455.7764 518.4401 L453.1045 508.9713 L452.0889 508.9713 L452.0889 508.2369 L455.8232 508.2369 L455.8232 508.9713 L454.542 508.9713 L456.6826 516.5026 L458.9951 508.2369 L460.1045 508.2369 L462.4795 516.5963 L464.6045 508.9713 L463.4326 508.9713 L463.4326 508.2369 L466.3701 508.2369 L466.3701 508.9713 L465.3701 508.9713 L462.6982 518.4401 ZM471.9941 516.1588 L471.9941 514.6119 L470.3691 514.6119 Q469.4316 514.6119 468.9707 515.0182 Q468.5098 515.4244 468.5098 516.2526 Q468.5098 517.0182 468.9785 517.4635 Q469.4473 517.9088 470.2441 517.9088 Q471.0254 517.9088 471.5098 517.4244 Q471.9941 516.9401 471.9941 516.1588 ZM473.2441 513.8932 L473.2441 517.7213 L474.3691 517.7213 L474.3691 518.4401 L471.9941 518.4401 L471.9941 517.6588 Q471.5723 518.1588 471.0254 518.401 Q470.4785 518.6432 469.7441 518.6432 Q468.541 518.6432 467.8301 517.9948 Q467.1191 517.3463 467.1191 516.2526 Q467.1191 515.1276 467.9316 514.5104 Q468.7441 513.8932 470.2285 513.8932 L471.9941 513.8932 L471.9941 513.3932 Q471.9941 512.5651 471.4863 512.1119 Q470.9785 511.6588 470.0723 511.6588 Q469.3223 511.6588 468.877 511.9948 Q468.4316 512.3307 468.3223 513.0026 L467.6816 513.0026 L467.6816 511.5338 Q468.3379 511.2526 468.9551 511.1119 Q469.5723 510.9713 470.1504 510.9713 Q471.666 510.9713 472.4551 511.7213 Q473.2441 512.4713 473.2441 513.8932 ZM481.4502 511.1588 L481.4502 512.9713 L480.7314 512.9713 Q480.7002 512.4401 480.4346 512.1744 Q480.1689 511.9088 479.6533 511.9088 Q478.7158 511.9088 478.2236 512.5494 Q477.7314 513.1901 477.7314 514.3932 L477.7314 517.7213 L479.1846 517.7213 L479.1846 518.4401 L475.3408 518.4401 L475.3408 517.7213 L476.4658 517.7213 L476.4658 511.8932 L475.2627 511.8932 L475.2627 511.1744 L477.7314 511.1744 L477.7314 512.4713 Q478.1064 511.7057 478.6846 511.3385 Q479.2627 510.9713 480.0908 510.9713 Q480.4033 510.9713 480.7393 511.0182 Q481.0752 511.0651 481.4502 511.1588 ZM489.0488 514.9401 L483.627 514.9401 L483.627 514.9869 Q483.627 516.4713 484.1816 517.2135 Q484.7363 517.9557 485.8145 517.9557 Q486.6426 517.9557 487.166 517.526 Q487.6895 517.0963 487.9082 516.2369 L488.9238 516.2369 Q488.627 517.4401 487.8145 518.0416 Q487.002 518.6432 485.6738 518.6432 Q484.0801 518.6432 483.1191 517.5885 Q482.1582 516.5338 482.1582 514.7994 Q482.1582 513.0807 483.1035 512.026 Q484.0488 510.9713 485.5957 510.9713 Q487.252 510.9713 488.127 511.9869 Q489.002 513.0026 489.0488 514.9401 ZM487.5645 514.2213 Q487.5176 512.9401 487.0254 512.2994 Q486.5332 511.6588 485.5957 511.6588 Q484.7363 511.6588 484.2363 512.3073 Q483.7363 512.9557 483.627 514.2213 L487.5645 514.2213 Z" clip-path="url(#clipPath3)" stroke="none"/>
    </g>
    <g transform="matrix(1,0,0,1,-191,-105)" fill-opacity="0.1451" fill="rgb(255,0,0)" text-rendering="geometricPrecision" shape-rendering="geometricPrecision" stroke="rgb(255,0,0)" stroke-opacity="0.1451">
      <rect x="962.5972" y="431.5643" clip-path="url(#clipPath2)" width="75.5715" rx="4" ry="4" height="43.3145" stroke="none"/>
    </g>
    <g stroke-linecap="butt" transform="matrix(1,0,0,1,-191,-105)" fill="red" text-rendering="geometricPrecision" shape-rendering="geometricPrecision" stroke="red" stroke-miterlimit="1.45">
      <rect x="962.5972" y="431.5643" clip-path="url(#clipPath2)" fill="none" width="75.5715" rx="4" ry="4" height="43.3145"/>
      <text x="974.0685" y="457.3758" clip-path="url(#clipPath2)" fill="black" font-family="sans-serif" stroke="none" xml:space="preserve">RA2 (25)</text>
    </g>
    <g transform="matrix(1,0,0,1,-191,-105)" fill-opacity="0.1451" fill="rgb(255,0,0)" text-rendering="geometricPrecision" shape-rendering="geometricPrecision" stroke="rgb(255,0,0)" stroke-opacity="0.1451">
      <rect x="1038.1687" y="431.5643" clip-path="url(#clipPath2)" width="45.5715" rx="4" ry="4" height="43.3145" stroke="none"/>
    </g>
    <g stroke-linecap="butt" transform="matrix(1,0,0,1,-191,-105)" fill="red" text-rendering="geometricPrecision" shape-rendering="geometricPrecision" stroke="red" stroke-miterlimit="1.45">
      <rect x="1038.1687" y="431.5643" clip-path="url(#clipPath2)" fill="none" width="45.5715" rx="4" ry="4" height="43.3145"/>
      <text x="1053.3197" y="457.3758" clip-path="url(#clipPath2)" fill="black" font-family="sans-serif" stroke="none" xml:space="preserve">10</text>
    </g>
    <g transform="matrix(1,0,0,1,-191,-105)" fill-opacity="0.1451" fill="rgb(255,0,0)" text-rendering="geometricPrecision" shape-rendering="geometricPrecision" stroke="rgb(255,0,0)" stroke-opacity="0.1451">
      <rect x="962.5972" y="474.8788" clip-path="url(#clipPath2)" width="75.5715" rx="4" ry="4" height="43.3145" stroke="none"/>
    </g>
    <g stroke-linecap="butt" transform="matrix(1,0,0,1,-191,-105)" fill="red" text-rendering="geometricPrecision" shape-rendering="geometricPrecision" stroke="red" stroke-miterlimit="1.45">
      <rect x="962.5972" y="474.8788" clip-path="url(#clipPath2)" fill="none" width="75.5715" rx="4" ry="4" height="43.3145"/>
      <text x="974.0685" y="500.6903" clip-path="url(#clipPath2)" fill="black" font-family="sans-serif" stroke="none" xml:space="preserve">RA3 (25)</text>
    </g>
    <g transform="matrix(1,0,0,1,-191,-105)" fill-opacity="0.1451" fill="rgb(255,0,0)" text-rendering="geometricPrecision" shape-rendering="geometricPrecision" stroke="rgb(255,0,0)" stroke-opacity="0.1451">
      <rect x="1038.1687" y="474.8788" clip-path="url(#clipPath2)" width="45.5715" rx="4" ry="4" height="43.3145" stroke="none"/>
    </g>
    <g stroke-linecap="butt" transform="matrix(1,0,0,1,-191,-105)" fill="red" text-rendering="geometricPrecision" shape-rendering="geometricPrecision" stroke="red" stroke-miterlimit="1.45">
      <rect x="1038.1687" y="474.8788" clip-path="url(#clipPath2)" fill="none" width="45.5715" rx="4" ry="4" height="43.3145"/>
      <text x="1053.3197" y="500.6903" clip-path="url(#clipPath2)" fill="black" font-family="sans-serif" stroke="none" xml:space="preserve">10</text>
    </g>
  </g>
</svg>
