<?xml version="1.0" encoding="UTF-8"?><svg xmlns="http://www.w3.org/2000/svg" xmlns:xlink="http://www.w3.org/1999/xlink" fill-opacity="1" color-rendering="auto" color-interpolation="auto" text-rendering="auto" stroke="black" stroke-linecap="square" width="877" stroke-miterlimit="10" shape-rendering="auto" stroke-opacity="1" fill="black" stroke-dasharray="none" font-weight="normal" stroke-width="1" height="469" font-family="'Dialog'" font-style="normal" stroke-linejoin="miter" font-size="12px" stroke-dashoffset="0" image-rendering="auto">
  <!--Generated by ySVG 2.5-->
  <defs id="genericDefs"/>
  <g>
    <defs id="defs1">
      <clipPath clipPathUnits="userSpaceOnUse" id="clipPath1">
        <path d="M0 0 L877 0 L877 469 L0 469 L0 0 Z"/>
      </clipPath>
      <clipPath clipPathUnits="userSpaceOnUse" id="clipPath2">
        <path d="M226 140 L1103 140 L1103 609 L226 609 L226 140 Z"/>
      </clipPath>
      <clipPath clipPathUnits="userSpaceOnUse" id="clipPath3">
        <path d="M272.6719 472.8512 L272.6719 578.5557 L935 578.5557 L935 472.8512 Z"/>
      </clipPath>
    </defs>
    <g fill="white" text-rendering="geometricPrecision" shape-rendering="geometricPrecision" transform="translate(-226,-140)" stroke="white">
      <rect x="226" width="877" height="469" y="140" clip-path="url(#clipPath2)" stroke="none"/>
    </g>
    <g fill="rgb(204,255,204)" text-rendering="geometricPrecision" shape-rendering="geometricPrecision" transform="matrix(1,0,0,1,-226,-140)" stroke="rgb(204,255,204)">
      <rect x="257.6719" y="155.5176" clip-path="url(#clipPath2)" width="692.3281" rx="4" ry="4" height="148.7045" stroke="none"/>
    </g>
    <g font-size="16px" stroke-linecap="butt" transform="matrix(1,0,0,1,-226,-140)" text-rendering="geometricPrecision" font-family="'DejaVu Serif'" shape-rendering="geometricPrecision" stroke-miterlimit="1.45">
      <text x="474.4727" xml:space="preserve" y="176.3692" clip-path="url(#clipPath2)" stroke="none">Prevención de riesgos laborales</text>
      <rect x="257.6719" y="155.5176" clip-path="url(#clipPath2)" fill="none" width="692.3281" rx="4" ry="4" height="148.7045"/>
      <text x="277.4158" xml:space="preserve" font-size="14px" y="206.4744" clip-path="url(#clipPath2)" stroke="none">Graba un video donde se muestren cinco riesgos y la forma de actuación contra ellos.</text>
      <text x="277.4158" xml:space="preserve" font-size="14px" y="222.7712" clip-path="url(#clipPath2)" stroke="none">Se debe mostrar cual es el riesgo, sus consecuencias y como evitarlos.</text>
      <text x="277.4158" xml:space="preserve" font-size="14px" y="239.0681" clip-path="url(#clipPath2)" stroke="none"> </text>
      <text x="277.4158" xml:space="preserve" font-size="14px" y="255.365" clip-path="url(#clipPath2)" stroke="none">En la evaluación se tomará en cuenta, principalmente, como se explican los riesgos y como</text>
      <text x="277.4158" xml:space="preserve" font-size="14px" y="271.6619" clip-path="url(#clipPath2)" stroke="none">evitarlos. además de la propia manufactura del video. La nota será compartida por ambos</text>
      <text x="277.4158" xml:space="preserve" font-size="14px" y="287.9587" clip-path="url(#clipPath2)" stroke="none">integrantes del grupo.</text>
    </g>
    <g transform="matrix(1,0,0,1,-226,-140)" fill-opacity="0.1451" fill="rgb(255,0,0)" text-rendering="geometricPrecision" shape-rendering="geometricPrecision" stroke="rgb(255,0,0)" stroke-opacity="0.1451">
      <rect x="964.6658" y="155.5176" clip-path="url(#clipPath2)" width="77.2373" rx="4" ry="4" height="43.3145" stroke="none"/>
    </g>
    <g stroke-linecap="butt" transform="matrix(1,0,0,1,-226,-140)" fill="red" text-rendering="geometricPrecision" shape-rendering="geometricPrecision" stroke="red" stroke-miterlimit="1.45">
      <rect x="964.6658" y="155.5176" clip-path="url(#clipPath2)" fill="none" width="77.2373" rx="4" ry="4" height="43.3145"/>
      <text x="980.7874" y="181.3292" clip-path="url(#clipPath2)" fill="black" font-family="sans-serif" stroke="none" xml:space="preserve">RA5 (5)</text>
    </g>
    <g transform="matrix(1,0,0,1,-226,-140)" fill-opacity="0.1451" fill="rgb(255,0,0)" text-rendering="geometricPrecision" shape-rendering="geometricPrecision" stroke="rgb(255,0,0)" stroke-opacity="0.1451">
      <rect x="1041.9031" y="155.5176" clip-path="url(#clipPath2)" width="45.5715" rx="4" ry="4" height="43.3145" stroke="none"/>
    </g>
    <g stroke-linecap="butt" transform="matrix(1,0,0,1,-226,-140)" fill="red" text-rendering="geometricPrecision" shape-rendering="geometricPrecision" stroke="red" stroke-miterlimit="1.45">
      <rect x="1041.9031" y="155.5176" clip-path="url(#clipPath2)" fill="none" width="45.5715" rx="4" ry="4" height="43.3145"/>
      <text x="1060.8715" y="181.3292" clip-path="url(#clipPath2)" fill="black" font-family="sans-serif" stroke="none" xml:space="preserve">5</text>
    </g>
    <g fill="rgb(204,255,204)" text-rendering="geometricPrecision" shape-rendering="geometricPrecision" transform="matrix(1,0,0,1,-226,-140)" stroke="rgb(204,255,204)">
      <rect x="257.6719" y="318.5409" clip-path="url(#clipPath2)" width="692.3281" rx="4" ry="4" height="98.7045" stroke="none"/>
    </g>
    <g font-size="16px" stroke-linecap="butt" transform="matrix(1,0,0,1,-226,-140)" text-rendering="geometricPrecision" font-family="'DejaVu Serif'" shape-rendering="geometricPrecision" stroke-miterlimit="1.45">
      <text x="529.6562" xml:space="preserve" y="339.3925" clip-path="url(#clipPath2)" stroke="none">Examen hardware</text>
      <rect x="257.6719" y="318.5409" clip-path="url(#clipPath2)" fill="none" width="692.3281" rx="4" ry="4" height="98.7045"/>
      <text x="277.4815" xml:space="preserve" font-size="14px" y="370.7458" clip-path="url(#clipPath2)" stroke="none">Examen escrito compuesto por:</text>
      <text x="277.4815" xml:space="preserve" font-size="14px" y="387.0427" clip-path="url(#clipPath2)" stroke="none">- Problemas sobres unidades y velocidades de transmisión.</text>
      <text x="277.4815" xml:space="preserve" font-size="14px" y="403.3396" clip-path="url(#clipPath2)" stroke="none">- Preguntas cortas sobres dispositivos de almacenamiento.</text>
    </g>
    <g transform="matrix(1,0,0,1,-226,-140)" fill-opacity="0.1451" fill="rgb(255,0,0)" text-rendering="geometricPrecision" shape-rendering="geometricPrecision" stroke="rgb(255,0,0)" stroke-opacity="0.1451">
      <rect x="962.5972" y="318.5409" clip-path="url(#clipPath2)" width="79.3059" rx="4" ry="4" height="43.3145" stroke="none"/>
    </g>
    <g stroke-linecap="butt" transform="matrix(1,0,0,1,-226,-140)" fill="red" text-rendering="geometricPrecision" shape-rendering="geometricPrecision" stroke="red" stroke-miterlimit="1.45">
      <rect x="962.5972" y="318.5409" clip-path="url(#clipPath2)" fill="none" width="79.3059" rx="4" ry="4" height="43.3145"/>
      <text x="975.9357" y="344.3525" clip-path="url(#clipPath2)" fill="black" font-family="sans-serif" stroke="none" xml:space="preserve">RA1 (40)</text>
    </g>
    <g transform="matrix(1,0,0,1,-226,-140)" fill-opacity="0.1451" fill="rgb(255,0,0)" text-rendering="geometricPrecision" shape-rendering="geometricPrecision" stroke="rgb(255,0,0)" stroke-opacity="0.1451">
      <rect x="1041.9031" y="318.5409" clip-path="url(#clipPath2)" width="45.5715" rx="4" ry="4" height="43.3145" stroke="none"/>
    </g>
    <g stroke-linecap="butt" transform="matrix(1,0,0,1,-226,-140)" fill="red" text-rendering="geometricPrecision" shape-rendering="geometricPrecision" stroke="red" stroke-miterlimit="1.45">
      <rect x="1041.9031" y="318.5409" clip-path="url(#clipPath2)" fill="none" width="45.5715" rx="4" ry="4" height="43.3145"/>
      <text x="1057.0541" y="344.3525" clip-path="url(#clipPath2)" fill="black" font-family="sans-serif" stroke="none" xml:space="preserve">10</text>
    </g>
    <g fill="rgb(204,255,204)" text-rendering="geometricPrecision" shape-rendering="geometricPrecision" transform="matrix(1,0,0,1,-226,-140)" stroke="rgb(204,255,204)">
      <rect x="257.6719" y="431.5643" clip-path="url(#clipPath2)" width="692.3281" rx="4" ry="4" height="153.7045" stroke="none"/>
    </g>
    <g font-size="16px" stroke-linecap="butt" transform="matrix(1,0,0,1,-226,-140)" text-rendering="geometricPrecision" font-family="'DejaVu Serif'" shape-rendering="geometricPrecision" stroke-miterlimit="1.45">
      <text x="515.0898" xml:space="preserve" y="452.4158" clip-path="url(#clipPath2)" stroke="none">Memoria de practicas</text>
      <rect x="257.6719" y="431.5643" clip-path="url(#clipPath2)" fill="none" width="692.3281" rx="4" ry="4" height="153.7045"/>
    </g>
    <g text-rendering="geometricPrecision" shape-rendering="geometricPrecision" transform="matrix(1,0,0,1,-226,-140)">
      <path d="M273.4375 485.8463 L273.4375 485.1275 L274.75 485.1275 L274.75 476.3775 L273.375 476.3775 L273.375 475.6432 L276.3438 475.6432 L279.9219 482.9088 L283.5 475.6432 L286.2969 475.6432 L286.2969 476.3775 L284.9375 476.3775 L284.9375 485.1275 L286.2344 485.1275 L286.2344 485.8463 L282.25 485.8463 L282.25 485.1275 L283.5469 485.1275 L283.5469 477.2369 L280.0469 484.3463 L279.0781 484.3463 L275.5781 477.2369 L275.5781 485.1275 L276.8906 485.1275 L276.8906 485.8463 L273.4375 485.8463 ZM294.6006 482.3463 L289.1787 482.3463 L289.1787 482.3932 Q289.1787 483.8775 289.7334 484.6197 Q290.2881 485.3619 291.3662 485.3619 Q292.1943 485.3619 292.7178 484.9322 Q293.2412 484.5025 293.46 483.6432 L294.4756 483.6432 Q294.1787 484.8463 293.3662 485.4478 Q292.5537 486.0494 291.2256 486.0494 Q289.6318 486.0494 288.6709 484.9947 Q287.71 483.94 287.71 482.2057 Q287.71 480.4869 288.6553 479.4322 Q289.6006 478.3775 291.1475 478.3775 Q292.8037 478.3775 293.6787 479.3932 Q294.5537 480.4088 294.6006 482.3463 ZM293.1162 481.6275 Q293.0693 480.3463 292.5771 479.7057 Q292.085 479.065 291.1475 479.065 Q290.2881 479.065 289.7881 479.7135 Q289.2881 480.3619 289.1787 481.6275 L293.1162 481.6275 ZM302.542 479.9869 Q302.9014 479.19 303.4717 478.7838 Q304.042 478.3775 304.792 478.3775 Q305.9326 478.3775 306.4951 479.0885 Q307.0576 479.7994 307.0576 481.2213 L307.0576 485.1275 L308.1826 485.1275 L308.1826 485.8463 L304.6982 485.8463 L304.6982 485.1275 L305.792 485.1275 L305.792 481.3619 Q305.792 480.2525 305.4639 479.7838 Q305.1357 479.315 304.3701 479.315 Q303.542 479.315 303.0967 479.9478 Q302.6514 480.5807 302.6514 481.7994 L302.6514 485.1275 L303.7451 485.1275 L303.7451 485.8463 L300.3076 485.8463 L300.3076 485.1275 L301.4014 485.1275 L301.4014 481.315 Q301.4014 480.2369 301.0732 479.776 Q300.7451 479.315 299.9795 479.315 Q299.1357 479.315 298.6982 479.9478 Q298.2607 480.5807 298.2607 481.7994 L298.2607 485.1275 L299.3545 485.1275 L299.3545 485.8463 L295.8701 485.8463 L295.8701 485.1275 L296.9951 485.1275 L296.9951 479.2994 L295.792 479.2994 L295.792 478.5807 L298.2607 478.5807 L298.2607 479.8775 Q298.6045 479.1432 299.1436 478.7603 Q299.6826 478.3775 300.3701 478.3775 Q301.2139 478.3775 301.7842 478.7994 Q302.3545 479.2213 302.542 479.9869 ZM312.7861 485.3619 Q313.7861 485.3619 314.3018 484.565 Q314.8174 483.7682 314.8174 482.2057 Q314.8174 480.6432 314.3018 479.8541 Q313.7861 479.065 312.7861 479.065 Q311.7705 479.065 311.2549 479.8541 Q310.7393 480.6432 310.7393 482.2057 Q310.7393 483.7682 311.2549 484.565 Q311.7705 485.3619 312.7861 485.3619 ZM312.7861 486.0494 Q311.1924 486.0494 310.2314 484.9947 Q309.2705 483.94 309.2705 482.2057 Q309.2705 480.4713 310.2314 479.4244 Q311.1924 478.3775 312.7861 478.3775 Q314.3643 478.3775 315.3252 479.4244 Q316.2861 480.4713 316.2861 482.2057 Q316.2861 483.94 315.3252 484.9947 Q314.3643 486.0494 312.7861 486.0494 ZM323.6836 478.565 L323.6836 480.3775 L322.9648 480.3775 Q322.9336 479.8463 322.668 479.5807 Q322.4023 479.315 321.8867 479.315 Q320.9492 479.315 320.457 479.9557 Q319.9648 480.5963 319.9648 481.7994 L319.9648 485.1275 L321.418 485.1275 L321.418 485.8463 L317.5742 485.8463 L317.5742 485.1275 L318.6992 485.1275 L318.6992 479.2994 L317.4961 479.2994 L317.4961 478.5807 L319.9648 478.5807 L319.9648 479.8775 Q320.3398 479.1119 320.918 478.7447 Q321.4961 478.3775 322.3242 478.3775 Q322.6367 478.3775 322.9727 478.4244 Q323.3086 478.4713 323.6836 478.565 ZM325.0479 476.3307 Q325.0479 476.0025 325.2744 475.776 Q325.501 475.5494 325.8291 475.5494 Q326.1416 475.5494 326.3682 475.776 Q326.5947 476.0025 326.5947 476.3307 Q326.5947 476.6432 326.376 476.8697 Q326.1572 477.0963 325.8291 477.0963 Q325.501 477.0963 325.2744 476.8697 Q325.0479 476.6432 325.0479 476.3307 ZM326.6572 485.1275 L327.8447 485.1275 L327.8447 485.8463 L324.1885 485.8463 L324.1885 485.1275 L325.3916 485.1275 L325.3916 479.315 L324.1885 479.315 L324.1885 478.5807 L326.6572 478.5807 L326.6572 485.1275 ZM333.7441 483.565 L333.7441 482.0182 L332.1191 482.0182 Q331.1816 482.0182 330.7207 482.4244 Q330.2598 482.8307 330.2598 483.6588 Q330.2598 484.4244 330.7285 484.8697 Q331.1973 485.315 331.9941 485.315 Q332.7754 485.315 333.2598 484.8307 Q333.7441 484.3463 333.7441 483.565 ZM334.9941 481.2994 L334.9941 485.1275 L336.1191 485.1275 L336.1191 485.8463 L333.7441 485.8463 L333.7441 485.065 Q333.3223 485.565 332.7754 485.8072 Q332.2285 486.0494 331.4941 486.0494 Q330.291 486.0494 329.5801 485.401 Q328.8691 484.7525 328.8691 483.6588 Q328.8691 482.5338 329.6816 481.9166 Q330.4941 481.2994 331.9785 481.2994 L333.7441 481.2994 L333.7441 480.7994 Q333.7441 479.9713 333.2363 479.5182 Q332.7285 479.065 331.8223 479.065 Q331.0723 479.065 330.627 479.401 Q330.1816 479.7369 330.0723 480.4088 L329.4316 480.4088 L329.4316 478.94 Q330.0879 478.6588 330.7051 478.5182 Q331.3223 478.3775 331.9004 478.3775 Q333.416 478.3775 334.2051 479.1275 Q334.9941 479.8775 334.9941 481.2994 ZM348.3066 485.1275 L349.5098 485.1275 L349.5098 485.8463 L347.0566 485.8463 L347.0566 484.7057 Q346.6816 485.3932 346.1113 485.7213 Q345.541 486.0494 344.6973 486.0494 Q343.3691 486.0494 342.5176 484.9869 Q341.666 483.9244 341.666 482.2057 Q341.666 480.5025 342.5098 479.44 Q343.3535 478.3775 344.6973 478.3775 Q345.541 478.3775 346.1113 478.7057 Q346.6816 479.0338 347.0566 479.7213 L347.0566 475.94 L345.8691 475.94 L345.8691 475.2057 L348.3066 475.2057 L348.3066 485.1275 ZM347.0566 482.565 L347.0566 481.8463 Q347.0566 480.5494 346.5566 479.8619 Q346.0566 479.1744 345.0879 479.1744 Q344.1191 479.1744 343.627 479.94 Q343.1348 480.7057 343.1348 482.2057 Q343.1348 483.7057 343.627 484.4791 Q344.1191 485.2525 345.0879 485.2525 Q346.0566 485.2525 346.5566 484.565 Q347.0566 483.8775 347.0566 482.565 ZM357.5186 482.3463 L352.0967 482.3463 L352.0967 482.3932 Q352.0967 483.8775 352.6514 484.6197 Q353.2061 485.3619 354.2842 485.3619 Q355.1123 485.3619 355.6357 484.9322 Q356.1592 484.5025 356.3779 483.6432 L357.3936 483.6432 Q357.0967 484.8463 356.2842 485.4478 Q355.4717 486.0494 354.1436 486.0494 Q352.5498 486.0494 351.5889 484.9947 Q350.6279 483.94 350.6279 482.2057 Q350.6279 480.4869 351.5732 479.4322 Q352.5186 478.3775 354.0654 478.3775 Q355.7217 478.3775 356.5967 479.3932 Q357.4717 480.4088 357.5186 482.3463 ZM356.0342 481.6275 Q355.9873 480.3463 355.4951 479.7057 Q355.0029 479.065 354.0654 479.065 Q353.2061 479.065 352.7061 479.7135 Q352.2061 480.3619 352.0967 481.6275 L356.0342 481.6275 ZM365.5352 481.8463 L365.5352 482.565 Q365.5352 483.8775 366.0352 484.565 Q366.5352 485.2525 367.4883 485.2525 Q368.457 485.2525 368.9492 484.4791 Q369.4414 483.7057 369.4414 482.2057 Q369.4414 480.7057 368.9492 479.94 Q368.457 479.1744 367.4883 479.1744 Q366.5352 479.1744 366.0352 479.8619 Q365.5352 480.5494 365.5352 481.8463 ZM364.2695 479.315 L363.0664 479.315 L363.0664 478.5807 L365.5352 478.5807 L365.5352 479.7213 Q365.8945 479.0338 366.4648 478.7057 Q367.0352 478.3775 367.8789 478.3775 Q369.2227 478.3775 370.0742 479.44 Q370.9258 480.5025 370.9258 482.2057 Q370.9258 483.9244 370.0742 484.9869 Q369.2227 486.0494 367.8789 486.0494 Q367.0352 486.0494 366.4648 485.7213 Q365.8945 485.3932 365.5352 484.7057 L365.5352 488.0338 L366.7227 488.0338 L366.7227 488.7525 L363.0664 488.7525 L363.0664 488.0338 L364.2695 488.0338 L364.2695 479.315 ZM378.3096 478.565 L378.3096 480.3775 L377.5908 480.3775 Q377.5596 479.8463 377.2939 479.5807 Q377.0283 479.315 376.5127 479.315 Q375.5752 479.315 375.083 479.9557 Q374.5908 480.5963 374.5908 481.7994 L374.5908 485.1275 L376.0439 485.1275 L376.0439 485.8463 L372.2002 485.8463 L372.2002 485.1275 L373.3252 485.1275 L373.3252 479.2994 L372.1221 479.2994 L372.1221 478.5807 L374.5908 478.5807 L374.5908 479.8775 Q374.9658 479.1119 375.5439 478.7447 Q376.1221 478.3775 376.9502 478.3775 Q377.2627 478.3775 377.5986 478.4244 Q377.9346 478.4713 378.3096 478.565 ZM383.8926 483.565 L383.8926 482.0182 L382.2676 482.0182 Q381.3301 482.0182 380.8691 482.4244 Q380.4082 482.8307 380.4082 483.6588 Q380.4082 484.4244 380.877 484.8697 Q381.3457 485.315 382.1426 485.315 Q382.9238 485.315 383.4082 484.8307 Q383.8926 484.3463 383.8926 483.565 ZM385.1426 481.2994 L385.1426 485.1275 L386.2676 485.1275 L386.2676 485.8463 L383.8926 485.8463 L383.8926 485.065 Q383.4707 485.565 382.9238 485.8072 Q382.377 486.0494 381.6426 486.0494 Q380.4395 486.0494 379.7285 485.401 Q379.0176 484.7525 379.0176 483.6588 Q379.0176 482.5338 379.8301 481.9166 Q380.6426 481.2994 382.127 481.2994 L383.8926 481.2994 L383.8926 480.7994 Q383.8926 479.9713 383.3848 479.5182 Q382.877 479.065 381.9707 479.065 Q381.2207 479.065 380.7754 479.401 Q380.3301 479.7369 380.2207 480.4088 L379.5801 480.4088 L379.5801 478.94 Q380.2363 478.6588 380.8535 478.5182 Q381.4707 478.3775 382.0488 478.3775 Q383.5645 478.3775 384.3535 479.1275 Q385.1426 479.8775 385.1426 481.2994 ZM393.8643 483.6588 Q393.5986 484.8307 392.8408 485.44 Q392.083 486.0494 390.8799 486.0494 Q389.2861 486.0494 388.3252 484.9947 Q387.3643 483.94 387.3643 482.2057 Q387.3643 480.4713 388.3252 479.4244 Q389.2861 478.3775 390.8799 478.3775 Q391.5674 478.3775 392.2471 478.5416 Q392.9268 478.7057 393.6143 479.0338 L393.6143 480.8932 L392.8955 480.8932 Q392.7393 479.94 392.2627 479.5025 Q391.7861 479.065 390.8799 479.065 Q389.8643 479.065 389.3486 479.8541 Q388.833 480.6432 388.833 482.2057 Q388.833 483.7838 389.3486 484.5728 Q389.8643 485.3619 390.8799 485.3619 Q391.6924 485.3619 392.1846 484.94 Q392.6768 484.5182 392.8486 483.6588 L393.8643 483.6588 ZM396.0176 479.315 L394.9082 479.315 L394.9082 478.5807 L396.0176 478.5807 L396.0176 476.3307 L397.2832 476.3307 L397.2832 478.5807 L399.6426 478.5807 L399.6426 479.315 L397.2832 479.315 L397.2832 483.9244 Q397.2832 484.8463 397.4551 485.1041 Q397.627 485.3619 398.1113 485.3619 Q398.6113 485.3619 398.8301 485.0728 Q399.0488 484.7838 399.0645 484.1432 L400.0176 484.1432 Q399.9707 485.1275 399.4785 485.5885 Q398.9863 486.0494 398.002 486.0494 Q396.9082 486.0494 396.4629 485.565 Q396.0176 485.0807 396.0176 483.9244 L396.0176 479.315 ZM401.4873 476.3307 Q401.4873 476.0025 401.7139 475.776 Q401.9404 475.5494 402.2686 475.5494 Q402.5811 475.5494 402.8076 475.776 Q403.0342 476.0025 403.0342 476.3307 Q403.0342 476.6432 402.8154 476.8697 Q402.5967 477.0963 402.2686 477.0963 Q401.9404 477.0963 401.7139 476.8697 Q401.4873 476.6432 401.4873 476.3307 ZM403.0967 485.1275 L404.2842 485.1275 L404.2842 485.8463 L400.6279 485.8463 L400.6279 485.1275 L401.8311 485.1275 L401.8311 479.315 L400.6279 479.315 L400.6279 478.5807 L403.0967 478.5807 L403.0967 485.1275 ZM411.8086 483.6588 Q411.543 484.8307 410.7852 485.44 Q410.0273 486.0494 408.8242 486.0494 Q407.2305 486.0494 406.2695 484.9947 Q405.3086 483.94 405.3086 482.2057 Q405.3086 480.4713 406.2695 479.4244 Q407.2305 478.3775 408.8242 478.3775 Q409.5117 478.3775 410.1914 478.5416 Q410.8711 478.7057 411.5586 479.0338 L411.5586 480.8932 L410.8398 480.8932 Q410.6836 479.94 410.207 479.5025 Q409.7305 479.065 408.8242 479.065 Q407.8086 479.065 407.293 479.8541 Q406.7773 480.6432 406.7773 482.2057 Q406.7773 483.7838 407.293 484.5728 Q407.8086 485.3619 408.8242 485.3619 Q409.6367 485.3619 410.1289 484.94 Q410.6211 484.5182 410.793 483.6588 L411.8086 483.6588 ZM418.0244 483.565 L418.0244 482.0182 L416.3994 482.0182 Q415.4619 482.0182 415.001 482.4244 Q414.54 482.8307 414.54 483.6588 Q414.54 484.4244 415.0088 484.8697 Q415.4775 485.315 416.2744 485.315 Q417.0557 485.315 417.54 484.8307 Q418.0244 484.3463 418.0244 483.565 ZM419.2744 481.2994 L419.2744 485.1275 L420.3994 485.1275 L420.3994 485.8463 L418.0244 485.8463 L418.0244 485.065 Q417.6025 485.565 417.0557 485.8072 Q416.5088 486.0494 415.7744 486.0494 Q414.5713 486.0494 413.8604 485.401 Q413.1494 484.7525 413.1494 483.6588 Q413.1494 482.5338 413.9619 481.9166 Q414.7744 481.2994 416.2588 481.2994 L418.0244 481.2994 L418.0244 480.7994 Q418.0244 479.9713 417.5166 479.5182 Q417.0088 479.065 416.1025 479.065 Q415.3525 479.065 414.9072 479.401 Q414.4619 479.7369 414.3525 480.4088 L413.7119 480.4088 L413.7119 478.94 Q414.3682 478.6588 414.9854 478.5182 Q415.6025 478.3775 416.1807 478.3775 Q417.6963 478.3775 418.4854 479.1275 Q419.2744 479.8775 419.2744 481.2994 ZM421.5742 485.44 L421.5742 483.7525 L422.3086 483.7525 Q422.3242 484.565 422.8086 484.9635 Q423.293 485.3619 424.2461 485.3619 Q425.0898 485.3619 425.5352 485.0494 Q425.9805 484.7369 425.9805 484.1275 Q425.9805 483.6432 425.6523 483.3463 Q425.3242 483.0494 424.2773 482.7213 L423.3711 482.4088 Q422.4336 482.1119 422.0117 481.6588 Q421.5898 481.2057 421.5898 480.5182 Q421.5898 479.5182 422.3242 478.9478 Q423.0586 478.3775 424.3555 478.3775 Q424.918 478.3775 425.5586 478.526 Q426.1992 478.6744 426.8711 478.9713 L426.8711 480.5494 L426.1523 480.5494 Q426.1211 479.8463 425.6523 479.4557 Q425.1836 479.065 424.3867 479.065 Q423.5898 479.065 423.1836 479.3385 Q422.7773 479.6119 422.7773 480.1744 Q422.7773 480.6432 423.0898 480.9166 Q423.4023 481.19 424.3242 481.4713 L425.3242 481.7838 Q426.3555 482.1119 426.8086 482.5885 Q427.2617 483.065 427.2617 483.8307 Q427.2617 484.8619 426.4727 485.4557 Q425.6836 486.0494 424.293 486.0494 Q423.5898 486.0494 422.918 485.8932 Q422.2461 485.7369 421.5742 485.44 ZM433.209 485.44 L433.209 483.7525 L433.9434 483.7525 Q433.959 484.565 434.4434 484.9635 Q434.9277 485.3619 435.8809 485.3619 Q436.7246 485.3619 437.1699 485.0494 Q437.6152 484.7369 437.6152 484.1275 Q437.6152 483.6432 437.2871 483.3463 Q436.959 483.0494 435.9121 482.7213 L435.0059 482.4088 Q434.0684 482.1119 433.6465 481.6588 Q433.2246 481.2057 433.2246 480.5182 Q433.2246 479.5182 433.959 478.9478 Q434.6934 478.3775 435.9902 478.3775 Q436.5527 478.3775 437.1934 478.526 Q437.834 478.6744 438.5059 478.9713 L438.5059 480.5494 L437.7871 480.5494 Q437.7559 479.8463 437.2871 479.4557 Q436.8184 479.065 436.0215 479.065 Q435.2246 479.065 434.8184 479.3385 Q434.4121 479.6119 434.4121 480.1744 Q434.4121 480.6432 434.7246 480.9166 Q435.0371 481.19 435.959 481.4713 L436.959 481.7838 Q437.9902 482.1119 438.4434 482.5885 Q438.8965 483.065 438.8965 483.8307 Q438.8965 484.8619 438.1074 485.4557 Q437.3184 486.0494 435.9277 486.0494 Q435.2246 486.0494 434.5527 485.8932 Q433.8809 485.7369 433.209 485.44 ZM443.8311 485.3619 Q444.8311 485.3619 445.3467 484.565 Q445.8623 483.7682 445.8623 482.2057 Q445.8623 480.6432 445.3467 479.8541 Q444.8311 479.065 443.8311 479.065 Q442.8154 479.065 442.2998 479.8541 Q441.7842 480.6432 441.7842 482.2057 Q441.7842 483.7682 442.2998 484.565 Q442.8154 485.3619 443.8311 485.3619 ZM443.8311 486.0494 Q442.2373 486.0494 441.2764 484.9947 Q440.3154 483.94 440.3154 482.2057 Q440.3154 480.4713 441.2764 479.4244 Q442.2373 478.3775 443.8311 478.3775 Q445.4092 478.3775 446.3701 479.4244 Q447.3311 480.4713 447.3311 482.2057 Q447.3311 483.94 446.3701 484.9947 Q445.4092 486.0494 443.8311 486.0494 ZM449.6504 485.1275 L449.6504 475.94 L448.4473 475.94 L448.4473 475.2057 L450.916 475.2057 L450.916 479.7213 Q451.2754 479.0338 451.8457 478.7057 Q452.416 478.3775 453.2598 478.3775 Q454.6035 478.3775 455.4551 479.44 Q456.3066 480.5025 456.3066 482.2057 Q456.3066 483.9244 455.4551 484.9869 Q454.6035 486.0494 453.2598 486.0494 Q452.416 486.0494 451.8457 485.7213 Q451.2754 485.3932 450.916 484.7057 L450.916 485.8463 L448.4473 485.8463 L448.4473 485.1275 L449.6504 485.1275 ZM450.916 482.565 Q450.916 483.8775 451.416 484.565 Q451.916 485.2525 452.8691 485.2525 Q453.8379 485.2525 454.3301 484.4791 Q454.8223 483.7057 454.8223 482.2057 Q454.8223 480.7057 454.3301 479.94 Q453.8379 479.1744 452.8691 479.1744 Q451.916 479.1744 451.416 479.8619 Q450.916 480.5494 450.916 481.8463 L450.916 482.565 ZM463.6904 478.565 L463.6904 480.3775 L462.9717 480.3775 Q462.9404 479.8463 462.6748 479.5807 Q462.4092 479.315 461.8936 479.315 Q460.9561 479.315 460.4639 479.9557 Q459.9717 480.5963 459.9717 481.7994 L459.9717 485.1275 L461.4248 485.1275 L461.4248 485.8463 L457.5811 485.8463 L457.5811 485.1275 L458.7061 485.1275 L458.7061 479.2994 L457.5029 479.2994 L457.5029 478.5807 L459.9717 478.5807 L459.9717 479.8775 Q460.3467 479.1119 460.9248 478.7447 Q461.5029 478.3775 462.3311 478.3775 Q462.6436 478.3775 462.9795 478.4244 Q463.3154 478.4713 463.6904 478.565 ZM471.2891 482.3463 L465.8672 482.3463 L465.8672 482.3932 Q465.8672 483.8775 466.4219 484.6197 Q466.9766 485.3619 468.0547 485.3619 Q468.8828 485.3619 469.4062 484.9322 Q469.9297 484.5025 470.1484 483.6432 L471.1641 483.6432 Q470.8672 484.8463 470.0547 485.4478 Q469.2422 486.0494 467.9141 486.0494 Q466.3203 486.0494 465.3594 484.9947 Q464.3984 483.94 464.3984 482.2057 Q464.3984 480.4869 465.3438 479.4322 Q466.2891 478.3775 467.8359 478.3775 Q469.4922 478.3775 470.3672 479.3932 Q471.2422 480.4088 471.2891 482.3463 ZM469.8047 481.6275 Q469.7578 480.3463 469.2656 479.7057 Q468.7734 479.065 467.8359 479.065 Q466.9766 479.065 466.4766 479.7135 Q465.9766 480.3619 465.8672 481.6275 L469.8047 481.6275 ZM473.4336 485.1275 Q473.4336 484.7525 473.6992 484.4869 Q473.9648 484.2213 474.3398 484.2213 Q474.7305 484.2213 474.9961 484.4869 Q475.2617 484.7525 475.2617 485.1275 Q475.2617 485.5182 474.9961 485.7838 Q474.7305 486.0494 474.3398 486.0494 Q473.9492 486.0494 473.6914 485.7838 Q473.4336 485.5182 473.4336 485.1275 ZM473.4336 480.6744 Q473.4336 480.2994 473.6992 480.0338 Q473.9648 479.7682 474.3398 479.7682 Q474.7305 479.7682 474.9961 480.026 Q475.2617 480.2838 475.2617 480.6744 Q475.2617 481.065 474.9961 481.3228 Q474.7305 481.5807 474.3398 481.5807 Q473.9648 481.5807 473.6992 481.3228 Q473.4336 481.065 473.4336 480.6744 Z" stroke="none" clip-path="url(#clipPath3)"/>
      <path d="M273.2812 497.8619 L276.7812 497.8619 L276.7812 498.9244 L273.2812 498.9244 L273.2812 497.8619 ZM285.3057 501.4244 L286.6182 501.4244 L286.6182 502.1432 L282.6182 502.1432 L282.6182 501.4244 L283.9307 501.4244 L283.9307 492.6744 L282.6182 492.6744 L282.6182 491.94 L286.6182 491.94 L286.6182 492.6744 L285.3057 492.6744 L285.3057 501.4244 ZM287.9609 502.1432 L287.9609 501.4244 L289.0859 501.4244 L289.0859 495.6119 L287.8828 495.6119 L287.8828 494.8775 L290.3516 494.8775 L290.3516 496.1744 Q290.6953 495.4244 291.2578 495.0494 Q291.8203 494.6744 292.5547 494.6744 Q293.7578 494.6744 294.3203 495.3697 Q294.8828 496.065 294.8828 497.5182 L294.8828 501.4244 L296.0078 501.4244 L296.0078 502.1432 L292.5391 502.1432 L292.5391 501.4244 L293.6172 501.4244 L293.6172 497.9244 Q293.6172 496.5807 293.2891 496.0885 Q292.9609 495.5963 292.1484 495.5963 Q291.2734 495.5963 290.8125 496.2369 Q290.3516 496.8775 290.3516 498.0963 L290.3516 501.4244 L291.4453 501.4244 L291.4453 502.1432 L287.9609 502.1432 ZM297.1807 501.7369 L297.1807 500.0494 L297.915 500.0494 Q297.9307 500.8619 298.415 501.2603 Q298.8994 501.6588 299.8525 501.6588 Q300.6963 501.6588 301.1416 501.3463 Q301.5869 501.0338 301.5869 500.4244 Q301.5869 499.94 301.2588 499.6432 Q300.9307 499.3463 299.8838 499.0182 L298.9775 498.7057 Q298.04 498.4088 297.6182 497.9557 Q297.1963 497.5025 297.1963 496.815 Q297.1963 495.815 297.9307 495.2447 Q298.665 494.6744 299.9619 494.6744 Q300.5244 494.6744 301.165 494.8228 Q301.8057 494.9713 302.4775 495.2682 L302.4775 496.8463 L301.7588 496.8463 Q301.7275 496.1432 301.2588 495.7525 Q300.79 495.3619 299.9932 495.3619 Q299.1963 495.3619 298.79 495.6353 Q298.3838 495.9088 298.3838 496.4713 Q298.3838 496.94 298.6963 497.2135 Q299.0088 497.4869 299.9307 497.7682 L300.9307 498.0807 Q301.9619 498.4088 302.415 498.8853 Q302.8682 499.3619 302.8682 500.1275 Q302.8682 501.1588 302.0791 501.7525 Q301.29 502.3463 299.8994 502.3463 Q299.1963 502.3463 298.5244 502.19 Q297.8525 502.0338 297.1807 501.7369 ZM305.0996 495.6119 L303.9902 495.6119 L303.9902 494.8775 L305.0996 494.8775 L305.0996 492.6275 L306.3652 492.6275 L306.3652 494.8775 L308.7246 494.8775 L308.7246 495.6119 L306.3652 495.6119 L306.3652 500.2213 Q306.3652 501.1432 306.5371 501.401 Q306.709 501.6588 307.1934 501.6588 Q307.6934 501.6588 307.9121 501.3697 Q308.1309 501.0807 308.1465 500.44 L309.0996 500.44 Q309.0527 501.4244 308.5605 501.8853 Q308.0684 502.3463 307.084 502.3463 Q305.9902 502.3463 305.5449 501.8619 Q305.0996 501.3775 305.0996 500.2213 L305.0996 495.6119 ZM314.7881 499.8619 L314.7881 498.315 L313.1631 498.315 Q312.2256 498.315 311.7646 498.7213 Q311.3037 499.1275 311.3037 499.9557 Q311.3037 500.7213 311.7725 501.1666 Q312.2412 501.6119 313.0381 501.6119 Q313.8193 501.6119 314.3037 501.1275 Q314.7881 500.6432 314.7881 499.8619 ZM316.0381 497.5963 L316.0381 501.4244 L317.1631 501.4244 L317.1631 502.1432 L314.7881 502.1432 L314.7881 501.3619 Q314.3662 501.8619 313.8193 502.1041 Q313.2725 502.3463 312.5381 502.3463 Q311.335 502.3463 310.624 501.6978 Q309.9131 501.0494 309.9131 499.9557 Q309.9131 498.8307 310.7256 498.2135 Q311.5381 497.5963 313.0225 497.5963 L314.7881 497.5963 L314.7881 497.0963 Q314.7881 496.2682 314.2803 495.815 Q313.7725 495.3619 312.8662 495.3619 Q312.1162 495.3619 311.6709 495.6978 Q311.2256 496.0338 311.1162 496.7057 L310.4756 496.7057 L310.4756 495.2369 Q311.1318 494.9557 311.749 494.815 Q312.3662 494.6744 312.9443 494.6744 Q314.46 494.6744 315.249 495.4244 Q316.0381 496.1744 316.0381 497.5963 ZM320.4316 501.4244 L321.6191 501.4244 L321.6191 502.1432 L317.9629 502.1432 L317.9629 501.4244 L319.166 501.4244 L319.166 492.2369 L317.9629 492.2369 L317.9629 491.5025 L320.4316 491.5025 L320.4316 501.4244 ZM327.6123 499.8619 L327.6123 498.315 L325.9873 498.315 Q325.0498 498.315 324.5889 498.7213 Q324.1279 499.1275 324.1279 499.9557 Q324.1279 500.7213 324.5967 501.1666 Q325.0654 501.6119 325.8623 501.6119 Q326.6436 501.6119 327.1279 501.1275 Q327.6123 500.6432 327.6123 499.8619 ZM328.8623 497.5963 L328.8623 501.4244 L329.9873 501.4244 L329.9873 502.1432 L327.6123 502.1432 L327.6123 501.3619 Q327.1904 501.8619 326.6436 502.1041 Q326.0967 502.3463 325.3623 502.3463 Q324.1592 502.3463 323.4482 501.6978 Q322.7373 501.0494 322.7373 499.9557 Q322.7373 498.8307 323.5498 498.2135 Q324.3623 497.5963 325.8467 497.5963 L327.6123 497.5963 L327.6123 497.0963 Q327.6123 496.2682 327.1045 495.815 Q326.5967 495.3619 325.6904 495.3619 Q324.9404 495.3619 324.4951 495.6978 Q324.0498 496.0338 323.9404 496.7057 L323.2998 496.7057 L323.2998 495.2369 Q323.9561 494.9557 324.5732 494.815 Q325.1904 494.6744 325.7686 494.6744 Q327.2842 494.6744 328.0732 495.4244 Q328.8623 496.1744 328.8623 497.5963 ZM337.584 499.9557 Q337.3184 501.1275 336.5605 501.7369 Q335.8027 502.3463 334.5996 502.3463 Q333.0059 502.3463 332.0449 501.2916 Q331.084 500.2369 331.084 498.5025 Q331.084 496.7682 332.0449 495.7213 Q333.0059 494.6744 334.5996 494.6744 Q335.2871 494.6744 335.9668 494.8385 Q336.6465 495.0025 337.334 495.3307 L337.334 497.19 L336.6152 497.19 Q336.459 496.2369 335.9824 495.7994 Q335.5059 495.3619 334.5996 495.3619 Q333.584 495.3619 333.0684 496.151 Q332.5527 496.94 332.5527 498.5025 Q332.5527 500.0807 333.0684 500.8697 Q333.584 501.6588 334.5996 501.6588 Q335.4121 501.6588 335.9043 501.2369 Q336.3965 500.815 336.5684 499.9557 L337.584 499.9557 ZM339.5811 492.6275 Q339.5811 492.2994 339.8076 492.0728 Q340.0342 491.8463 340.3623 491.8463 Q340.6748 491.8463 340.9014 492.0728 Q341.1279 492.2994 341.1279 492.6275 Q341.1279 492.94 340.9092 493.1666 Q340.6904 493.3932 340.3623 493.3932 Q340.0342 493.3932 339.8076 493.1666 Q339.5811 492.94 339.5811 492.6275 ZM341.1904 501.4244 L342.3779 501.4244 L342.3779 502.1432 L338.7217 502.1432 L338.7217 501.4244 L339.9248 501.4244 L339.9248 495.6119 L338.7217 495.6119 L338.7217 494.8775 L341.1904 494.8775 L341.1904 501.4244 ZM346.918 501.6588 Q347.918 501.6588 348.4336 500.8619 Q348.9492 500.065 348.9492 498.5025 Q348.9492 496.94 348.4336 496.151 Q347.918 495.3619 346.918 495.3619 Q345.9023 495.3619 345.3867 496.151 Q344.8711 496.94 344.8711 498.5025 Q344.8711 500.065 345.3867 500.8619 Q345.9023 501.6588 346.918 501.6588 ZM346.918 502.3463 Q345.3242 502.3463 344.3633 501.2916 Q343.4023 500.2369 343.4023 498.5025 Q343.4023 496.7682 344.3633 495.7213 Q345.3242 494.6744 346.918 494.6744 Q348.4961 494.6744 349.457 495.7213 Q350.418 496.7682 350.418 498.5025 Q350.418 500.2369 349.457 501.2916 Q348.4961 502.3463 346.918 502.3463 ZM348.1523 490.94 L349.5117 490.94 L347.1836 493.5182 L346.3867 493.5182 L348.1523 490.94 ZM351.7061 502.1432 L351.7061 501.4244 L352.8311 501.4244 L352.8311 495.6119 L351.6279 495.6119 L351.6279 494.8775 L354.0967 494.8775 L354.0967 496.1744 Q354.4404 495.4244 355.0029 495.0494 Q355.5654 494.6744 356.2998 494.6744 Q357.5029 494.6744 358.0654 495.3697 Q358.6279 496.065 358.6279 497.5182 L358.6279 501.4244 L359.7529 501.4244 L359.7529 502.1432 L356.2842 502.1432 L356.2842 501.4244 L357.3623 501.4244 L357.3623 497.9244 Q357.3623 496.5807 357.0342 496.0885 Q356.7061 495.5963 355.8936 495.5963 Q355.0186 495.5963 354.5576 496.2369 Q354.0967 496.8775 354.0967 498.0963 L354.0967 501.4244 L355.1904 501.4244 L355.1904 502.1432 L351.7061 502.1432 ZM369.5479 494.8775 L371.9072 494.8775 L371.9072 501.4244 L373.0947 501.4244 L373.0947 502.1432 L370.6416 502.1432 L370.6416 500.8619 Q370.2979 501.5807 369.7432 501.9635 Q369.1885 502.3463 368.4541 502.3463 Q367.251 502.3463 366.6807 501.6588 Q366.1104 500.9713 366.1104 499.5025 L366.1104 495.6119 L364.9697 495.6119 L364.9697 494.8775 L367.376 494.8775 L367.376 499.1119 Q367.376 500.44 367.6963 500.9322 Q368.0166 501.4244 368.8604 501.4244 Q369.7354 501.4244 370.1885 500.776 Q370.6416 500.1275 370.6416 498.9088 L370.6416 495.6119 L369.5479 495.6119 L369.5479 494.8775 ZM375.2207 501.4244 L375.2207 492.2369 L374.0176 492.2369 L374.0176 491.5025 L376.4863 491.5025 L376.4863 496.0182 Q376.8457 495.3307 377.416 495.0025 Q377.9863 494.6744 378.8301 494.6744 Q380.1738 494.6744 381.0254 495.7369 Q381.877 496.7994 381.877 498.5025 Q381.877 500.2213 381.0254 501.2838 Q380.1738 502.3463 378.8301 502.3463 Q377.9863 502.3463 377.416 502.0182 Q376.8457 501.69 376.4863 501.0025 L376.4863 502.1432 L374.0176 502.1432 L374.0176 501.4244 L375.2207 501.4244 ZM376.4863 498.8619 Q376.4863 500.1744 376.9863 500.8619 Q377.4863 501.5494 378.4395 501.5494 Q379.4082 501.5494 379.9004 500.776 Q380.3926 500.0025 380.3926 498.5025 Q380.3926 497.0025 379.9004 496.2369 Q379.4082 495.4713 378.4395 495.4713 Q377.4863 495.4713 376.9863 496.1588 Q376.4863 496.8463 376.4863 498.1432 L376.4863 498.8619 ZM387.5264 494.8775 L389.8857 494.8775 L389.8857 501.4244 L391.0732 501.4244 L391.0732 502.1432 L388.6201 502.1432 L388.6201 500.8619 Q388.2764 501.5807 387.7217 501.9635 Q387.167 502.3463 386.4326 502.3463 Q385.2295 502.3463 384.6592 501.6588 Q384.0889 500.9713 384.0889 499.5025 L384.0889 495.6119 L382.9482 495.6119 L382.9482 494.8775 L385.3545 494.8775 L385.3545 499.1119 Q385.3545 500.44 385.6748 500.9322 Q385.9951 501.4244 386.8389 501.4244 Q387.7139 501.4244 388.167 500.776 Q388.6201 500.1275 388.6201 498.9088 L388.6201 495.6119 L387.5264 495.6119 L387.5264 494.8775 ZM392.168 502.1432 L392.168 501.4244 L393.293 501.4244 L393.293 495.6119 L392.0898 495.6119 L392.0898 494.8775 L394.5586 494.8775 L394.5586 496.1744 Q394.9023 495.4244 395.4648 495.0494 Q396.0273 494.6744 396.7617 494.6744 Q397.9648 494.6744 398.5273 495.3697 Q399.0898 496.065 399.0898 497.5182 L399.0898 501.4244 L400.2148 501.4244 L400.2148 502.1432 L396.7461 502.1432 L396.7461 501.4244 L397.8242 501.4244 L397.8242 497.9244 Q397.8242 496.5807 397.4961 496.0885 Q397.168 495.5963 396.3555 495.5963 Q395.4805 495.5963 395.0195 496.2369 Q394.5586 496.8775 394.5586 498.0963 L394.5586 501.4244 L395.6523 501.4244 L395.6523 502.1432 L392.168 502.1432 ZM402.1221 495.6119 L401.0127 495.6119 L401.0127 494.8775 L402.1221 494.8775 L402.1221 492.6275 L403.3877 492.6275 L403.3877 494.8775 L405.7471 494.8775 L405.7471 495.6119 L403.3877 495.6119 L403.3877 500.2213 Q403.3877 501.1432 403.5596 501.401 Q403.7314 501.6588 404.2158 501.6588 Q404.7158 501.6588 404.9346 501.3697 Q405.1533 501.0807 405.1689 500.44 L406.1221 500.44 Q406.0752 501.4244 405.583 501.8853 Q405.0908 502.3463 404.1064 502.3463 Q403.0127 502.3463 402.5674 501.8619 Q402.1221 501.3775 402.1221 500.2213 L402.1221 495.6119 ZM411.1855 494.8775 L413.5449 494.8775 L413.5449 501.4244 L414.7324 501.4244 L414.7324 502.1432 L412.2793 502.1432 L412.2793 500.8619 Q411.9355 501.5807 411.3809 501.9635 Q410.8262 502.3463 410.0918 502.3463 Q408.8887 502.3463 408.3184 501.6588 Q407.748 500.9713 407.748 499.5025 L407.748 495.6119 L406.6074 495.6119 L406.6074 494.8775 L409.0137 494.8775 L409.0137 499.1119 Q409.0137 500.44 409.334 500.9322 Q409.6543 501.4244 410.498 501.4244 Q411.373 501.4244 411.8262 500.776 Q412.2793 500.1275 412.2793 498.9088 L412.2793 495.6119 L411.1855 495.6119 L411.1855 494.8775 ZM421.6836 502.1432 L421.6836 501.4244 L423.4648 501.4244 L423.4648 492.9244 L421.4023 494.2682 L421.4023 493.3619 L423.9023 491.7525 L424.8398 491.7525 L424.8398 501.4244 L426.6211 501.4244 L426.6211 502.1432 L421.6836 502.1432 ZM433.4971 498.69 L433.4971 493.2525 L430.0127 498.69 L433.4971 498.69 ZM436.4971 502.1432 L431.8564 502.1432 L431.8564 501.4244 L433.4971 501.4244 L433.4971 499.4088 L429.0439 499.4088 L429.0439 498.6744 L433.5127 491.7525 L434.8564 491.7525 L434.8564 498.69 L436.8096 498.69 L436.8096 499.4088 L434.8564 499.4088 L434.8564 501.4244 L436.4971 501.4244 L436.4971 502.1432 ZM444.9795 503.4713 L445.4639 502.2682 L442.7451 495.6119 L441.917 495.6119 L441.917 494.8775 L445.2607 494.8775 L445.2607 495.6119 L444.1045 495.6119 L446.1514 500.6119 L448.1982 495.6119 L447.1045 495.6119 L447.1045 494.8775 L449.8389 494.8775 L449.8389 495.6119 L449.0264 495.6119 L445.6826 503.7838 Q445.3545 504.6275 444.9326 504.94 Q444.5107 505.2525 443.7607 505.2525 Q443.4326 505.2525 443.0967 505.1978 Q442.7607 505.1432 442.417 505.0494 L442.417 503.6588 L443.0576 503.6588 Q443.1045 504.1119 443.2998 504.315 Q443.4951 504.5182 443.9014 504.5182 Q444.2764 504.5182 444.5029 504.315 Q444.7295 504.1119 444.9795 503.4713 ZM456.3076 502.1432 L456.3076 501.4244 L458.0889 501.4244 L458.0889 492.9244 L456.0264 494.2682 L456.0264 493.3619 L458.5264 491.7525 L459.4639 491.7525 L459.4639 501.4244 L461.2451 501.4244 L461.2451 502.1432 L456.3076 502.1432 ZM469.7461 499.3463 Q469.7461 498.2525 469.207 497.651 Q468.668 497.0494 467.6836 497.0494 Q466.6992 497.0494 466.1523 497.651 Q465.6055 498.2525 465.6055 499.3463 Q465.6055 500.4557 466.1523 501.0572 Q466.6992 501.6588 467.6836 501.6588 Q468.668 501.6588 469.207 501.0572 Q469.7461 500.4557 469.7461 499.3463 ZM469.4648 494.3932 Q469.4648 493.4713 468.9961 492.9478 Q468.5273 492.4244 467.6836 492.4244 Q466.8398 492.4244 466.3633 492.9478 Q465.8867 493.4713 465.8867 494.3932 Q465.8867 495.3307 466.3633 495.8541 Q466.8398 496.3775 467.6836 496.3775 Q468.5273 496.3775 468.9961 495.8541 Q469.4648 495.3307 469.4648 494.3932 ZM468.7305 496.7057 Q469.9023 496.8619 470.5508 497.565 Q471.1992 498.2682 471.1992 499.3463 Q471.1992 500.7838 470.2852 501.565 Q469.3711 502.3463 467.6836 502.3463 Q465.9961 502.3463 465.082 501.565 Q464.168 500.7838 464.168 499.3463 Q464.168 498.2682 464.8164 497.565 Q465.4648 496.8619 466.6367 496.7057 Q465.6055 496.5182 465.0508 495.9244 Q464.4961 495.3307 464.4961 494.3932 Q464.4961 493.1744 465.3477 492.4635 Q466.1992 491.7525 467.6836 491.7525 Q469.168 491.7525 470.0117 492.4635 Q470.8555 493.1744 470.8555 494.3932 Q470.8555 495.3307 470.3086 495.9244 Q469.7617 496.5182 468.7305 496.7057 ZM473.4502 501.4244 Q473.4502 501.0494 473.7158 500.7838 Q473.9814 500.5182 474.3721 500.5182 Q474.7471 500.5182 475.0127 500.7838 Q475.2783 501.0494 475.2783 501.4244 Q475.2783 501.815 475.0127 502.0807 Q474.7471 502.3463 474.3721 502.3463 Q473.9814 502.3463 473.7158 502.0807 Q473.4502 501.815 473.4502 501.4244 Z" clip-path="url(#clipPath3)" stroke="none"/>
      <path d="M273.2812 514.1588 L276.7812 514.1588 L276.7812 515.2213 L273.2812 515.2213 L273.2812 514.1588 ZM285.3057 517.7213 L286.6182 517.7213 L286.6182 518.4401 L282.6182 518.4401 L282.6182 517.7213 L283.9307 517.7213 L283.9307 508.9713 L282.6182 508.9713 L282.6182 508.2369 L286.6182 508.2369 L286.6182 508.9713 L285.3057 508.9713 L285.3057 517.7213 ZM287.9609 518.4401 L287.9609 517.7213 L289.0859 517.7213 L289.0859 511.9088 L287.8828 511.9088 L287.8828 511.1744 L290.3516 511.1744 L290.3516 512.4713 Q290.6953 511.7213 291.2578 511.3463 Q291.8203 510.9713 292.5547 510.9713 Q293.7578 510.9713 294.3203 511.6666 Q294.8828 512.3619 294.8828 513.8151 L294.8828 517.7213 L296.0078 517.7213 L296.0078 518.4401 L292.5391 518.4401 L292.5391 517.7213 L293.6172 517.7213 L293.6172 514.2213 Q293.6172 512.8776 293.2891 512.3854 Q292.9609 511.8932 292.1484 511.8932 Q291.2734 511.8932 290.8125 512.5338 Q290.3516 513.1744 290.3516 514.3932 L290.3516 517.7213 L291.4453 517.7213 L291.4453 518.4401 L287.9609 518.4401 ZM297.1807 518.0338 L297.1807 516.3463 L297.915 516.3463 Q297.9307 517.1588 298.415 517.5573 Q298.8994 517.9557 299.8525 517.9557 Q300.6963 517.9557 301.1416 517.6432 Q301.5869 517.3307 301.5869 516.7213 Q301.5869 516.2369 301.2588 515.9401 Q300.9307 515.6432 299.8838 515.3151 L298.9775 515.0026 Q298.04 514.7057 297.6182 514.2526 Q297.1963 513.7994 297.1963 513.1119 Q297.1963 512.1119 297.9307 511.5416 Q298.665 510.9713 299.9619 510.9713 Q300.5244 510.9713 301.165 511.1198 Q301.8057 511.2682 302.4775 511.5651 L302.4775 513.1432 L301.7588 513.1432 Q301.7275 512.4401 301.2588 512.0494 Q300.79 511.6588 299.9932 511.6588 Q299.1963 511.6588 298.79 511.9323 Q298.3838 512.2057 298.3838 512.7682 Q298.3838 513.2369 298.6963 513.5104 Q299.0088 513.7838 299.9307 514.0651 L300.9307 514.3776 Q301.9619 514.7057 302.415 515.1823 Q302.8682 515.6588 302.8682 516.4244 Q302.8682 517.4557 302.0791 518.0494 Q301.29 518.6432 299.8994 518.6432 Q299.1963 518.6432 298.5244 518.4869 Q297.8525 518.3307 297.1807 518.0338 ZM305.0996 511.9088 L303.9902 511.9088 L303.9902 511.1744 L305.0996 511.1744 L305.0996 508.9244 L306.3652 508.9244 L306.3652 511.1744 L308.7246 511.1744 L308.7246 511.9088 L306.3652 511.9088 L306.3652 516.5182 Q306.3652 517.4401 306.5371 517.6979 Q306.709 517.9557 307.1934 517.9557 Q307.6934 517.9557 307.9121 517.6666 Q308.1309 517.3776 308.1465 516.7369 L309.0996 516.7369 Q309.0527 517.7213 308.5605 518.1823 Q308.0684 518.6432 307.084 518.6432 Q305.9902 518.6432 305.5449 518.1588 Q305.0996 517.6744 305.0996 516.5182 L305.0996 511.9088 ZM314.7881 516.1588 L314.7881 514.6119 L313.1631 514.6119 Q312.2256 514.6119 311.7646 515.0182 Q311.3037 515.4244 311.3037 516.2526 Q311.3037 517.0182 311.7725 517.4635 Q312.2412 517.9088 313.0381 517.9088 Q313.8193 517.9088 314.3037 517.4244 Q314.7881 516.9401 314.7881 516.1588 ZM316.0381 513.8932 L316.0381 517.7213 L317.1631 517.7213 L317.1631 518.4401 L314.7881 518.4401 L314.7881 517.6588 Q314.3662 518.1588 313.8193 518.401 Q313.2725 518.6432 312.5381 518.6432 Q311.335 518.6432 310.624 517.9948 Q309.9131 517.3463 309.9131 516.2526 Q309.9131 515.1276 310.7256 514.5104 Q311.5381 513.8932 313.0225 513.8932 L314.7881 513.8932 L314.7881 513.3932 Q314.7881 512.5651 314.2803 512.1119 Q313.7725 511.6588 312.8662 511.6588 Q312.1162 511.6588 311.6709 511.9948 Q311.2256 512.3307 311.1162 513.0026 L310.4756 513.0026 L310.4756 511.5338 Q311.1318 511.2526 311.749 511.1119 Q312.3662 510.9713 312.9443 510.9713 Q314.46 510.9713 315.249 511.7213 Q316.0381 512.4713 316.0381 513.8932 ZM320.4316 517.7213 L321.6191 517.7213 L321.6191 518.4401 L317.9629 518.4401 L317.9629 517.7213 L319.166 517.7213 L319.166 508.5338 L317.9629 508.5338 L317.9629 507.7994 L320.4316 507.7994 L320.4316 517.7213 ZM327.6123 516.1588 L327.6123 514.6119 L325.9873 514.6119 Q325.0498 514.6119 324.5889 515.0182 Q324.1279 515.4244 324.1279 516.2526 Q324.1279 517.0182 324.5967 517.4635 Q325.0654 517.9088 325.8623 517.9088 Q326.6436 517.9088 327.1279 517.4244 Q327.6123 516.9401 327.6123 516.1588 ZM328.8623 513.8932 L328.8623 517.7213 L329.9873 517.7213 L329.9873 518.4401 L327.6123 518.4401 L327.6123 517.6588 Q327.1904 518.1588 326.6436 518.401 Q326.0967 518.6432 325.3623 518.6432 Q324.1592 518.6432 323.4482 517.9948 Q322.7373 517.3463 322.7373 516.2526 Q322.7373 515.1276 323.5498 514.5104 Q324.3623 513.8932 325.8467 513.8932 L327.6123 513.8932 L327.6123 513.3932 Q327.6123 512.5651 327.1045 512.1119 Q326.5967 511.6588 325.6904 511.6588 Q324.9404 511.6588 324.4951 511.9948 Q324.0498 512.3307 323.9404 513.0026 L323.2998 513.0026 L323.2998 511.5338 Q323.9561 511.2526 324.5732 511.1119 Q325.1904 510.9713 325.7686 510.9713 Q327.2842 510.9713 328.0732 511.7213 Q328.8623 512.4713 328.8623 513.8932 ZM337.584 516.2526 Q337.3184 517.4244 336.5605 518.0338 Q335.8027 518.6432 334.5996 518.6432 Q333.0059 518.6432 332.0449 517.5885 Q331.084 516.5338 331.084 514.7994 Q331.084 513.0651 332.0449 512.0182 Q333.0059 510.9713 334.5996 510.9713 Q335.2871 510.9713 335.9668 511.1354 Q336.6465 511.2994 337.334 511.6276 L337.334 513.4869 L336.6152 513.4869 Q336.459 512.5338 335.9824 512.0963 Q335.5059 511.6588 334.5996 511.6588 Q333.584 511.6588 333.0684 512.4479 Q332.5527 513.2369 332.5527 514.7994 Q332.5527 516.3776 333.0684 517.1666 Q333.584 517.9557 334.5996 517.9557 Q335.4121 517.9557 335.9043 517.5338 Q336.3965 517.1119 336.5684 516.2526 L337.584 516.2526 ZM339.5811 508.9244 Q339.5811 508.5963 339.8076 508.3698 Q340.0342 508.1432 340.3623 508.1432 Q340.6748 508.1432 340.9014 508.3698 Q341.1279 508.5963 341.1279 508.9244 Q341.1279 509.2369 340.9092 509.4635 Q340.6904 509.6901 340.3623 509.6901 Q340.0342 509.6901 339.8076 509.4635 Q339.5811 509.2369 339.5811 508.9244 ZM341.1904 517.7213 L342.3779 517.7213 L342.3779 518.4401 L338.7217 518.4401 L338.7217 517.7213 L339.9248 517.7213 L339.9248 511.9088 L338.7217 511.9088 L338.7217 511.1744 L341.1904 511.1744 L341.1904 517.7213 ZM346.918 517.9557 Q347.918 517.9557 348.4336 517.1588 Q348.9492 516.3619 348.9492 514.7994 Q348.9492 513.2369 348.4336 512.4479 Q347.918 511.6588 346.918 511.6588 Q345.9023 511.6588 345.3867 512.4479 Q344.8711 513.2369 344.8711 514.7994 Q344.8711 516.3619 345.3867 517.1588 Q345.9023 517.9557 346.918 517.9557 ZM346.918 518.6432 Q345.3242 518.6432 344.3633 517.5885 Q343.4023 516.5338 343.4023 514.7994 Q343.4023 513.0651 344.3633 512.0182 Q345.3242 510.9713 346.918 510.9713 Q348.4961 510.9713 349.457 512.0182 Q350.418 513.0651 350.418 514.7994 Q350.418 516.5338 349.457 517.5885 Q348.4961 518.6432 346.918 518.6432 ZM348.1523 507.2369 L349.5117 507.2369 L347.1836 509.8151 L346.3867 509.8151 L348.1523 507.2369 ZM351.7061 518.4401 L351.7061 517.7213 L352.8311 517.7213 L352.8311 511.9088 L351.6279 511.9088 L351.6279 511.1744 L354.0967 511.1744 L354.0967 512.4713 Q354.4404 511.7213 355.0029 511.3463 Q355.5654 510.9713 356.2998 510.9713 Q357.5029 510.9713 358.0654 511.6666 Q358.6279 512.3619 358.6279 513.8151 L358.6279 517.7213 L359.7529 517.7213 L359.7529 518.4401 L356.2842 518.4401 L356.2842 517.7213 L357.3623 517.7213 L357.3623 514.2213 Q357.3623 512.8776 357.0342 512.3854 Q356.7061 511.8932 355.8936 511.8932 Q355.0186 511.8932 354.5576 512.5338 Q354.0967 513.1744 354.0967 514.3932 L354.0967 517.7213 L355.1904 517.7213 L355.1904 518.4401 L351.7061 518.4401 ZM371.9385 517.7213 L373.1416 517.7213 L373.1416 518.4401 L370.6885 518.4401 L370.6885 517.2994 Q370.3135 517.9869 369.7432 518.3151 Q369.1729 518.6432 368.3291 518.6432 Q367.001 518.6432 366.1494 517.5807 Q365.2979 516.5182 365.2979 514.7994 Q365.2979 513.0963 366.1416 512.0338 Q366.9854 510.9713 368.3291 510.9713 Q369.1729 510.9713 369.7432 511.2994 Q370.3135 511.6276 370.6885 512.3151 L370.6885 508.5338 L369.501 508.5338 L369.501 507.7994 L371.9385 507.7994 L371.9385 517.7213 ZM370.6885 515.1588 L370.6885 514.4401 Q370.6885 513.1432 370.1885 512.4557 Q369.6885 511.7682 368.7197 511.7682 Q367.751 511.7682 367.2588 512.5338 Q366.7666 513.2994 366.7666 514.7994 Q366.7666 516.2994 367.2588 517.0729 Q367.751 517.8463 368.7197 517.8463 Q369.6885 517.8463 370.1885 517.1588 Q370.6885 516.4713 370.6885 515.1588 ZM381.1504 514.9401 L375.7285 514.9401 L375.7285 514.9869 Q375.7285 516.4713 376.2832 517.2135 Q376.8379 517.9557 377.916 517.9557 Q378.7441 517.9557 379.2676 517.526 Q379.791 517.0963 380.0098 516.2369 L381.0254 516.2369 Q380.7285 517.4401 379.916 518.0416 Q379.1035 518.6432 377.7754 518.6432 Q376.1816 518.6432 375.2207 517.5885 Q374.2598 516.5338 374.2598 514.7994 Q374.2598 513.0807 375.2051 512.026 Q376.1504 510.9713 377.6973 510.9713 Q379.3535 510.9713 380.2285 511.9869 Q381.1035 513.0026 381.1504 514.9401 ZM379.666 514.2213 Q379.6191 512.9401 379.127 512.2994 Q378.6348 511.6588 377.6973 511.6588 Q376.8379 511.6588 376.3379 512.3073 Q375.8379 512.9557 375.7285 514.2213 L379.666 514.2213 ZM396.167 515.7369 Q395.7139 517.1744 394.6514 517.9088 Q393.5889 518.6432 391.9639 518.6432 Q390.9639 518.6432 390.1045 518.2994 Q389.2451 517.9557 388.5889 517.2838 Q387.8232 516.5182 387.4482 515.5494 Q387.0732 514.5807 387.0732 513.3463 Q387.0732 510.9713 388.4482 509.5104 Q389.8232 508.0494 392.0732 508.0494 Q392.917 508.0494 393.8545 508.2682 Q394.792 508.4869 395.8857 508.9244 L395.8857 511.2838 L395.1045 511.2838 Q394.8545 510.0026 394.0967 509.3932 Q393.3389 508.7838 391.9639 508.7838 Q390.3232 508.7838 389.4873 509.9401 Q388.6514 511.0963 388.6514 513.3463 Q388.6514 515.5963 389.4873 516.7526 Q390.3232 517.9088 391.9639 517.9088 Q393.1045 517.9088 393.8389 517.3619 Q394.5732 516.8151 394.9014 515.7369 L396.167 515.7369 ZM404.5977 514.9401 L399.1758 514.9401 L399.1758 514.9869 Q399.1758 516.4713 399.7305 517.2135 Q400.2852 517.9557 401.3633 517.9557 Q402.1914 517.9557 402.7148 517.526 Q403.2383 517.0963 403.457 516.2369 L404.4727 516.2369 Q404.1758 517.4401 403.3633 518.0416 Q402.5508 518.6432 401.2227 518.6432 Q399.6289 518.6432 398.668 517.5885 Q397.707 516.5338 397.707 514.7994 Q397.707 513.0807 398.6523 512.026 Q399.5977 510.9713 401.1445 510.9713 Q402.8008 510.9713 403.6758 511.9869 Q404.5508 513.0026 404.5977 514.9401 ZM403.1133 514.2213 Q403.0664 512.9401 402.5742 512.2994 Q402.082 511.6588 401.1445 511.6588 Q400.2852 511.6588 399.7852 512.3073 Q399.2852 512.9557 399.1758 514.2213 L403.1133 514.2213 ZM405.8672 518.4401 L405.8672 517.7213 L406.9922 517.7213 L406.9922 511.9088 L405.7891 511.9088 L405.7891 511.1744 L408.2578 511.1744 L408.2578 512.4713 Q408.6016 511.7213 409.1641 511.3463 Q409.7266 510.9713 410.4609 510.9713 Q411.6641 510.9713 412.2266 511.6666 Q412.7891 512.3619 412.7891 513.8151 L412.7891 517.7213 L413.9141 517.7213 L413.9141 518.4401 L410.4453 518.4401 L410.4453 517.7213 L411.5234 517.7213 L411.5234 514.2213 Q411.5234 512.8776 411.1953 512.3854 Q410.8672 511.8932 410.0547 511.8932 Q409.1797 511.8932 408.7188 512.5338 Q408.2578 513.1744 408.2578 514.3932 L408.2578 517.7213 L409.3516 517.7213 L409.3516 518.4401 L405.8672 518.4401 ZM415.8213 511.9088 L414.7119 511.9088 L414.7119 511.1744 L415.8213 511.1744 L415.8213 508.9244 L417.0869 508.9244 L417.0869 511.1744 L419.4463 511.1744 L419.4463 511.9088 L417.0869 511.9088 L417.0869 516.5182 Q417.0869 517.4401 417.2588 517.6979 Q417.4307 517.9557 417.915 517.9557 Q418.415 517.9557 418.6338 517.6666 Q418.8525 517.3776 418.8682 516.7369 L419.8213 516.7369 Q419.7744 517.7213 419.2822 518.1823 Q418.79 518.6432 417.8057 518.6432 Q416.7119 518.6432 416.2666 518.1588 Q415.8213 517.6744 415.8213 516.5182 L415.8213 511.9088 ZM424.1504 517.9557 Q425.1504 517.9557 425.666 517.1588 Q426.1816 516.3619 426.1816 514.7994 Q426.1816 513.2369 425.666 512.4479 Q425.1504 511.6588 424.1504 511.6588 Q423.1348 511.6588 422.6191 512.4479 Q422.1035 513.2369 422.1035 514.7994 Q422.1035 516.3619 422.6191 517.1588 Q423.1348 517.9557 424.1504 517.9557 ZM424.1504 518.6432 Q422.5566 518.6432 421.5957 517.5885 Q420.6348 516.5338 420.6348 514.7994 Q420.6348 513.0651 421.5957 512.0182 Q422.5566 510.9713 424.1504 510.9713 Q425.7285 510.9713 426.6895 512.0182 Q427.6504 513.0651 427.6504 514.7994 Q427.6504 516.5338 426.6895 517.5885 Q425.7285 518.6432 424.1504 518.6432 ZM429.1416 518.0338 L429.1416 516.3463 L429.876 516.3463 Q429.8916 517.1588 430.376 517.5573 Q430.8604 517.9557 431.8135 517.9557 Q432.6572 517.9557 433.1025 517.6432 Q433.5479 517.3307 433.5479 516.7213 Q433.5479 516.2369 433.2197 515.9401 Q432.8916 515.6432 431.8447 515.3151 L430.9385 515.0026 Q430.001 514.7057 429.5791 514.2526 Q429.1572 513.7994 429.1572 513.1119 Q429.1572 512.1119 429.8916 511.5416 Q430.626 510.9713 431.9229 510.9713 Q432.4854 510.9713 433.126 511.1198 Q433.7666 511.2682 434.4385 511.5651 L434.4385 513.1432 L433.7197 513.1432 Q433.6885 512.4401 433.2197 512.0494 Q432.751 511.6588 431.9541 511.6588 Q431.1572 511.6588 430.751 511.9323 Q430.3447 512.2057 430.3447 512.7682 Q430.3447 513.2369 430.6572 513.5104 Q430.9697 513.7838 431.8916 514.0651 L432.8916 514.3776 Q433.9229 514.7057 434.376 515.1823 Q434.8291 515.6588 434.8291 516.4244 Q434.8291 517.4557 434.04 518.0494 Q433.251 518.6432 431.8604 518.6432 Q431.1572 518.6432 430.4854 518.4869 Q429.8135 518.3307 429.1416 518.0338 Z" clip-path="url(#clipPath3)" stroke="none"/>
      <path d="M273.2812 530.4557 L276.7812 530.4557 L276.7812 531.5182 L273.2812 531.5182 L273.2812 530.4557 ZM283.8213 525.2682 L282.5088 525.2682 L282.5088 524.5338 L286.5088 524.5338 L286.5088 525.2682 L285.1963 525.2682 L285.1963 530.5338 Q285.1963 532.4869 285.8369 533.2604 Q286.4775 534.0338 288.04 534.0338 Q289.6025 534.0338 290.2432 533.2604 Q290.8838 532.4869 290.8838 530.5338 L290.8838 525.2682 L289.5713 525.2682 L289.5713 524.5338 L293.0244 524.5338 L293.0244 525.2682 L291.7275 525.2682 L291.7275 530.6744 Q291.7275 533.0026 290.8291 533.9713 Q289.9307 534.9401 287.79 534.9401 Q285.6338 534.9401 284.7275 533.9635 Q283.8213 532.9869 283.8213 530.6744 L283.8213 525.2682 ZM294.4326 534.3307 L294.4326 532.6432 L295.167 532.6432 Q295.1826 533.4557 295.667 533.8541 Q296.1514 534.2526 297.1045 534.2526 Q297.9482 534.2526 298.3936 533.9401 Q298.8389 533.6276 298.8389 533.0182 Q298.8389 532.5338 298.5107 532.2369 Q298.1826 531.9401 297.1357 531.6119 L296.2295 531.2994 Q295.292 531.0026 294.8701 530.5494 Q294.4482 530.0963 294.4482 529.4088 Q294.4482 528.4088 295.1826 527.8385 Q295.917 527.2682 297.2139 527.2682 Q297.7764 527.2682 298.417 527.4166 Q299.0576 527.5651 299.7295 527.8619 L299.7295 529.4401 L299.0107 529.4401 Q298.9795 528.7369 298.5107 528.3463 Q298.042 527.9557 297.2451 527.9557 Q296.4482 527.9557 296.042 528.2291 Q295.6357 528.5026 295.6357 529.0651 Q295.6357 529.5338 295.9482 529.8073 Q296.2607 530.0807 297.1826 530.3619 L298.1826 530.6744 Q299.2139 531.0026 299.667 531.4791 Q300.1201 531.9557 300.1201 532.7213 Q300.1201 533.7526 299.3311 534.3463 Q298.542 534.9401 297.1514 534.9401 Q296.4482 534.9401 295.7764 534.7838 Q295.1045 534.6276 294.4326 534.3307 ZM305.0547 534.2526 Q306.0547 534.2526 306.5703 533.4557 Q307.0859 532.6588 307.0859 531.0963 Q307.0859 529.5338 306.5703 528.7448 Q306.0547 527.9557 305.0547 527.9557 Q304.0391 527.9557 303.5234 528.7448 Q303.0078 529.5338 303.0078 531.0963 Q303.0078 532.6588 303.5234 533.4557 Q304.0391 534.2526 305.0547 534.2526 ZM305.0547 534.9401 Q303.4609 534.9401 302.5 533.8854 Q301.5391 532.8307 301.5391 531.0963 Q301.5391 529.3619 302.5 528.3151 Q303.4609 527.2682 305.0547 527.2682 Q306.6328 527.2682 307.5938 528.3151 Q308.5547 529.3619 308.5547 531.0963 Q308.5547 532.8307 307.5938 533.8854 Q306.6328 534.9401 305.0547 534.9401 ZM321.0586 534.0182 L322.2617 534.0182 L322.2617 534.7369 L319.8086 534.7369 L319.8086 533.5963 Q319.4336 534.2838 318.8633 534.6119 Q318.293 534.9401 317.4492 534.9401 Q316.1211 534.9401 315.2695 533.8776 Q314.418 532.8151 314.418 531.0963 Q314.418 529.3932 315.2617 528.3307 Q316.1055 527.2682 317.4492 527.2682 Q318.293 527.2682 318.8633 527.5963 Q319.4336 527.9244 319.8086 528.6119 L319.8086 524.8307 L318.6211 524.8307 L318.6211 524.0963 L321.0586 524.0963 L321.0586 534.0182 ZM319.8086 531.4557 L319.8086 530.7369 Q319.8086 529.4401 319.3086 528.7526 Q318.8086 528.0651 317.8398 528.0651 Q316.8711 528.0651 316.3789 528.8307 Q315.8867 529.5963 315.8867 531.0963 Q315.8867 532.5963 316.3789 533.3698 Q316.8711 534.1432 317.8398 534.1432 Q318.8086 534.1432 319.3086 533.4557 Q319.8086 532.7682 319.8086 531.4557 ZM330.2705 531.2369 L324.8486 531.2369 L324.8486 531.2838 Q324.8486 532.7682 325.4033 533.5104 Q325.958 534.2526 327.0361 534.2526 Q327.8643 534.2526 328.3877 533.8229 Q328.9111 533.3932 329.1299 532.5338 L330.1455 532.5338 Q329.8486 533.7369 329.0361 534.3385 Q328.2236 534.9401 326.8955 534.9401 Q325.3018 534.9401 324.3408 533.8854 Q323.3799 532.8307 323.3799 531.0963 Q323.3799 529.3776 324.3252 528.3229 Q325.2705 527.2682 326.8174 527.2682 Q328.4736 527.2682 329.3486 528.2838 Q330.2236 529.2994 330.2705 531.2369 ZM328.7861 530.5182 Q328.7393 529.2369 328.2471 528.5963 Q327.7549 527.9557 326.8174 527.9557 Q325.958 527.9557 325.458 528.6041 Q324.958 529.2526 324.8486 530.5182 L328.7861 530.5182 ZM337.8652 525.2682 L340.8809 533.0963 L343.8809 525.2682 L342.7402 525.2682 L342.7402 524.5338 L345.7246 524.5338 L345.7246 525.2682 L344.7402 525.2682 L341.0996 534.7369 L339.9121 534.7369 L336.2871 525.2682 L335.2715 525.2682 L335.2715 524.5338 L338.9902 524.5338 L338.9902 525.2682 L337.8652 525.2682 ZM346.8818 525.2213 Q346.8818 524.8932 347.1084 524.6666 Q347.335 524.4401 347.6631 524.4401 Q347.9756 524.4401 348.2021 524.6666 Q348.4287 524.8932 348.4287 525.2213 Q348.4287 525.5338 348.21 525.7604 Q347.9912 525.9869 347.6631 525.9869 Q347.335 525.9869 347.1084 525.7604 Q346.8818 525.5338 346.8818 525.2213 ZM348.4912 534.0182 L349.6787 534.0182 L349.6787 534.7369 L346.0225 534.7369 L346.0225 534.0182 L347.2256 534.0182 L347.2256 528.2057 L346.0225 528.2057 L346.0225 527.4713 L348.4912 527.4713 L348.4912 534.0182 ZM356.6875 527.4557 L356.6875 529.2682 L355.9688 529.2682 Q355.9375 528.7369 355.6719 528.4713 Q355.4062 528.2057 354.8906 528.2057 Q353.9531 528.2057 353.4609 528.8463 Q352.9688 529.4869 352.9688 530.6901 L352.9688 534.0182 L354.4219 534.0182 L354.4219 534.7369 L350.5781 534.7369 L350.5781 534.0182 L351.7031 534.0182 L351.7031 528.1901 L350.5 528.1901 L350.5 527.4713 L352.9688 527.4713 L352.9688 528.7682 Q353.3438 528.0026 353.9219 527.6354 Q354.5 527.2682 355.3281 527.2682 Q355.6406 527.2682 355.9766 527.3151 Q356.3125 527.3619 356.6875 527.4557 ZM358.208 528.2057 L357.0986 528.2057 L357.0986 527.4713 L358.208 527.4713 L358.208 525.2213 L359.4736 525.2213 L359.4736 527.4713 L361.833 527.4713 L361.833 528.2057 L359.4736 528.2057 L359.4736 532.8151 Q359.4736 533.7369 359.6455 533.9948 Q359.8174 534.2526 360.3018 534.2526 Q360.8018 534.2526 361.0205 533.9635 Q361.2393 533.6744 361.2549 533.0338 L362.208 533.0338 Q362.1611 534.0182 361.6689 534.4791 Q361.1768 534.9401 360.1924 534.9401 Q359.0986 534.9401 358.6533 534.4557 Q358.208 533.9713 358.208 532.8151 L358.208 528.2057 ZM367.2715 527.4713 L369.6309 527.4713 L369.6309 534.0182 L370.8184 534.0182 L370.8184 534.7369 L368.3652 534.7369 L368.3652 533.4557 Q368.0215 534.1744 367.4668 534.5573 Q366.9121 534.9401 366.1777 534.9401 Q364.9746 534.9401 364.4043 534.2526 Q363.834 533.5651 363.834 532.0963 L363.834 528.2057 L362.6934 528.2057 L362.6934 527.4713 L365.0996 527.4713 L365.0996 531.7057 Q365.0996 533.0338 365.4199 533.526 Q365.7402 534.0182 366.584 534.0182 Q367.459 534.0182 367.9121 533.3698 Q368.3652 532.7213 368.3652 531.5026 L368.3652 528.2057 L367.2715 528.2057 L367.2715 527.4713 ZM376.9131 532.4557 L376.9131 530.9088 L375.2881 530.9088 Q374.3506 530.9088 373.8896 531.3151 Q373.4287 531.7213 373.4287 532.5494 Q373.4287 533.3151 373.8975 533.7604 Q374.3662 534.2057 375.1631 534.2057 Q375.9443 534.2057 376.4287 533.7213 Q376.9131 533.2369 376.9131 532.4557 ZM378.1631 530.1901 L378.1631 534.0182 L379.2881 534.0182 L379.2881 534.7369 L376.9131 534.7369 L376.9131 533.9557 Q376.4912 534.4557 375.9443 534.6979 Q375.3975 534.9401 374.6631 534.9401 Q373.46 534.9401 372.749 534.2916 Q372.0381 533.6432 372.0381 532.5494 Q372.0381 531.4244 372.8506 530.8073 Q373.6631 530.1901 375.1475 530.1901 L376.9131 530.1901 L376.9131 529.6901 Q376.9131 528.8619 376.4053 528.4088 Q375.8975 527.9557 374.9912 527.9557 Q374.2412 527.9557 373.7959 528.2916 Q373.3506 528.6276 373.2412 529.2994 L372.6006 529.2994 L372.6006 527.8307 Q373.2568 527.5494 373.874 527.4088 Q374.4912 527.2682 375.0693 527.2682 Q376.585 527.2682 377.374 528.0182 Q378.1631 528.7682 378.1631 530.1901 ZM382.5566 534.0182 L383.7441 534.0182 L383.7441 534.7369 L380.0879 534.7369 L380.0879 534.0182 L381.291 534.0182 L381.291 524.8307 L380.0879 524.8307 L380.0879 524.0963 L382.5566 524.0963 L382.5566 534.0182 ZM387.6123 534.0182 L389.6592 534.0182 Q390.8936 534.0182 391.4639 533.4791 Q392.0342 532.9401 392.0342 531.7838 Q392.0342 530.6276 391.4639 530.0963 Q390.8936 529.5651 389.6592 529.5651 L387.6123 529.5651 L387.6123 534.0182 ZM387.6123 528.8463 L389.3623 528.8463 Q390.4717 528.8463 390.9873 528.4166 Q391.5029 527.9869 391.5029 527.0494 Q391.5029 526.1119 390.9873 525.6901 Q390.4717 525.2682 389.3623 525.2682 L387.6123 525.2682 L387.6123 528.8463 ZM384.9248 534.7369 L384.9248 534.0182 L386.2373 534.0182 L386.2373 525.2682 L384.9248 525.2682 L384.9248 524.5338 L389.9717 524.5338 Q391.5186 524.5338 392.2998 525.1666 Q393.0811 525.7994 393.0811 527.0494 Q393.0811 527.9557 392.5342 528.5026 Q391.9873 529.0494 390.9404 529.1588 Q392.2529 529.3307 392.9248 529.9948 Q393.5967 530.6588 393.5967 531.7838 Q393.5967 533.2994 392.6357 534.0182 Q391.6748 534.7369 389.6436 534.7369 L384.9248 534.7369 ZM398.666 534.2526 Q399.666 534.2526 400.1816 533.4557 Q400.6973 532.6588 400.6973 531.0963 Q400.6973 529.5338 400.1816 528.7448 Q399.666 527.9557 398.666 527.9557 Q397.6504 527.9557 397.1348 528.7448 Q396.6191 529.5338 396.6191 531.0963 Q396.6191 532.6588 397.1348 533.4557 Q397.6504 534.2526 398.666 534.2526 ZM398.666 534.9401 Q397.0723 534.9401 396.1113 533.8854 Q395.1504 532.8307 395.1504 531.0963 Q395.1504 529.3619 396.1113 528.3151 Q397.0723 527.2682 398.666 527.2682 Q400.2441 527.2682 401.2051 528.3151 Q402.166 529.3619 402.166 531.0963 Q402.166 532.8307 401.2051 533.8854 Q400.2441 534.9401 398.666 534.9401 ZM406.9541 530.2994 L408.4697 528.2057 L407.501 528.2057 L407.501 527.4713 L410.2979 527.4713 L410.2979 528.2057 L409.3291 528.2057 L407.376 530.8932 L409.6572 534.0182 L410.5947 534.0182 L410.5947 534.7369 L407.251 534.7369 L407.251 534.0182 L408.1729 534.0182 L406.5947 531.8307 L405.001 534.0182 L405.9385 534.0182 L405.9385 534.7369 L403.1885 534.7369 L403.1885 534.0182 L404.1416 534.0182 L406.1572 531.2526 L403.9385 528.2057 L403.0479 528.2057 L403.0479 527.4713 L406.2979 527.4713 L406.2979 528.2057 L405.4229 528.2057 L406.9541 530.2994 ZM418.2373 536.0651 L418.7217 534.8619 L416.0029 528.2057 L415.1748 528.2057 L415.1748 527.4713 L418.5186 527.4713 L418.5186 528.2057 L417.3623 528.2057 L419.4092 533.2057 L421.4561 528.2057 L420.3623 528.2057 L420.3623 527.4713 L423.0967 527.4713 L423.0967 528.2057 L422.2842 528.2057 L418.9404 536.3776 Q418.6123 537.2213 418.1904 537.5338 Q417.7686 537.8463 417.0186 537.8463 Q416.6904 537.8463 416.3545 537.7916 Q416.0186 537.7369 415.6748 537.6432 L415.6748 536.2526 L416.3154 536.2526 Q416.3623 536.7057 416.5576 536.9088 Q416.7529 537.1119 417.1592 537.1119 Q417.5342 537.1119 417.7607 536.9088 Q417.9873 536.7057 418.2373 536.0651 ZM430.0342 525.2682 L433.0498 533.0963 L436.0498 525.2682 L434.9092 525.2682 L434.9092 524.5338 L437.8936 524.5338 L437.8936 525.2682 L436.9092 525.2682 L433.2686 534.7369 L432.0811 534.7369 L428.4561 525.2682 L427.4404 525.2682 L427.4404 524.5338 L431.1592 524.5338 L431.1592 525.2682 L430.0342 525.2682 ZM438.457 534.7369 L438.457 534.0182 L439.7695 534.0182 L439.7695 525.2682 L438.3945 525.2682 L438.3945 524.5338 L441.3633 524.5338 L444.9414 531.7994 L448.5195 524.5338 L451.3164 524.5338 L451.3164 525.2682 L449.957 525.2682 L449.957 534.0182 L451.2539 534.0182 L451.2539 534.7369 L447.2695 534.7369 L447.2695 534.0182 L448.5664 534.0182 L448.5664 526.1276 L445.0664 533.2369 L444.0977 533.2369 L440.5977 526.1276 L440.5977 534.0182 L441.9102 534.0182 L441.9102 534.7369 L438.457 534.7369 ZM462.6982 534.7369 L461.5732 534.7369 L459.2451 526.4401 L456.9014 534.7369 L455.7764 534.7369 L453.1045 525.2682 L452.0889 525.2682 L452.0889 524.5338 L455.8232 524.5338 L455.8232 525.2682 L454.542 525.2682 L456.6826 532.7994 L458.9951 524.5338 L460.1045 524.5338 L462.4795 532.8932 L464.6045 525.2682 L463.4326 525.2682 L463.4326 524.5338 L466.3701 524.5338 L466.3701 525.2682 L465.3701 525.2682 L462.6982 534.7369 ZM471.9941 532.4557 L471.9941 530.9088 L470.3691 530.9088 Q469.4316 530.9088 468.9707 531.3151 Q468.5098 531.7213 468.5098 532.5494 Q468.5098 533.3151 468.9785 533.7604 Q469.4473 534.2057 470.2441 534.2057 Q471.0254 534.2057 471.5098 533.7213 Q471.9941 533.2369 471.9941 532.4557 ZM473.2441 530.1901 L473.2441 534.0182 L474.3691 534.0182 L474.3691 534.7369 L471.9941 534.7369 L471.9941 533.9557 Q471.5723 534.4557 471.0254 534.6979 Q470.4785 534.9401 469.7441 534.9401 Q468.541 534.9401 467.8301 534.2916 Q467.1191 533.6432 467.1191 532.5494 Q467.1191 531.4244 467.9316 530.8073 Q468.7441 530.1901 470.2285 530.1901 L471.9941 530.1901 L471.9941 529.6901 Q471.9941 528.8619 471.4863 528.4088 Q470.9785 527.9557 470.0723 527.9557 Q469.3223 527.9557 468.877 528.2916 Q468.4316 528.6276 468.3223 529.2994 L467.6816 529.2994 L467.6816 527.8307 Q468.3379 527.5494 468.9551 527.4088 Q469.5723 527.2682 470.1504 527.2682 Q471.666 527.2682 472.4551 528.0182 Q473.2441 528.7682 473.2441 530.1901 ZM481.4502 527.4557 L481.4502 529.2682 L480.7314 529.2682 Q480.7002 528.7369 480.4346 528.4713 Q480.1689 528.2057 479.6533 528.2057 Q478.7158 528.2057 478.2236 528.8463 Q477.7314 529.4869 477.7314 530.6901 L477.7314 534.0182 L479.1846 534.0182 L479.1846 534.7369 L475.3408 534.7369 L475.3408 534.0182 L476.4658 534.0182 L476.4658 528.1901 L475.2627 528.1901 L475.2627 527.4713 L477.7314 527.4713 L477.7314 528.7682 Q478.1064 528.0026 478.6846 527.6354 Q479.2627 527.2682 480.0908 527.2682 Q480.4033 527.2682 480.7393 527.3151 Q481.0752 527.3619 481.4502 527.4557 ZM489.0488 531.2369 L483.627 531.2369 L483.627 531.2838 Q483.627 532.7682 484.1816 533.5104 Q484.7363 534.2526 485.8145 534.2526 Q486.6426 534.2526 487.166 533.8229 Q487.6895 533.3932 487.9082 532.5338 L488.9238 532.5338 Q488.627 533.7369 487.8145 534.3385 Q487.002 534.9401 485.6738 534.9401 Q484.0801 534.9401 483.1191 533.8854 Q482.1582 532.8307 482.1582 531.0963 Q482.1582 529.3776 483.1035 528.3229 Q484.0488 527.2682 485.5957 527.2682 Q487.252 527.2682 488.127 528.2838 Q489.002 529.2994 489.0488 531.2369 ZM487.5645 530.5182 Q487.5176 529.2369 487.0254 528.5963 Q486.5332 527.9557 485.5957 527.9557 Q484.7363 527.9557 484.2363 528.6041 Q483.7363 529.2526 483.627 530.5182 L487.5645 530.5182 Z" clip-path="url(#clipPath3)" stroke="none"/>
      <path d="M273.2812 546.7526 L276.7812 546.7526 L276.7812 547.8151 L273.2812 547.8151 L273.2812 546.7526 ZM282.6182 551.0338 L282.6182 550.3151 L283.9307 550.3151 L283.9307 541.5651 L282.5557 541.5651 L282.5557 540.8307 L285.5244 540.8307 L289.1025 548.0963 L292.6807 540.8307 L295.4775 540.8307 L295.4775 541.5651 L294.1182 541.5651 L294.1182 550.3151 L295.415 550.3151 L295.415 551.0338 L291.4307 551.0338 L291.4307 550.3151 L292.7275 550.3151 L292.7275 542.4244 L289.2275 549.5338 L288.2588 549.5338 L284.7588 542.4244 L284.7588 550.3151 L286.0713 550.3151 L286.0713 551.0338 L282.6182 551.0338 ZM301.7656 548.7526 L301.7656 547.2057 L300.1406 547.2057 Q299.2031 547.2057 298.7422 547.6119 Q298.2812 548.0182 298.2812 548.8463 Q298.2812 549.6119 298.75 550.0573 Q299.2188 550.5026 300.0156 550.5026 Q300.7969 550.5026 301.2812 550.0182 Q301.7656 549.5338 301.7656 548.7526 ZM303.0156 546.4869 L303.0156 550.3151 L304.1406 550.3151 L304.1406 551.0338 L301.7656 551.0338 L301.7656 550.2526 Q301.3438 550.7526 300.7969 550.9948 Q300.25 551.2369 299.5156 551.2369 Q298.3125 551.2369 297.6016 550.5885 Q296.8906 549.9401 296.8906 548.8463 Q296.8906 547.7213 297.7031 547.1041 Q298.5156 546.4869 300 546.4869 L301.7656 546.4869 L301.7656 545.9869 Q301.7656 545.1588 301.2578 544.7057 Q300.75 544.2526 299.8438 544.2526 Q299.0938 544.2526 298.6484 544.5885 Q298.2031 544.9244 298.0938 545.5963 L297.4531 545.5963 L297.4531 544.1276 Q298.1094 543.8463 298.7266 543.7057 Q299.3438 543.5651 299.9219 543.5651 Q301.4375 543.5651 302.2266 544.3151 Q303.0156 545.0651 303.0156 546.4869 ZM305.1123 551.0338 L305.1123 550.3151 L306.2373 550.3151 L306.2373 544.5026 L305.0342 544.5026 L305.0342 543.7682 L307.5029 543.7682 L307.5029 545.0651 Q307.8467 544.3151 308.4092 543.9401 Q308.9717 543.5651 309.7061 543.5651 Q310.9092 543.5651 311.4717 544.2604 Q312.0342 544.9557 312.0342 546.4088 L312.0342 550.3151 L313.1592 550.3151 L313.1592 551.0338 L309.6904 551.0338 L309.6904 550.3151 L310.7686 550.3151 L310.7686 546.8151 Q310.7686 545.4713 310.4404 544.9791 Q310.1123 544.4869 309.2998 544.4869 Q308.4248 544.4869 307.9639 545.1276 Q307.5029 545.7682 307.5029 546.9869 L307.5029 550.3151 L308.5967 550.3151 L308.5967 551.0338 L305.1123 551.0338 ZM321.1445 547.5338 L315.7227 547.5338 L315.7227 547.5807 Q315.7227 549.0651 316.2773 549.8073 Q316.832 550.5494 317.9102 550.5494 Q318.7383 550.5494 319.2617 550.1198 Q319.7852 549.6901 320.0039 548.8307 L321.0195 548.8307 Q320.7227 550.0338 319.9102 550.6354 Q319.0977 551.2369 317.7695 551.2369 Q316.1758 551.2369 315.2148 550.1823 Q314.2539 549.1276 314.2539 547.3932 Q314.2539 545.6744 315.1992 544.6198 Q316.1445 543.5651 317.6914 543.5651 Q319.3477 543.5651 320.2227 544.5807 Q321.0977 545.5963 321.1445 547.5338 ZM319.6602 546.8151 Q319.6133 545.5338 319.1211 544.8932 Q318.6289 544.2526 317.6914 544.2526 Q316.832 544.2526 316.332 544.901 Q315.832 545.5494 315.7227 546.8151 L319.6602 546.8151 ZM323.2422 541.5182 Q323.2422 541.1901 323.4688 540.9635 Q323.6953 540.7369 324.0234 540.7369 Q324.3359 540.7369 324.5625 540.9635 Q324.7891 541.1901 324.7891 541.5182 Q324.7891 541.8307 324.5703 542.0573 Q324.3516 542.2838 324.0234 542.2838 Q323.6953 542.2838 323.4688 542.0573 Q323.2422 541.8307 323.2422 541.5182 ZM323.5391 544.5026 L322.3516 544.5026 L322.3516 543.7682 L324.8047 543.7682 L324.8047 551.7526 Q324.8047 552.8619 324.1406 553.5026 Q323.4766 554.1432 322.3047 554.1432 Q321.8047 554.1432 321.3594 554.0338 Q320.9141 553.9244 320.4922 553.6901 L320.4922 552.1901 L321.1328 552.1901 Q321.1797 552.8463 321.4766 553.1588 Q321.7734 553.4713 322.3359 553.4713 Q322.9453 553.4713 323.2422 553.0494 Q323.5391 552.6276 323.5391 551.7526 L323.5391 544.5026 ZM330.3955 550.5494 Q331.3955 550.5494 331.9111 549.7526 Q332.4268 548.9557 332.4268 547.3932 Q332.4268 545.8307 331.9111 545.0416 Q331.3955 544.2526 330.3955 544.2526 Q329.3799 544.2526 328.8643 545.0416 Q328.3486 545.8307 328.3486 547.3932 Q328.3486 548.9557 328.8643 549.7526 Q329.3799 550.5494 330.3955 550.5494 ZM330.3955 551.2369 Q328.8018 551.2369 327.8408 550.1823 Q326.8799 549.1276 326.8799 547.3932 Q326.8799 545.6588 327.8408 544.6119 Q328.8018 543.5651 330.3955 543.5651 Q331.9736 543.5651 332.9346 544.6119 Q333.8955 545.6588 333.8955 547.3932 Q333.8955 549.1276 332.9346 550.1823 Q331.9736 551.2369 330.3955 551.2369 ZM346.3994 550.3151 L347.6025 550.3151 L347.6025 551.0338 L345.1494 551.0338 L345.1494 549.8932 Q344.7744 550.5807 344.2041 550.9088 Q343.6338 551.2369 342.79 551.2369 Q341.4619 551.2369 340.6104 550.1744 Q339.7588 549.1119 339.7588 547.3932 Q339.7588 545.6901 340.6025 544.6276 Q341.4463 543.5651 342.79 543.5651 Q343.6338 543.5651 344.2041 543.8932 Q344.7744 544.2213 345.1494 544.9088 L345.1494 541.1276 L343.9619 541.1276 L343.9619 540.3932 L346.3994 540.3932 L346.3994 550.3151 ZM345.1494 547.7526 L345.1494 547.0338 Q345.1494 545.7369 344.6494 545.0494 Q344.1494 544.3619 343.1807 544.3619 Q342.2119 544.3619 341.7197 545.1276 Q341.2275 545.8932 341.2275 547.3932 Q341.2275 548.8932 341.7197 549.6666 Q342.2119 550.4401 343.1807 550.4401 Q344.1494 550.4401 344.6494 549.7526 Q345.1494 549.0651 345.1494 547.7526 ZM355.6113 547.5338 L350.1895 547.5338 L350.1895 547.5807 Q350.1895 549.0651 350.7441 549.8073 Q351.2988 550.5494 352.377 550.5494 Q353.2051 550.5494 353.7285 550.1198 Q354.252 549.6901 354.4707 548.8307 L355.4863 548.8307 Q355.1895 550.0338 354.377 550.6354 Q353.5645 551.2369 352.2363 551.2369 Q350.6426 551.2369 349.6816 550.1823 Q348.7207 549.1276 348.7207 547.3932 Q348.7207 545.6744 349.666 544.6198 Q350.6113 543.5651 352.1582 543.5651 Q353.8145 543.5651 354.6895 544.5807 Q355.5645 545.5963 355.6113 547.5338 ZM354.127 546.8151 Q354.0801 545.5338 353.5879 544.8932 Q353.0957 544.2526 352.1582 544.2526 Q351.2988 544.2526 350.7988 544.901 Q350.2988 545.5494 350.1895 546.8151 L354.127 546.8151 ZM368.0967 550.3151 L369.2998 550.3151 L369.2998 551.0338 L366.8467 551.0338 L366.8467 549.8932 Q366.4717 550.5807 365.9014 550.9088 Q365.3311 551.2369 364.4873 551.2369 Q363.1592 551.2369 362.3076 550.1744 Q361.4561 549.1119 361.4561 547.3932 Q361.4561 545.6901 362.2998 544.6276 Q363.1436 543.5651 364.4873 543.5651 Q365.3311 543.5651 365.9014 543.8932 Q366.4717 544.2213 366.8467 544.9088 L366.8467 541.1276 L365.6592 541.1276 L365.6592 540.3932 L368.0967 540.3932 L368.0967 550.3151 ZM366.8467 547.7526 L366.8467 547.0338 Q366.8467 545.7369 366.3467 545.0494 Q365.8467 544.3619 364.8779 544.3619 Q363.9092 544.3619 363.417 545.1276 Q362.9248 545.8932 362.9248 547.3932 Q362.9248 548.8932 363.417 549.6666 Q363.9092 550.4401 364.8779 550.4401 Q365.8467 550.4401 366.3467 549.7526 Q366.8467 549.0651 366.8467 547.7526 ZM371.0742 541.5182 Q371.0742 541.1901 371.3008 540.9635 Q371.5273 540.7369 371.8555 540.7369 Q372.168 540.7369 372.3945 540.9635 Q372.6211 541.1901 372.6211 541.5182 Q372.6211 541.8307 372.4023 542.0573 Q372.1836 542.2838 371.8555 542.2838 Q371.5273 542.2838 371.3008 542.0573 Q371.0742 541.8307 371.0742 541.5182 ZM372.6836 550.3151 L373.8711 550.3151 L373.8711 551.0338 L370.2148 551.0338 L370.2148 550.3151 L371.418 550.3151 L371.418 544.5026 L370.2148 544.5026 L370.2148 543.7682 L372.6836 543.7682 L372.6836 550.3151 ZM374.9736 550.6276 L374.9736 548.9401 L375.708 548.9401 Q375.7236 549.7526 376.208 550.151 Q376.6924 550.5494 377.6455 550.5494 Q378.4893 550.5494 378.9346 550.2369 Q379.3799 549.9244 379.3799 549.3151 Q379.3799 548.8307 379.0518 548.5338 Q378.7236 548.2369 377.6768 547.9088 L376.7705 547.5963 Q375.833 547.2994 375.4111 546.8463 Q374.9893 546.3932 374.9893 545.7057 Q374.9893 544.7057 375.7236 544.1354 Q376.458 543.5651 377.7549 543.5651 Q378.3174 543.5651 378.958 543.7135 Q379.5986 543.8619 380.2705 544.1588 L380.2705 545.7369 L379.5518 545.7369 Q379.5205 545.0338 379.0518 544.6432 Q378.583 544.2526 377.7861 544.2526 Q376.9893 544.2526 376.583 544.526 Q376.1768 544.7994 376.1768 545.3619 Q376.1768 545.8307 376.4893 546.1041 Q376.8018 546.3776 377.7236 546.6588 L378.7236 546.9713 Q379.7549 547.2994 380.208 547.776 Q380.6611 548.2526 380.6611 549.0182 Q380.6611 550.0494 379.8721 550.6432 Q379.083 551.2369 377.6924 551.2369 Q376.9893 551.2369 376.3174 551.0807 Q375.6455 550.9244 374.9736 550.6276 ZM388.5801 548.8463 Q388.3145 550.0182 387.5566 550.6276 Q386.7988 551.2369 385.5957 551.2369 Q384.002 551.2369 383.041 550.1823 Q382.0801 549.1276 382.0801 547.3932 Q382.0801 545.6588 383.041 544.6119 Q384.002 543.5651 385.5957 543.5651 Q386.2832 543.5651 386.9629 543.7291 Q387.6426 543.8932 388.3301 544.2213 L388.3301 546.0807 L387.6113 546.0807 Q387.4551 545.1276 386.9785 544.6901 Q386.502 544.2526 385.5957 544.2526 Q384.5801 544.2526 384.0645 545.0416 Q383.5488 545.8307 383.5488 547.3932 Q383.5488 548.9713 384.0645 549.7604 Q384.5801 550.5494 385.5957 550.5494 Q386.4082 550.5494 386.9004 550.1276 Q387.3926 549.7057 387.5645 548.8463 L388.5801 548.8463 ZM393.4365 550.5494 Q394.4365 550.5494 394.9521 549.7526 Q395.4678 548.9557 395.4678 547.3932 Q395.4678 545.8307 394.9521 545.0416 Q394.4365 544.2526 393.4365 544.2526 Q392.4209 544.2526 391.9053 545.0416 Q391.3896 545.8307 391.3896 547.3932 Q391.3896 548.9557 391.9053 549.7526 Q392.4209 550.5494 393.4365 550.5494 ZM393.4365 551.2369 Q391.8428 551.2369 390.8818 550.1823 Q389.9209 549.1276 389.9209 547.3932 Q389.9209 545.6588 390.8818 544.6119 Q391.8428 543.5651 393.4365 543.5651 Q395.0146 543.5651 395.9756 544.6119 Q396.9365 545.6588 396.9365 547.3932 Q396.9365 549.1276 395.9756 550.1823 Q395.0146 551.2369 393.4365 551.2369 ZM398.4277 550.6276 L398.4277 548.9401 L399.1621 548.9401 Q399.1777 549.7526 399.6621 550.151 Q400.1465 550.5494 401.0996 550.5494 Q401.9434 550.5494 402.3887 550.2369 Q402.834 549.9244 402.834 549.3151 Q402.834 548.8307 402.5059 548.5338 Q402.1777 548.2369 401.1309 547.9088 L400.2246 547.5963 Q399.2871 547.2994 398.8652 546.8463 Q398.4434 546.3932 398.4434 545.7057 Q398.4434 544.7057 399.1777 544.1354 Q399.9121 543.5651 401.209 543.5651 Q401.7715 543.5651 402.4121 543.7135 Q403.0527 543.8619 403.7246 544.1588 L403.7246 545.7369 L403.0059 545.7369 Q402.9746 545.0338 402.5059 544.6432 Q402.0371 544.2526 401.2402 544.2526 Q400.4434 544.2526 400.0371 544.526 Q399.6309 544.7994 399.6309 545.3619 Q399.6309 545.8307 399.9434 546.1041 Q400.2559 546.3776 401.1777 546.6588 L402.1777 546.9713 Q403.209 547.2994 403.6621 547.776 Q404.1152 548.2526 404.1152 549.0182 Q404.1152 550.0494 403.3262 550.6432 Q402.5371 551.2369 401.1465 551.2369 Q400.4434 551.2369 399.7715 551.0807 Q399.0996 550.9244 398.4277 550.6276 ZM416.625 550.3151 L417.8281 550.3151 L417.8281 551.0338 L415.375 551.0338 L415.375 549.8932 Q415 550.5807 414.4297 550.9088 Q413.8594 551.2369 413.0156 551.2369 Q411.6875 551.2369 410.8359 550.1744 Q409.9844 549.1119 409.9844 547.3932 Q409.9844 545.6901 410.8281 544.6276 Q411.6719 543.5651 413.0156 543.5651 Q413.8594 543.5651 414.4297 543.8932 Q415 544.2213 415.375 544.9088 L415.375 541.1276 L414.1875 541.1276 L414.1875 540.3932 L416.625 540.3932 L416.625 550.3151 ZM415.375 547.7526 L415.375 547.0338 Q415.375 545.7369 414.875 545.0494 Q414.375 544.3619 413.4062 544.3619 Q412.4375 544.3619 411.9453 545.1276 Q411.4531 545.8932 411.4531 547.3932 Q411.4531 548.8932 411.9453 549.6666 Q412.4375 550.4401 413.4062 550.4401 Q414.375 550.4401 414.875 549.7526 Q415.375 549.0651 415.375 547.7526 ZM423.1963 543.7682 L425.5557 543.7682 L425.5557 550.3151 L426.7432 550.3151 L426.7432 551.0338 L424.29 551.0338 L424.29 549.7526 Q423.9463 550.4713 423.3916 550.8541 Q422.8369 551.2369 422.1025 551.2369 Q420.8994 551.2369 420.3291 550.5494 Q419.7588 549.8619 419.7588 548.3932 L419.7588 544.5026 L418.6182 544.5026 L418.6182 543.7682 L421.0244 543.7682 L421.0244 548.0026 Q421.0244 549.3307 421.3447 549.8229 Q421.665 550.3151 422.5088 550.3151 Q423.3838 550.3151 423.8369 549.6666 Q424.29 549.0182 424.29 547.7994 L424.29 544.5026 L423.1963 544.5026 L423.1963 543.7682 ZM433.9473 543.7526 L433.9473 545.5651 L433.2285 545.5651 Q433.1973 545.0338 432.9316 544.7682 Q432.666 544.5026 432.1504 544.5026 Q431.2129 544.5026 430.7207 545.1432 Q430.2285 545.7838 430.2285 546.9869 L430.2285 550.3151 L431.6816 550.3151 L431.6816 551.0338 L427.8379 551.0338 L427.8379 550.3151 L428.9629 550.3151 L428.9629 544.4869 L427.7598 544.4869 L427.7598 543.7682 L430.2285 543.7682 L430.2285 545.0651 Q430.6035 544.2994 431.1816 543.9323 Q431.7598 543.5651 432.5879 543.5651 Q432.9004 543.5651 433.2363 543.6119 Q433.5723 543.6588 433.9473 543.7526 ZM438.1709 550.5494 Q439.1709 550.5494 439.6865 549.7526 Q440.2021 548.9557 440.2021 547.3932 Q440.2021 545.8307 439.6865 545.0416 Q439.1709 544.2526 438.1709 544.2526 Q437.1553 544.2526 436.6396 545.0416 Q436.124 545.8307 436.124 547.3932 Q436.124 548.9557 436.6396 549.7526 Q437.1553 550.5494 438.1709 550.5494 ZM438.1709 551.2369 Q436.5771 551.2369 435.6162 550.1823 Q434.6553 549.1276 434.6553 547.3932 Q434.6553 545.6588 435.6162 544.6119 Q436.5771 543.5651 438.1709 543.5651 Q439.749 543.5651 440.71 544.6119 Q441.6709 545.6588 441.6709 547.3932 Q441.6709 549.1276 440.71 550.1823 Q439.749 551.2369 438.1709 551.2369 ZM443.1621 550.6276 L443.1621 548.9401 L443.8965 548.9401 Q443.9121 549.7526 444.3965 550.151 Q444.8809 550.5494 445.834 550.5494 Q446.6777 550.5494 447.123 550.2369 Q447.5684 549.9244 447.5684 549.3151 Q447.5684 548.8307 447.2402 548.5338 Q446.9121 548.2369 445.8652 547.9088 L444.959 547.5963 Q444.0215 547.2994 443.5996 546.8463 Q443.1777 546.3932 443.1777 545.7057 Q443.1777 544.7057 443.9121 544.1354 Q444.6465 543.5651 445.9434 543.5651 Q446.5059 543.5651 447.1465 543.7135 Q447.7871 543.8619 448.459 544.1588 L448.459 545.7369 L447.7402 545.7369 Q447.709 545.0338 447.2402 544.6432 Q446.7715 544.2526 445.9746 544.2526 Q445.1777 544.2526 444.7715 544.526 Q444.3652 544.7994 444.3652 545.3619 Q444.3652 545.8307 444.6777 546.1041 Q444.9902 546.3776 445.9121 546.6588 L446.9121 546.9713 Q447.9434 547.2994 448.3965 547.776 Q448.8496 548.2526 448.8496 549.0182 Q448.8496 550.0494 448.0605 550.6432 Q447.2715 551.2369 445.8809 551.2369 Q445.1777 551.2369 444.5059 551.0807 Q443.834 550.9244 443.1621 550.6276 ZM457.4688 551.0338 L454.7969 544.5026 L453.9688 544.5026 L453.9688 543.7682 L457.3125 543.7682 L457.3125 544.5026 L456.1562 544.5026 L458.2031 549.5026 L460.25 544.5026 L459.1562 544.5026 L459.1562 543.7682 L461.8906 543.7682 L461.8906 544.5026 L461.0781 544.5026 L458.3906 551.0338 L457.4688 551.0338 ZM463.2842 541.5182 Q463.2842 541.1901 463.5107 540.9635 Q463.7373 540.7369 464.0654 540.7369 Q464.3779 540.7369 464.6045 540.9635 Q464.8311 541.1901 464.8311 541.5182 Q464.8311 541.8307 464.6123 542.0573 Q464.3936 542.2838 464.0654 542.2838 Q463.7373 542.2838 463.5107 542.0573 Q463.2842 541.8307 463.2842 541.5182 ZM464.8936 550.3151 L466.0811 550.3151 L466.0811 551.0338 L462.4248 551.0338 L462.4248 550.3151 L463.6279 550.3151 L463.6279 544.5026 L462.4248 544.5026 L462.4248 543.7682 L464.8936 543.7682 L464.8936 550.3151 ZM473.0898 543.7526 L473.0898 545.5651 L472.3711 545.5651 Q472.3398 545.0338 472.0742 544.7682 Q471.8086 544.5026 471.293 544.5026 Q470.3555 544.5026 469.8633 545.1432 Q469.3711 545.7838 469.3711 546.9869 L469.3711 550.3151 L470.8242 550.3151 L470.8242 551.0338 L466.9805 551.0338 L466.9805 550.3151 L468.1055 550.3151 L468.1055 544.4869 L466.9023 544.4869 L466.9023 543.7682 L469.3711 543.7682 L469.3711 545.0651 Q469.7461 544.2994 470.3242 543.9323 Q470.9023 543.5651 471.7305 543.5651 Q472.043 543.5651 472.3789 543.6119 Q472.7148 543.6588 473.0898 543.7526 ZM474.6104 544.5026 L473.501 544.5026 L473.501 543.7682 L474.6104 543.7682 L474.6104 541.5182 L475.876 541.5182 L475.876 543.7682 L478.2354 543.7682 L478.2354 544.5026 L475.876 544.5026 L475.876 549.1119 Q475.876 550.0338 476.0479 550.2916 Q476.2197 550.5494 476.7041 550.5494 Q477.2041 550.5494 477.4229 550.2604 Q477.6416 549.9713 477.6572 549.3307 L478.6104 549.3307 Q478.5635 550.3151 478.0713 550.776 Q477.5791 551.2369 476.5947 551.2369 Q475.501 551.2369 475.0557 550.7526 Q474.6104 550.2682 474.6104 549.1119 L474.6104 544.5026 ZM483.6738 543.7682 L486.0332 543.7682 L486.0332 550.3151 L487.2207 550.3151 L487.2207 551.0338 L484.7676 551.0338 L484.7676 549.7526 Q484.4238 550.4713 483.8691 550.8541 Q483.3145 551.2369 482.5801 551.2369 Q481.377 551.2369 480.8066 550.5494 Q480.2363 549.8619 480.2363 548.3932 L480.2363 544.5026 L479.0957 544.5026 L479.0957 543.7682 L481.502 543.7682 L481.502 548.0026 Q481.502 549.3307 481.8223 549.8229 Q482.1426 550.3151 482.9863 550.3151 Q483.8613 550.3151 484.3145 549.6666 Q484.7676 549.0182 484.7676 547.7994 L484.7676 544.5026 L483.6738 544.5026 L483.6738 543.7682 ZM493.3154 548.7526 L493.3154 547.2057 L491.6904 547.2057 Q490.7529 547.2057 490.292 547.6119 Q489.8311 548.0182 489.8311 548.8463 Q489.8311 549.6119 490.2998 550.0573 Q490.7686 550.5026 491.5654 550.5026 Q492.3467 550.5026 492.8311 550.0182 Q493.3154 549.5338 493.3154 548.7526 ZM494.5654 546.4869 L494.5654 550.3151 L495.6904 550.3151 L495.6904 551.0338 L493.3154 551.0338 L493.3154 550.2526 Q492.8936 550.7526 492.3467 550.9948 Q491.7998 551.2369 491.0654 551.2369 Q489.8623 551.2369 489.1514 550.5885 Q488.4404 549.9401 488.4404 548.8463 Q488.4404 547.7213 489.2529 547.1041 Q490.0654 546.4869 491.5498 546.4869 L493.3154 546.4869 L493.3154 545.9869 Q493.3154 545.1588 492.8076 544.7057 Q492.2998 544.2526 491.3936 544.2526 Q490.6436 544.2526 490.1982 544.5885 Q489.7529 544.9244 489.6436 545.5963 L489.0029 545.5963 L489.0029 544.1276 Q489.6592 543.8463 490.2764 543.7057 Q490.8936 543.5651 491.4717 543.5651 Q492.9873 543.5651 493.7764 544.3151 Q494.5654 545.0651 494.5654 546.4869 ZM498.959 550.3151 L500.1465 550.3151 L500.1465 551.0338 L496.4902 551.0338 L496.4902 550.3151 L497.6934 550.3151 L497.6934 541.1276 L496.4902 541.1276 L496.4902 540.3932 L498.959 540.3932 L498.959 550.3151 ZM508.1553 547.5338 L502.7334 547.5338 L502.7334 547.5807 Q502.7334 549.0651 503.2881 549.8073 Q503.8428 550.5494 504.9209 550.5494 Q505.749 550.5494 506.2725 550.1198 Q506.7959 549.6901 507.0146 548.8307 L508.0303 548.8307 Q507.7334 550.0338 506.9209 550.6354 Q506.1084 551.2369 504.7803 551.2369 Q503.1865 551.2369 502.2256 550.1823 Q501.2646 549.1276 501.2646 547.3932 Q501.2646 545.6744 502.21 544.6198 Q503.1553 543.5651 504.7021 543.5651 Q506.3584 543.5651 507.2334 544.5807 Q508.1084 545.5963 508.1553 547.5338 ZM506.6709 546.8151 Q506.624 545.5338 506.1318 544.8932 Q505.6396 544.2526 504.7021 544.2526 Q503.8428 544.2526 503.3428 544.901 Q502.8428 545.5494 502.7334 546.8151 L506.6709 546.8151 ZM509.6279 550.6276 L509.6279 548.9401 L510.3623 548.9401 Q510.3779 549.7526 510.8623 550.151 Q511.3467 550.5494 512.2998 550.5494 Q513.1436 550.5494 513.5889 550.2369 Q514.0342 549.9244 514.0342 549.3151 Q514.0342 548.8307 513.7061 548.5338 Q513.3779 548.2369 512.3311 547.9088 L511.4248 547.5963 Q510.4873 547.2994 510.0654 546.8463 Q509.6436 546.3932 509.6436 545.7057 Q509.6436 544.7057 510.3779 544.1354 Q511.1123 543.5651 512.4092 543.5651 Q512.9717 543.5651 513.6123 543.7135 Q514.2529 543.8619 514.9248 544.1588 L514.9248 545.7369 L514.2061 545.7369 Q514.1748 545.0338 513.7061 544.6432 Q513.2373 544.2526 512.4404 544.2526 Q511.6436 544.2526 511.2373 544.526 Q510.8311 544.7994 510.8311 545.3619 Q510.8311 545.8307 511.1436 546.1041 Q511.4561 546.3776 512.3779 546.6588 L513.3779 546.9713 Q514.4092 547.2994 514.8623 547.776 Q515.3154 548.2526 515.3154 549.0182 Q515.3154 550.0494 514.5264 550.6432 Q513.7373 551.2369 512.3467 551.2369 Q511.6436 551.2369 510.9717 551.0807 Q510.2998 550.9244 509.6279 550.6276 Z" clip-path="url(#clipPath3)" stroke="none"/>
    </g>
    <g transform="matrix(1,0,0,1,-226,-140)" fill-opacity="0.1451" fill="rgb(255,0,0)" text-rendering="geometricPrecision" shape-rendering="geometricPrecision" stroke="rgb(255,0,0)" stroke-opacity="0.1451">
      <rect x="962.5972" y="431.5643" clip-path="url(#clipPath2)" width="75.5715" rx="4" ry="4" height="43.3145" stroke="none"/>
    </g>
    <g stroke-linecap="butt" transform="matrix(1,0,0,1,-226,-140)" fill="red" text-rendering="geometricPrecision" shape-rendering="geometricPrecision" stroke="red" stroke-miterlimit="1.45">
      <rect x="962.5972" y="431.5643" clip-path="url(#clipPath2)" fill="none" width="75.5715" rx="4" ry="4" height="43.3145"/>
      <text x="974.0685" y="457.3758" clip-path="url(#clipPath2)" fill="black" font-family="sans-serif" stroke="none" xml:space="preserve">RA2 (25)</text>
    </g>
    <g transform="matrix(1,0,0,1,-226,-140)" fill-opacity="0.1451" fill="rgb(255,0,0)" text-rendering="geometricPrecision" shape-rendering="geometricPrecision" stroke="rgb(255,0,0)" stroke-opacity="0.1451">
      <rect x="1038.1687" y="431.5643" clip-path="url(#clipPath2)" width="45.5715" rx="4" ry="4" height="43.3145" stroke="none"/>
    </g>
    <g stroke-linecap="butt" transform="matrix(1,0,0,1,-226,-140)" fill="red" text-rendering="geometricPrecision" shape-rendering="geometricPrecision" stroke="red" stroke-miterlimit="1.45">
      <rect x="1038.1687" y="431.5643" clip-path="url(#clipPath2)" fill="none" width="45.5715" rx="4" ry="4" height="43.3145"/>
      <text x="1053.3197" y="457.3758" clip-path="url(#clipPath2)" fill="black" font-family="sans-serif" stroke="none" xml:space="preserve">10</text>
    </g>
    <g transform="matrix(1,0,0,1,-226,-140)" fill-opacity="0.1451" fill="rgb(255,0,0)" text-rendering="geometricPrecision" shape-rendering="geometricPrecision" stroke="rgb(255,0,0)" stroke-opacity="0.1451">
      <rect x="962.5972" y="474.8788" clip-path="url(#clipPath2)" width="75.5715" rx="4" ry="4" height="43.3145" stroke="none"/>
    </g>
    <g stroke-linecap="butt" transform="matrix(1,0,0,1,-226,-140)" fill="red" text-rendering="geometricPrecision" shape-rendering="geometricPrecision" stroke="red" stroke-miterlimit="1.45">
      <rect x="962.5972" y="474.8788" clip-path="url(#clipPath2)" fill="none" width="75.5715" rx="4" ry="4" height="43.3145"/>
      <text x="974.0685" y="500.6903" clip-path="url(#clipPath2)" fill="black" font-family="sans-serif" stroke="none" xml:space="preserve">RA3 (25)</text>
    </g>
    <g transform="matrix(1,0,0,1,-226,-140)" fill-opacity="0.1451" fill="rgb(255,0,0)" text-rendering="geometricPrecision" shape-rendering="geometricPrecision" stroke="rgb(255,0,0)" stroke-opacity="0.1451">
      <rect x="1038.1687" y="474.8788" clip-path="url(#clipPath2)" width="45.5715" rx="4" ry="4" height="43.3145" stroke="none"/>
    </g>
    <g stroke-linecap="butt" transform="matrix(1,0,0,1,-226,-140)" fill="red" text-rendering="geometricPrecision" shape-rendering="geometricPrecision" stroke="red" stroke-miterlimit="1.45">
      <rect x="1038.1687" y="474.8788" clip-path="url(#clipPath2)" fill="none" width="45.5715" rx="4" ry="4" height="43.3145"/>
      <text x="1053.3197" y="500.6903" clip-path="url(#clipPath2)" fill="black" font-family="sans-serif" stroke="none" xml:space="preserve">10</text>
    </g>
  </g>
</svg>
