<?xml version="1.0" encoding="UTF-8"?><svg xmlns="http://www.w3.org/2000/svg" xmlns:xlink="http://www.w3.org/1999/xlink" fill-opacity="1" color-rendering="auto" color-interpolation="auto" text-rendering="auto" stroke="black" stroke-linecap="square" width="715" stroke-miterlimit="10" shape-rendering="auto" stroke-opacity="1" fill="black" stroke-dasharray="none" font-weight="normal" stroke-width="1" height="149" font-family="'Dialog'" font-style="normal" stroke-linejoin="miter" font-size="12px" stroke-dashoffset="0" image-rendering="auto">
  <!--Generated by ySVG 2.5-->
  <defs id="genericDefs"/>
  <g>
    <defs id="defs1">
      <clipPath clipPathUnits="userSpaceOnUse" id="clipPath1">
        <path d="M0 0 L715 0 L715 149 L0 149 L0 0 Z"/>
      </clipPath>
      <clipPath clipPathUnits="userSpaceOnUse" id="clipPath2">
        <path d="M358 61 L1073 61 L1073 210 L358 210 L358 61 Z"/>
      </clipPath>
    </defs>
    <g fill="white" text-rendering="geometricPrecision" shape-rendering="geometricPrecision" transform="translate(-358,-61)" stroke="white">
      <rect x="358" width="715" height="149" y="61" clip-path="url(#clipPath2)" stroke="none"/>
    </g>
    <g id="y.node.0">
      <g fill="white" text-rendering="geometricPrecision" shape-rendering="geometricPrecision" transform="matrix(1,0,0,1,-358,-61)" stroke="white">
        <rect x="444.9277" y="111.6478" width="577.1445" rx="4" ry="4" height="47.7045" stroke="none"/>
      </g>
      <g>
        <g text-rendering="geometricPrecision" stroke-miterlimit="1.45" shape-rendering="geometricPrecision" font-family="'DejaVu Serif'" transform="matrix(1,0,0,1,-358,-61)" stroke-linecap="butt">
          <text x="450.9277" xml:space="preserve" y="132.6699" stroke="none">Graba un video donde se muestren cinco riesgos y la forma de actuación contra ellos.</text>
        </g>
        <g text-rendering="geometricPrecision" stroke-miterlimit="1.45" shape-rendering="geometricPrecision" font-family="'DejaVu Serif'" transform="matrix(1,0,0,1,-358,-61)" stroke-linecap="butt">
          <text x="450.9277" xml:space="preserve" y="146.6387" stroke="none">Se debe mostrar cual es el riesgo, sus consecuencias y como evitarlos.</text>
        </g>
      </g>
      <g stroke-linecap="butt" transform="matrix(1,0,0,1,-358,-61)" fill="gray" text-rendering="geometricPrecision" shape-rendering="geometricPrecision" stroke="gray" stroke-width="2" stroke-miterlimit="1.45">
        <rect x="444.9277" y="111.6478" fill="none" width="577.1445" rx="4" ry="4" height="47.7045"/>
      </g>
    </g>
    <g id="y.node.1">
      <a xlink:href="100-Programas.html">
        <g fill="rgb(255,204,0)" text-rendering="geometricPrecision" shape-rendering="geometricPrecision" transform="matrix(1,0,0,1,-358,-61)" stroke="rgb(255,204,0)">
          <ellipse rx="12.7243" ry="12.1781" cx="421.2907" cy="123.8259" stroke="none"/>
        </g>
        <g>
          <g font-size="14px" stroke-linecap="butt" transform="matrix(1,0,0,1,-358,-61)" text-rendering="geometricPrecision" font-family="'DejaVu Serif'" shape-rendering="geometricPrecision" stroke-miterlimit="1.45">
            <text x="416.837" xml:space="preserve" y="128.6725" stroke="none">1</text>
          </g>
        </g>
      </a>
    </g>
  </g>
</svg>
